SplineFontDB: 1.0
FontName: Vytis-BoldItalic
FullName: Vytis Bold Italic
FamilyName: Vytis
Weight: Bold
Copyright: Copyleft Atviras kodas Lietuvai (AKL), 2005
Version: 1.002 2005
ItalicAngle: -16
UnderlinePosition: -223
UnderlineWidth: 195
Ascent: 1638
Descent: 410
Order2: 1
XUID: [1021 703 207864929 7774424]
FSType: 0
PfmFamily: 17
TTFWeight: 700
TTFWidth: 5
Panose: 2 2 7 3 6 5 5 9 3 4
LineGap: 87
VLineGap: 0
OS2TypoAscent: 1387
OS2TypoDescent: -442
OS2TypoLinegap: 0
OS2WinAscent: -276
OS2WinAOffset: 1
OS2WinDescent: -185
OS2WinDOffset: 1
HheadAscent: -276
HheadAOffset: 1
HheadDescent: 185
HheadDOffset: 1
OS2SubXSize: 1434
OS2SubYSize: 1331
OS2SubXOff: 44
OS2SubYOff: 293
OS2SupXSize: 1434
OS2SupYSize: 1331
OS2SupXOff: 76
OS2SupYOff: 928
OS2StrikeYSize: 102
OS2StrikeYPos: 530
OS2FamilyClass: 261
OS2Vendor: 'euge'
ScriptLang: 4
 1 latn 1 dflt 
 1 cyrl 1 dflt 
 1 grek 1 dflt 
 1 DFLT 1 dflt 
TtfTable: prep 1400
\,]eb\,]GX5lUib!!.TNO9#H.!J^]k!Rh&P#mgVN!<NK,*W\_2!!rZ.!"qRdGTf=?GTku&()It?
eJ8r@H[HSJ%soCF!q1L*HieYB)$G:#HT$4?HW5?+H[0rCOO4*VdM<W=#1446AC5MH"Enu)(E@:2
()Iqs&8V@PCi:(**"Zp/CbTZ-0Pj!j!\eFUCf"r_DZg@LC]OcVDAF0uCB:VV^MX*gDLlgH5]m_X
3HTBX'c^k$'GVTQAl*)IAoDAd#lnQ<#A.Za'c[Ei(1mVkAqXc\AtWb?B(T[>AS;bs?tB?JBH(V8
BKKmGBE_s\LN+5EBE8ul(,'_nF&-iZfK^-lq/ZTD#]gi(!XF$=)'O8m)'K'k"7!4o""OG_s5:5Y
%h^n4s3S*H(*,EFs1gl9U(@qtTgL.MTL1%LTV2E;H_H@kS"Tqos1ktD$PGJ0s1gl.X:Z(*X?m@<
X/Z7P\Gs?03N<N$3H4?d_8$1(&$d:_!XTCC!=,j4"Y2(b+<rlrjqARlJ(k"'VZSG7SI#]b!1XUj
!^N7a%QV'!^d&I5%2([sV[k;?P63=uP6!2Ds1glCQjF0]R"bbpQ^/:,jFm[dVPaMH5c6(_3L5s3
5a<lU3Of1rZA/N4\c9GIm^!cS3Np'tm/Xm'm/YH7m6D<eoreEIORrQMo)\E9"=s$3"Y7+_^d&G"
)&tY%n,_X)!\;O>"Y7+_^d&d])&tY%bQ5jQ%3N^5!%VHu!>+Sum"H)p\Gs@Nl:+9(\Gs@Nl7t4W
\Gs?0''_#"3U5i2/*V`k.j4Wg+Qrj9s1ktV$kGA.s1glIYn7U/YCQj-OGj3uN=%1nN=%1mN<Cbk
K`ioUJI3oVI0qKQJHRL5s1gnBJfZ'q5_94I3Iuqf/,Y)'.u&f].tr`c.t`T].gq+OLF\.\LBJPT
'c8hD'f?^=1_gNW'aui4#r*/!0GO[C'`]j$-799O-P%[W%P0+@+sRRC,7bh;%Nli(%hK<]#mq%K
"pYDB!sAc9!!*-0"p8BX5QD9(3C!QW'0-$p#qO@)!=o\A%g*=Q?Om5F%hB`a!XBYa*=Whj)@[Dm

StartChar: .notdef
Encoding: 65536 -1 0
Width: 1593
Flags: W
Fore
284 0 m 1,0,-1
 284 1536 l 1,1,-1
 1337 1536 l 1,2,-1
 1337 0 l 1,3,-1
 284 0 l 1,0,-1
412 128 m 1,4,-1
 1209 128 l 1,5,-1
 1209 1408 l 1,6,-1
 412 1408 l 1,7,-1
 412 128 l 1,4,-1
EndSplineSet
EndChar
StartChar: exclam
Encoding: 33 33 4
Width: 797
Flags: W
Fore
309 440 m 1,0,1
 362 643 362 643 371 954 c 0,2,3
 376 1128 376 1128 392.5 1201.5 c 128,-1,4
 409 1275 409 1275 467 1330.5 c 128,-1,5
 525 1386 525 1386 604 1386 c 0,6,7
 667 1386 667 1386 702 1350.5 c 128,-1,8
 737 1315 737 1315 737 1266 c 0,9,10
 737 1219 737 1219 711.5 1149 c 128,-1,11
 686 1079 686 1079 585 904 c 0,12,13
 537 822 537 822 507 766 c 128,-1,14
 477 710 477 710 457.5 664.5 c 128,-1,15
 438 619 438 619 379 440 c 1,16,-1
 309 440 l 1,0,1
281 301 m 0,17,18
 349 301 349 301 397.5 252.5 c 128,-1,19
 446 204 446 204 446 135 c 0,20,21
 446 66 446 66 397.5 17.5 c 128,-1,22
 349 -31 349 -31 281 -31 c 0,23,24
 212 -31 212 -31 163.5 17.5 c 128,-1,25
 115 66 115 66 115 135 c 0,26,27
 115 204 115 204 163 252.5 c 128,-1,28
 211 301 211 301 281 301 c 0,17,18
EndSplineSet
EndChar
StartChar: quotedbl
Encoding: 34 34 5
Width: 1137
Flags: W
Fore
805 721 m 1,0,1
 805 1030 805 1030 808.5 1134 c 128,-1,2
 812 1238 812 1238 829 1284 c 128,-1,3
 846 1330 846 1330 893 1358 c 128,-1,4
 940 1386 940 1386 1001 1386 c 0,5,6
 1067 1386 1067 1386 1107 1351 c 128,-1,7
 1147 1316 1147 1316 1147 1264 c 0,8,9
 1147 1199 1147 1199 1070 1066 c 2,10,-1
 870 721 l 1,11,-1
 805 721 l 1,0,1
317 721 m 1,12,13
 317 1122 317 1122 325.5 1211.5 c 128,-1,14
 334 1301 334 1301 385.5 1343.5 c 128,-1,15
 437 1386 437 1386 514 1386 c 0,16,17
 579 1386 579 1386 619 1351 c 128,-1,18
 659 1316 659 1316 659 1264 c 0,19,20
 659 1199 659 1199 583 1066 c 2,21,-1
 383 721 l 1,22,-1
 317 721 l 1,12,13
EndSplineSet
EndChar
StartChar: numbersign
Encoding: 35 35 6
Width: 1024
Flags: W
Fore
1032 397 m 1,0,-1
 782 397 l 1,1,-1
 696 -29 l 1,2,-1
 565 -29 l 1,3,-1
 651 397 l 1,4,-1
 358 397 l 1,5,-1
 272 -29 l 1,6,-1
 141 -29 l 1,7,-1
 227 397 l 1,8,-1
 90 397 l 1,9,-1
 90 528 l 1,10,-1
 254 528 l 1,11,-1
 313 821 l 1,12,-1
 90 821 l 1,13,-1
 90 952 l 1,14,-1
 338 952 l 1,15,-1
 426 1384 l 1,16,-1
 557 1384 l 1,17,-1
 469 952 l 1,18,-1
 762 952 l 1,19,-1
 850 1384 l 1,20,-1
 981 1384 l 1,21,-1
 893 952 l 1,22,-1
 1032 952 l 1,23,-1
 1032 821 l 1,24,-1
 868 821 l 1,25,-1
 809 528 l 1,26,-1
 1032 528 l 1,27,-1
 1032 397 l 1,0,-1
737 821 m 1,28,-1
 444 821 l 1,29,-1
 385 528 l 1,30,-1
 678 528 l 1,31,-1
 737 821 l 1,28,-1
EndSplineSet
EndChar
StartChar: dollar
Encoding: 36 36 7
Width: 1024
Flags: W
Fore
1137 1386 m 1,0,-1
 1020 983 l 1,1,-1
 952 983 l 1,2,3
 957 1017 957 1017 957 1047 c 0,4,5
 957 1238 957 1238 784 1282 c 1,6,-1
 647 801 l 1,7,8
 650 798 650 798 657 793 c 0,9,10
 944 588 944 588 944 377 c 0,11,12
 944 184 944 184 804 77.5 c 128,-1,13
 664 -29 664 -29 410 -29 c 1,14,-1
 373 -156 l 1,15,-1
 287 -156 l 1,16,-1
 324 -25 l 1,17,18
 268 -19 268 -19 173 4 c 0,19,20
 103 20 103 20 80 20 c 0,21,22
 43 20 43 20 25 -31 c 1,23,-1
 -43 -31 l 1,24,-1
 80 399 l 1,25,-1
 147 399 l 1,26,27
 141 358 141 358 141 321 c 0,28,29
 141 105 141 105 350 70 c 1,30,-1
 492 563 l 1,31,32
 486 569 486 569 469 582 c 0,33,34
 330 682 330 682 274.5 778 c 128,-1,35
 219 874 219 874 219 991 c 0,36,37
 219 1168 219 1168 356.5 1277 c 128,-1,38
 494 1386 494 1386 721 1386 c 2,39,-1
 729 1386 l 1,40,-1
 754 1470 l 1,41,-1
 840 1470 l 1,42,-1
 813 1380 l 1,43,44
 854 1375 854 1375 930 1359 c 0,45,46
 995 1346 995 1346 1012 1346 c 0,47,48
 1049 1346 1049 1346 1069 1386 c 1,49,-1
 1137 1386 l 1,0,-1
702 1292 m 1,50,-1
 688 1292 l 2,51,52
 591 1292 591 1292 527 1225 c 128,-1,53
 463 1158 463 1158 463 1059 c 0,54,55
 463 957 463 957 575 856 c 1,56,-1
 702 1292 l 1,50,-1
436 66 m 1,57,58
 558 72 558 72 621 136.5 c 128,-1,59
 684 201 684 201 684 307 c 0,60,61
 684 399 684 399 563 506 c 1,62,-1
 436 66 l 1,57,58
EndSplineSet
EndChar
StartChar: percent
Encoding: 37 37 8
Width: 1706
Flags: W
Fore
1587 1386 m 1,0,-1
 365 -31 l 1,1,-1
 242 -31 l 1,2,-1
 1464 1386 l 1,3,-1
 1587 1386 l 1,0,-1
618 1384 m 0,4,5
 732 1384 732 1384 804.5 1308.5 c 128,-1,6
 877 1233 877 1233 877 1120 c 0,7,8
 877 947 877 947 750 799 c 128,-1,9
 623 651 623 651 455 651 c 0,10,11
 341 651 341 651 269 726.5 c 128,-1,12
 197 802 197 802 197 915 c 0,13,14
 197 1089 197 1089 323.5 1236.5 c 128,-1,15
 450 1384 450 1384 618 1384 c 0,4,5
459 709 m 0,16,17
 495 709 495 709 540 787 c 128,-1,18
 585 865 585 865 628.5 1033 c 128,-1,19
 672 1201 672 1201 672 1247 c 0,20,21
 672 1327 672 1327 614 1327 c 0,22,23
 578 1327 578 1327 533.5 1248.5 c 128,-1,24
 489 1170 489 1170 445 1002.5 c 128,-1,25
 401 835 401 835 401 788 c 0,26,27
 401 709 401 709 459 709 c 0,16,17
1376 705 m 0,28,29
 1490 705 1490 705 1562 629 c 128,-1,30
 1634 553 1634 553 1634 440 c 0,31,32
 1634 268 1634 268 1509 119.5 c 128,-1,33
 1384 -29 1384 -29 1212 -29 c 0,34,35
 1099 -29 1099 -29 1026.5 47 c 128,-1,36
 954 123 954 123 954 236 c 0,37,38
 954 409 954 409 1081 557 c 128,-1,39
 1208 705 1208 705 1376 705 c 0,28,29
1217 29 m 0,40,41
 1253 29 1253 29 1297.5 107.5 c 128,-1,42
 1342 186 1342 186 1386 353.5 c 128,-1,43
 1430 521 1430 521 1430 567 c 0,44,45
 1430 647 1430 647 1372 647 c 0,46,47
 1336 647 1336 647 1291 568.5 c 128,-1,48
 1246 490 1246 490 1202.5 322.5 c 128,-1,49
 1159 155 1159 155 1159 109 c 0,50,51
 1159 29 1159 29 1217 29 c 0,40,41
EndSplineSet
EndChar
StartChar: ampersand
Encoding: 38 38 9
Width: 1593
Flags: W
Fore
1612 793 m 1,0,-1
 1591 725 l 1,1,2
 1514 725 1514 725 1436.5 675.5 c 128,-1,3
 1359 626 1359 626 1320.5 591 c 128,-1,4
 1282 556 1282 556 1196 468 c 0,5,6
 1097 366 1097 366 1057 330 c 1,7,8
 1207 90 1207 90 1348 90 c 0,9,10
 1410 90 1410 90 1487 109 c 1,11,-1
 1468 47 l 1,12,13
 1402 15 1402 15 1299.5 -5 c 128,-1,14
 1197 -25 1197 -25 1118 -25 c 0,15,16
 960 -25 960 -25 829 154 c 1,17,18
 582 -31 582 -31 375 -31 c 0,19,20
 225 -31 225 -31 140 54.5 c 128,-1,21
 55 140 55 140 55 268 c 0,22,23
 55 427 55 427 174 544 c 128,-1,24
 293 661 293 661 541 750 c 1,25,26
 504 856 504 856 504 950 c 0,27,28
 504 1144 504 1144 622 1265 c 128,-1,29
 740 1386 740 1386 950 1386 c 0,30,31
 1068 1386 1068 1386 1138 1326 c 128,-1,32
 1208 1266 1208 1266 1208 1167 c 0,33,34
 1208 1035 1208 1035 1121.5 941.5 c 128,-1,35
 1035 848 1035 848 840 770 c 1,36,37
 935 546 935 546 1014 406 c 1,38,39
 1090 471 1090 471 1135 540.5 c 128,-1,40
 1180 610 1180 610 1180 657 c 0,41,42
 1180 688 1180 688 1154 706.5 c 128,-1,43
 1128 725 1128 725 1085 725 c 1,44,-1
 1106 793 l 1,45,-1
 1612 793 l 1,0,-1
807 852 m 1,46,47
 944 909 944 909 1010.5 983.5 c 128,-1,48
 1077 1058 1077 1058 1077 1165 c 0,49,50
 1077 1223 1077 1223 1044 1257.5 c 128,-1,51
 1011 1292 1011 1292 952 1292 c 0,52,53
 873 1292 873 1292 821.5 1225 c 128,-1,54
 770 1158 770 1158 770 1049 c 0,55,56
 770 950 770 950 807 852 c 1,46,47
780 227 m 1,57,58
 666 422 666 422 571 657 c 1,59,60
 367 545 367 545 367 326 c 0,61,62
 367 238 367 238 413.5 185.5 c 128,-1,63
 460 133 460 133 535 133 c 0,64,65
 638 133 638 133 780 227 c 1,57,58
EndSplineSet
EndChar
StartChar: quotesingle
Encoding: 39 39 10
Width: 569
Flags: W
Fore
276 721 m 1,0,1
 276 1030 276 1030 280 1134 c 128,-1,2
 284 1238 284 1238 301 1284 c 128,-1,3
 318 1330 318 1330 364.5 1358 c 128,-1,4
 411 1386 411 1386 473 1386 c 0,5,6
 538 1386 538 1386 578 1351 c 128,-1,7
 618 1316 618 1316 618 1264 c 0,8,9
 618 1199 618 1199 542 1066 c 2,10,-1
 342 721 l 1,11,-1
 276 721 l 1,0,1
EndSplineSet
EndChar
StartChar: parenleft
Encoding: 40 40 11
Width: 682
Flags: W
Fore
967 1358 m 1,0,1
 695 1194 695 1194 521.5 805 c 128,-1,2
 348 416 348 416 348 61 c 0,3,4
 348 -64 348 -64 389.5 -190 c 128,-1,5
 431 -316 431 -316 498 -383 c 1,6,-1
 453 -442 l 1,7,8
 288 -334 288 -334 193 -155 c 128,-1,9
 98 24 98 24 98 227 c 0,10,11
 98 580 98 580 322.5 913.5 c 128,-1,12
 547 1247 547 1247 928 1421 c 1,13,-1
 967 1358 l 1,0,1
EndSplineSet
EndChar
StartChar: parenright
Encoding: 41 41 12
Width: 682
Flags: W
Fore
215 1421 m 1,0,1
 380 1313 380 1313 475 1134 c 128,-1,2
 570 955 570 955 570 752 c 0,3,4
 570 399 570 399 345.5 65.5 c 128,-1,5
 121 -268 121 -268 -260 -442 c 1,6,-1
 -299 -379 l 1,7,8
 -27 -215 -27 -215 146 174 c 128,-1,9
 319 563 319 563 319 918 c 0,10,11
 319 1043 319 1043 278 1169 c 128,-1,12
 237 1295 237 1295 170 1362 c 1,13,-1
 215 1421 l 1,0,1
EndSplineSet
EndChar
StartChar: asterisk
Encoding: 42 42 13
Width: 1024
Flags: W
Fore
643 1014 m 1,0,1
 691 1032 691 1032 762 1098 c 0,2,3
 816 1149 816 1149 845 1161.5 c 128,-1,4
 874 1174 874 1174 901 1174 c 0,5,6
 950 1174 950 1174 982 1143.5 c 128,-1,7
 1014 1113 1014 1113 1014 1067 c 0,8,9
 1014 1015 1014 1015 976 982.5 c 128,-1,10
 938 950 938 950 872 950 c 0,11,12
 852 950 852 950 808 956 c 0,13,14
 758 963 758 963 731 963 c 0,15,16
 693 963 693 963 664 954 c 1,17,18
 692 918 692 918 780 868 c 0,19,20
 850 831 850 831 875.5 798.5 c 128,-1,21
 901 766 901 766 901 723 c 0,22,23
 901 677 901 677 869 645.5 c 128,-1,24
 837 614 837 614 788 614 c 0,25,26
 685 614 685 614 659 772 c 0,27,28
 648 860 648 860 612 918 c 1,29,30
 577 860 577 860 565 772 c 0,31,32
 540 614 540 614 436 614 c 0,33,34
 387 614 387 614 355.5 645.5 c 128,-1,35
 324 677 324 677 324 723 c 0,36,37
 324 766 324 766 349 798.5 c 128,-1,38
 374 831 374 831 444 868 c 0,39,40
 533 918 533 918 561 954 c 1,41,42
 531 963 531 963 494 963 c 0,43,44
 467 963 467 963 417 956 c 0,45,46
 373 950 373 950 352 950 c 0,47,48
 287 950 287 950 249 982.5 c 128,-1,49
 211 1015 211 1015 211 1067 c 0,50,51
 211 1112 211 1112 242.5 1143 c 128,-1,52
 274 1174 274 1174 324 1174 c 0,53,54
 351 1174 351 1174 380 1161.5 c 128,-1,55
 409 1149 409 1149 463 1098 c 0,56,57
 534 1032 534 1032 582 1014 c 1,58,59
 578 1067 578 1067 537 1153 c 0,60,61
 502 1228 502 1228 502 1270 c 0,62,63
 502 1321 502 1321 534.5 1353.5 c 128,-1,64
 567 1386 567 1386 612 1386 c 0,65,66
 658 1386 658 1386 690.5 1353 c 128,-1,67
 723 1320 723 1320 723 1270 c 0,68,69
 723 1228 723 1228 688 1153 c 0,70,71
 647 1067 647 1067 643 1014 c 1,0,1
EndSplineSet
EndChar
StartChar: plus
Encoding: 43 43 14
Width: 1167
Flags: W
Fore
1186 612 m 1,0,-1
 705 612 l 1,1,-1
 705 131 l 1,2,-1
 573 131 l 1,3,-1
 573 612 l 1,4,-1
 92 612 l 1,5,-1
 92 743 l 1,6,-1
 573 743 l 1,7,-1
 573 1225 l 1,8,-1
 705 1225 l 1,9,-1
 705 743 l 1,10,-1
 1186 743 l 1,11,-1
 1186 612 l 1,0,-1
EndSplineSet
EndChar
StartChar: comma
Encoding: 44 44 15
Width: 512
Flags: W
Fore
-94 -299 m 1,0,1
 43 -260 43 -260 119 -193 c 128,-1,2
 195 -126 195 -126 195 -68 c 0,3,4
 195 -27 195 -27 129 -2 c 0,5,6
 35 36 35 36 35 131 c 0,7,8
 35 204 35 204 85.5 252.5 c 128,-1,9
 136 301 136 301 211 301 c 0,10,11
 288 301 288 301 336.5 248 c 128,-1,12
 385 195 385 195 385 121 c 0,13,14
 385 -39 385 -39 263.5 -172.5 c 128,-1,15
 142 -306 142 -306 -72 -362 c 1,16,-1
 -94 -299 l 1,0,1
EndSplineSet
EndChar
StartChar: hyphen
Encoding: 45 45 16
Width: 682
Flags: W
Fore
664 573 m 1,0,-1
 600 367 l 1,1,-1
 16 367 l 1,2,-1
 80 573 l 1,3,-1
 664 573 l 1,0,-1
EndSplineSet
EndChar
StartChar: period
Encoding: 46 46 17
Width: 512
Flags: W
Fore
139 301 m 0,0,1
 208 301 208 301 256.5 252.5 c 128,-1,2
 305 204 305 204 305 135 c 0,3,4
 305 66 305 66 256.5 17.5 c 128,-1,5
 208 -31 208 -31 139 -31 c 0,6,7
 70 -31 70 -31 21.5 17.5 c 128,-1,8
 -27 66 -27 66 -27 135 c 0,9,10
 -27 204 -27 204 21.5 252.5 c 128,-1,11
 70 301 70 301 139 301 c 0,0,1
EndSplineSet
EndChar
StartChar: slash
Encoding: 47 47 18
Width: 569
Flags: W
Fore
848 1386 m 1,0,-1
 -29 -31 l 1,1,-1
 -170 -31 l 1,2,-1
 707 1386 l 1,3,-1
 848 1386 l 1,0,-1
EndSplineSet
EndChar
StartChar: zero
Encoding: 48 48 19
Width: 1024
Flags: W
Fore
709 1386 m 0,0,1
 879 1386 879 1386 968 1267.5 c 128,-1,2
 1057 1149 1057 1149 1057 920 c 0,3,4
 1057 703 1057 703 971 472 c 128,-1,5
 885 241 885 241 741 105 c 128,-1,6
 597 -31 597 -31 426 -31 c 0,7,8
 267 -31 267 -31 172.5 93 c 128,-1,9
 78 217 78 217 78 424 c 0,10,11
 78 646 78 646 163.5 879.5 c 128,-1,12
 249 1113 249 1113 393 1249.5 c 128,-1,13
 537 1386 537 1386 709 1386 c 0,0,1
418 59 m 0,14,15
 482 59 482 59 570 239.5 c 128,-1,16
 658 420 658 420 723 687.5 c 128,-1,17
 788 955 788 955 788 1145 c 0,18,19
 788 1228 788 1228 772 1262 c 128,-1,20
 756 1296 756 1296 717 1296 c 0,21,22
 653 1296 653 1296 565 1116 c 128,-1,23
 477 936 477 936 411.5 668.5 c 128,-1,24
 346 401 346 401 346 211 c 0,25,26
 346 128 346 128 362.5 93.5 c 128,-1,27
 379 59 379 59 418 59 c 0,14,15
EndSplineSet
EndChar
StartChar: one
Encoding: 49 49 20
Width: 1024
Flags: W
Fore
938 1384 m 1,0,-1
 598 201 l 2,1,2
 583 148 583 148 583 125 c 0,3,4
 583 91 583 91 613.5 79.5 c 128,-1,5
 644 68 644 68 780 68 c 1,6,-1
 760 0 l 1,7,-1
 10 0 l 1,8,-1
 31 68 l 1,9,10
 153 68 153 68 202 75.5 c 128,-1,11
 251 83 251 83 271.5 108.5 c 128,-1,12
 292 134 292 134 311 201 c 2,13,-1
 571 1104 l 2,14,15
 580 1134 580 1134 580 1152 c 0,16,17
 580 1179 580 1179 560 1189.5 c 128,-1,18
 540 1200 540 1200 485 1200 c 2,19,-1
 344 1200 l 1,20,-1
 365 1270 l 1,21,22
 481 1270 481 1270 607 1302.5 c 128,-1,23
 733 1335 733 1335 791 1384 c 1,24,-1
 938 1384 l 1,0,-1
EndSplineSet
KernsSLIFO: 20 -113 0 0
EndChar
StartChar: two
Encoding: 50 50 21
Width: 1024
Flags: W
Fore
209 1006 m 1,0,1
 443 1386 443 1386 774 1386 c 0,2,3
 911 1386 911 1386 993 1306.5 c 128,-1,4
 1075 1227 1075 1227 1075 1100 c 0,5,6
 1075 939 1075 939 982.5 808.5 c 128,-1,7
 890 678 890 678 675.5 537.5 c 128,-1,8
 461 397 461 397 193 209 c 1,9,-1
 639 209 l 2,10,11
 736 209 736 209 771.5 246 c 128,-1,12
 807 283 807 283 846 420 c 1,13,-1
 911 420 l 1,14,-1
 793 0 l 1,15,-1
 -61 0 l 1,16,-1
 -25 135 l 1,17,18
 386 442 386 442 585 646.5 c 128,-1,19
 784 851 784 851 784 1040 c 0,20,21
 784 1113 784 1113 741 1155.5 c 128,-1,22
 698 1198 698 1198 627 1198 c 0,23,24
 435 1198 435 1198 268 981 c 1,25,-1
 209 1006 l 1,0,1
EndSplineSet
EndChar
StartChar: three
Encoding: 51 51 22
Width: 1024
Flags: W
Fore
205 1108 m 1,0,1
 303 1231 303 1231 443.5 1308.5 c 128,-1,2
 584 1386 584 1386 713 1386 c 0,3,4
 845 1386 845 1386 926.5 1317 c 128,-1,5
 1008 1248 1008 1248 1008 1139 c 0,6,7
 1008 917 1008 917 653 788 c 1,8,-1
 653 784 l 1,9,10
 781 768 781 768 864.5 677.5 c 128,-1,11
 948 587 948 587 948 483 c 0,12,13
 948 268 948 268 754 118.5 c 128,-1,14
 560 -31 560 -31 303 -31 c 0,15,16
 221 -31 221 -31 127 -3 c 128,-1,17
 33 25 33 25 -18 63 c 1,18,-1
 14 133 l 1,19,20
 139 68 139 68 289 68 c 0,21,22
 456 68 456 68 556.5 178 c 128,-1,23
 657 288 657 288 657 459 c 0,24,25
 657 580 657 580 583.5 639 c 128,-1,26
 510 698 510 698 416 698 c 0,27,28
 377 698 377 698 315 688 c 1,29,-1
 338 766 l 1,30,31
 525 787 525 787 628 866 c 128,-1,32
 731 945 731 945 731 1067 c 0,33,34
 731 1131 731 1131 689 1169.5 c 128,-1,35
 647 1208 647 1208 569 1208 c 0,36,37
 490 1208 490 1208 401 1167 c 128,-1,38
 312 1126 312 1126 256 1063 c 1,39,-1
 205 1108 l 1,0,1
EndSplineSet
EndChar
StartChar: four
Encoding: 52 52 23
Width: 1024
Flags: W
Fore
1071 1384 m 1,0,-1
 823 518 l 1,1,-1
 1006 518 l 1,2,-1
 952 334 l 1,3,-1
 770 334 l 1,4,5
 718 147 718 147 718 123 c 0,6,7
 718 92 718 92 744.5 80 c 128,-1,8
 771 68 771 68 887 68 c 1,9,-1
 866 0 l 1,10,-1
 143 0 l 1,11,-1
 164 68 l 1,12,13
 306 68 306 68 354.5 79.5 c 128,-1,14
 403 91 403 91 419 125 c 128,-1,15
 435 159 435 159 483 334 c 1,16,-1
 0 334 l 1,17,-1
 49 504 l 1,18,-1
 848 1384 l 1,19,-1
 1071 1384 l 1,0,-1
705 1102 m 1,20,-1
 176 518 l 1,21,-1
 537 518 l 1,22,-1
 705 1102 l 1,20,-1
EndSplineSet
EndChar
StartChar: five
Encoding: 53 53 24
Width: 1024
Flags: W
Fore
1104 1356 m 1,0,-1
 1044 1147 l 1,1,-1
 453 1147 l 1,2,-1
 332 811 l 1,3,4
 443 866 443 866 565 866 c 0,5,6
 734 866 734 866 841 773 c 128,-1,7
 948 680 948 680 948 541 c 0,8,9
 948 283 948 283 759.5 126 c 128,-1,10
 571 -31 571 -31 303 -31 c 0,11,12
 228 -31 228 -31 132.5 -3.5 c 128,-1,13
 37 24 37 24 -20 63 c 1,14,-1
 14 133 l 1,15,16
 69 105 69 105 149 86.5 c 128,-1,17
 229 68 229 68 289 68 c 0,18,19
 456 68 456 68 556.5 188 c 128,-1,20
 657 308 657 308 657 502 c 0,21,22
 657 602 657 602 597.5 672.5 c 128,-1,23
 538 743 538 743 449 743 c 0,24,25
 363 743 363 743 274 686 c 1,26,-1
 184 694 l 1,27,-1
 424 1356 l 1,28,-1
 1104 1356 l 1,0,-1
EndSplineSet
EndChar
StartChar: six
Encoding: 54 54 25
Width: 1024
Flags: W
Fore
1085 1317 m 1,0,1
 796 1256 796 1256 561 877 c 1,2,3
 596 893 596 893 647 893 c 0,4,5
 792 893 792 893 884.5 794.5 c 128,-1,6
 977 696 977 696 977 551 c 0,7,8
 977 305 977 305 818.5 137 c 128,-1,9
 660 -31 660 -31 453 -31 c 0,10,11
 287 -31 287 -31 186.5 82.5 c 128,-1,12
 86 196 86 196 86 377 c 0,13,14
 86 724 86 724 385.5 1038.5 c 128,-1,15
 685 1353 685 1353 1085 1386 c 1,16,-1
 1085 1317 l 1,0,1
487 748 m 1,17,18
 360 489 360 489 360 260 c 0,19,20
 360 150 360 150 385.5 103.5 c 128,-1,21
 411 57 411 57 465 57 c 0,22,23
 546 57 546 57 624 214.5 c 128,-1,24
 702 372 702 372 702 578 c 0,25,26
 702 666 702 666 667 719 c 128,-1,27
 632 772 632 772 578 772 c 0,28,29
 530 772 530 772 487 748 c 1,17,18
EndSplineSet
EndChar
StartChar: seven
Encoding: 55 55 26
Width: 1024
Flags: W
Fore
1174 1356 m 1,0,-1
 1151 1272 l 1,1,-1
 371 0 l 1,2,-1
 115 0 l 1,3,-1
 901 1116 l 1,4,-1
 457 1116 l 2,5,6
 370 1116 370 1116 330 1073.5 c 128,-1,7
 290 1031 290 1031 252 897 c 1,8,-1
 184 897 l 1,9,-1
 315 1356 l 1,10,-1
 1174 1356 l 1,0,-1
EndSplineSet
EndChar
StartChar: eight
Encoding: 56 56 27
Width: 1024
Flags: W
Fore
410 725 m 1,0,1
 254 900 254 900 254 1051 c 0,2,3
 254 1197 254 1197 376.5 1291.5 c 128,-1,4
 499 1386 499 1386 692 1386 c 0,5,6
 864 1386 864 1386 963.5 1311.5 c 128,-1,7
 1063 1237 1063 1237 1063 1110 c 0,8,9
 1063 904 1063 904 770 774 c 1,10,11
 973 563 973 563 973 383 c 0,12,13
 973 214 973 214 829 91.5 c 128,-1,14
 685 -31 685 -31 463 -31 c 0,15,16
 268 -31 268 -31 153.5 60.5 c 128,-1,17
 39 152 39 152 39 305 c 0,18,19
 39 562 39 562 410 725 c 1,0,1
700 842 m 1,20,21
 893 941 893 941 893 1110 c 0,22,23
 893 1202 893 1202 842.5 1249 c 128,-1,24
 792 1296 792 1296 715 1296 c 0,25,26
 639 1296 639 1296 592 1247.5 c 128,-1,27
 545 1199 545 1199 545 1120 c 0,28,29
 545 1046 545 1046 581.5 984.5 c 128,-1,30
 618 923 618 923 700 842 c 1,20,21
682 283 m 0,31,32
 682 380 682 380 637 460.5 c 128,-1,33
 592 541 592 541 475 657 c 1,34,35
 345 595 345 595 282 510 c 128,-1,36
 219 425 219 425 219 297 c 0,37,38
 219 195 219 195 282.5 127 c 128,-1,39
 346 59 346 59 446 59 c 0,40,41
 555 59 555 59 618.5 120.5 c 128,-1,42
 682 182 682 182 682 283 c 0,31,32
EndSplineSet
EndChar
StartChar: nine
Encoding: 57 57 28
Width: 1024
Flags: W
Fore
575 479 m 1,0,1
 540 463 540 463 489 463 c 0,2,3
 345 463 345 463 252.5 561.5 c 128,-1,4
 160 660 160 660 160 805 c 0,5,6
 160 1051 160 1051 318.5 1218.5 c 128,-1,7
 477 1386 477 1386 684 1386 c 0,8,9
 850 1386 850 1386 950.5 1273 c 128,-1,10
 1051 1160 1051 1160 1051 979 c 0,11,12
 1051 632 1051 632 751.5 317 c 128,-1,13
 452 2 452 2 51 -31 c 1,14,-1
 51 39 l 1,15,16
 341 100 341 100 575 479 c 1,0,1
649 608 m 1,17,18
 776 867 776 867 776 1096 c 0,19,20
 776 1205 776 1205 751 1251.5 c 128,-1,21
 726 1298 726 1298 672 1298 c 0,22,23
 591 1298 591 1298 512.5 1141 c 128,-1,24
 434 984 434 984 434 778 c 0,25,26
 434 689 434 689 469.5 636.5 c 128,-1,27
 505 584 505 584 559 584 c 0,28,29
 607 584 607 584 649 608 c 1,17,18
EndSplineSet
EndChar
StartChar: colon
Encoding: 58 58 29
Width: 682
Flags: W
Fore
444 965 m 0,0,1
 513 965 513 965 561.5 916.5 c 128,-1,2
 610 868 610 868 610 799 c 0,3,4
 610 730 610 730 561.5 681.5 c 128,-1,5
 513 633 513 633 444 633 c 0,6,7
 376 633 376 633 327.5 681.5 c 128,-1,8
 279 730 279 730 279 799 c 0,9,10
 279 868 279 868 327.5 916.5 c 128,-1,11
 376 965 376 965 444 965 c 0,0,1
258 301 m 0,12,13
 327 301 327 301 375.5 252.5 c 128,-1,14
 424 204 424 204 424 135 c 0,15,16
 424 66 424 66 375.5 17.5 c 128,-1,17
 327 -31 327 -31 258 -31 c 0,18,19
 189 -31 189 -31 140.5 17.5 c 128,-1,20
 92 66 92 66 92 135 c 0,21,22
 92 204 92 204 140.5 252.5 c 128,-1,23
 189 301 189 301 258 301 c 0,12,13
EndSplineSet
EndChar
StartChar: semicolon
Encoding: 59 59 30
Width: 682
Flags: W
Fore
-37 -299 m 1,0,1
 101 -260 101 -260 176.5 -193 c 128,-1,2
 252 -126 252 -126 252 -68 c 0,3,4
 252 -27 252 -27 186 -2 c 0,5,6
 92 36 92 36 92 131 c 0,7,8
 92 204 92 204 142.5 252.5 c 128,-1,9
 193 301 193 301 268 301 c 0,10,11
 345 301 345 301 393.5 248 c 128,-1,12
 442 195 442 195 442 121 c 0,13,14
 442 -39 442 -39 320.5 -172.5 c 128,-1,15
 199 -306 199 -306 -14 -362 c 1,16,-1
 -37 -299 l 1,0,1
444 965 m 0,17,18
 513 965 513 965 561.5 916.5 c 128,-1,19
 610 868 610 868 610 799 c 0,20,21
 610 730 610 730 561.5 681.5 c 128,-1,22
 513 633 513 633 444 633 c 0,23,24
 376 633 376 633 327.5 681.5 c 128,-1,25
 279 730 279 730 279 799 c 0,26,27
 279 868 279 868 327.5 916.5 c 128,-1,28
 376 965 376 965 444 965 c 0,17,18
EndSplineSet
EndChar
StartChar: less
Encoding: 60 60 31
Width: 1167
Flags: W
Fore
1186 186 m 1,0,-1
 92 637 l 1,1,-1
 92 719 l 1,2,-1
 1186 1169 l 1,3,-1
 1186 1026 l 1,4,-1
 340 678 l 1,5,-1
 1186 330 l 1,6,-1
 1186 186 l 1,0,-1
EndSplineSet
EndChar
StartChar: equal
Encoding: 61 61 32
Width: 1167
Flags: W
Fore
1186 776 m 1,0,-1
 92 776 l 1,1,-1
 92 907 l 1,2,-1
 1186 907 l 1,3,-1
 1186 776 l 1,0,-1
1186 453 m 1,4,-1
 92 453 l 1,5,-1
 92 584 l 1,6,-1
 1186 584 l 1,7,-1
 1186 453 l 1,4,-1
EndSplineSet
EndChar
StartChar: greater
Encoding: 62 62 33
Width: 1167
Flags: W
Fore
1186 637 m 1,0,-1
 92 186 l 1,1,-1
 92 330 l 1,2,-1
 938 678 l 1,3,-1
 92 1026 l 1,4,-1
 92 1169 l 1,5,-1
 1186 719 l 1,6,-1
 1186 637 l 1,0,-1
EndSplineSet
EndChar
StartChar: question
Encoding: 63 63 34
Width: 1024
Flags: W
Fore
422 750 m 1,0,1
 644 803 644 803 745 878 c 128,-1,2
 846 953 846 953 846 1069 c 0,3,4
 846 1143 846 1143 802 1186 c 128,-1,5
 758 1229 758 1229 678 1229 c 0,6,7
 624 1229 624 1229 566 1175 c 0,8,9
 529 1142 529 1142 496 1125 c 128,-1,10
 463 1108 463 1108 406 1108 c 0,11,12
 363 1108 363 1108 332 1135.5 c 128,-1,13
 301 1163 301 1163 301 1208 c 0,14,15
 301 1288 301 1288 380.5 1337 c 128,-1,16
 460 1386 460 1386 596 1386 c 0,17,18
 759 1386 759 1386 904 1239.5 c 128,-1,19
 1049 1093 1049 1093 1049 930 c 0,20,21
 1049 779 1049 779 895.5 667 c 128,-1,22
 742 555 742 555 416 471 c 1,23,-1
 389 381 l 1,24,-1
 319 381 l 1,25,-1
 422 750 l 1,0,1
328 301 m 0,26,27
 396 301 396 301 445 252.5 c 128,-1,28
 494 204 494 204 494 135 c 0,29,30
 494 66 494 66 445 17.5 c 128,-1,31
 396 -31 396 -31 328 -31 c 0,32,33
 259 -31 259 -31 210.5 17.5 c 128,-1,34
 162 66 162 66 162 135 c 0,35,36
 162 204 162 204 210.5 252.5 c 128,-1,37
 259 301 259 301 328 301 c 0,26,27
EndSplineSet
EndChar
StartChar: at
Encoding: 64 64 35
Width: 1704
Flags: W
Fore
1575 -133 m 1,0,1
 1446 -280 1446 -280 1263 -359 c 128,-1,2
 1080 -438 1080 -438 883 -438 c 0,3,4
 504 -438 504 -438 252 -187 c 128,-1,5
 0 64 0 64 0 440 c 0,6,7
 0 701 0 701 124 920 c 128,-1,8
 248 1139 248 1139 467.5 1262.5 c 128,-1,9
 687 1386 687 1386 950 1386 c 0,10,11
 1262 1386 1262 1386 1464.5 1193 c 128,-1,12
 1667 1000 1667 1000 1667 700 c 0,13,14
 1667 434 1667 434 1505.5 232.5 c 128,-1,15
 1344 31 1344 31 1098 31 c 0,16,17
 999 31 999 31 944 80.5 c 128,-1,18
 889 130 889 130 889 215 c 0,19,20
 889 240 889 240 899 274 c 1,21,22
 832 163 832 163 739.5 97 c 128,-1,23
 647 31 647 31 571 31 c 0,24,25
 493 31 493 31 441 105 c 128,-1,26
 389 179 389 179 389 299 c 0,27,28
 389 552 389 552 558 758.5 c 128,-1,29
 727 965 727 965 965 965 c 0,30,31
 1049 965 1049 965 1137 911 c 1,32,-1
 1270 932 l 1,33,-1
 1352 932 l 1,34,-1
 1167 308 l 2,35,36
 1139 212 1139 212 1139 180 c 0,37,38
 1139 133 1139 133 1180 133 c 0,39,40
 1340 133 1340 133 1473 306 c 128,-1,41
 1606 479 1606 479 1606 700 c 0,42,43
 1606 980 1606 980 1423 1153.5 c 128,-1,44
 1240 1327 1240 1327 954 1327 c 0,45,46
 581 1327 581 1327 343.5 1064 c 128,-1,47
 106 801 106 801 106 414 c 0,48,49
 106 70 106 70 322 -153.5 c 128,-1,50
 538 -377 538 -377 883 -377 c 0,51,52
 1278 -377 1278 -377 1532 -94 c 1,53,-1
 1575 -133 l 1,0,1
1047 827 m 1,54,55
 1017 874 1017 874 965 874 c 0,56,57
 869 874 869 874 772.5 679 c 128,-1,58
 676 484 676 484 676 303 c 0,59,60
 676 217 676 217 725 217 c 0,61,62
 769 217 769 217 839.5 301 c 128,-1,63
 910 385 910 385 915 403 c 2,64,-1
 1047 827 l 1,54,55
EndSplineSet
EndChar
StartChar: A
Encoding: 65 65 36
Width: 1366
Flags: W
Fore
795 528 m 1,0,-1
 717 1010 l 1,1,-1
 412 528 l 1,2,-1
 795 528 l 1,0,-1
1143 176 m 2,3,4
 1154 115 1154 115 1192 91.5 c 128,-1,5
 1230 68 1230 68 1313 68 c 1,6,-1
 1294 0 l 1,7,-1
 647 0 l 1,8,-1
 666 68 l 1,9,10
 765 68 765 68 808.5 88 c 128,-1,11
 852 108 852 108 852 163 c 0,12,13
 852 180 852 180 813 424 c 1,14,-1
 346 424 l 1,15,16
 211 211 211 211 199.5 189 c 128,-1,17
 188 167 188 167 188 133 c 0,18,19
 188 68 188 68 307 68 c 1,20,-1
 289 0 l 1,21,-1
 -152 0 l 1,22,-1
 -133 68 l 1,23,24
 -50 68 -50 68 -3.5 105 c 128,-1,25
 43 142 43 142 98 227 c 2,26,-1
 848 1386 l 1,27,-1
 934 1386 l 1,28,-1
 1143 176 l 2,3,4
EndSplineSet
KernsSLIFO: 183 -152 0 0 92 -152 0 0 90 -152 0 0 89 -152 0 0 60 -113 0 0 58 -188 0 0 57 -152 0 0 55 -113 0 0 3 -113 0 0
EndChar
StartChar: B
Encoding: 66 66 37
Width: 1366
Flags: W
Fore
297 1356 m 1,0,-1
 950 1356 l 2,1,2
 1120 1356 1120 1356 1221.5 1285 c 128,-1,3
 1323 1214 1323 1214 1323 1090 c 0,4,5
 1323 948 1323 948 1209 854 c 128,-1,6
 1095 760 1095 760 893 727 c 1,7,-1
 893 723 l 1,8,9
 1223 644 1223 644 1223 393 c 0,10,11
 1223 238 1223 238 1076.5 119 c 128,-1,12
 930 0 930 0 633 0 c 2,13,-1
 -66 0 l 1,14,-1
 -49 68 l 1,15,16
 58 68 58 68 98 91.5 c 128,-1,17
 138 115 138 115 182 268 c 2,18,-1
 418 1087 l 2,19,20
 446 1185 446 1185 446 1219 c 0,21,22
 446 1288 446 1288 281 1288 c 1,23,-1
 297 1356 l 1,0,-1
625 760 m 1,24,25
 819 760 819 760 915.5 864 c 128,-1,26
 1012 968 1012 968 1012 1096 c 0,27,28
 1012 1180 1012 1180 971.5 1222 c 128,-1,29
 931 1264 931 1264 821 1264 c 2,30,-1
 770 1264 l 1,31,-1
 625 760 l 1,24,25
434 92 m 1,32,-1
 541 92 l 2,33,34
 723 92 723 92 814 208.5 c 128,-1,35
 905 325 905 325 905 461 c 0,36,37
 905 556 905 556 844 612 c 128,-1,38
 783 668 783 668 666 668 c 2,39,-1
 600 668 l 1,40,-1
 434 92 l 1,32,-1
EndSplineSet
EndChar
StartChar: C
Encoding: 67 67 38
Width: 1366
Flags: W
Fore
684 -31 m 0,0,1
 420 -31 420 -31 267.5 119.5 c 128,-1,2
 115 270 115 270 115 528 c 0,3,4
 115 748 115 748 236.5 949.5 c 128,-1,5
 358 1151 358 1151 569 1268.5 c 128,-1,6
 780 1386 780 1386 1030 1386 c 0,7,8
 1139 1386 1139 1386 1258 1350 c 0,9,10
 1321 1331 1321 1331 1352 1331 c 0,11,12
 1393 1331 1393 1331 1417 1386 c 1,13,-1
 1483 1386 l 1,14,-1
 1376 934 l 1,15,-1
 1315 934 l 1,16,17
 1315 1122 1315 1122 1247.5 1207 c 128,-1,18
 1180 1292 1180 1292 1024 1292 c 0,19,20
 780 1292 780 1292 605 1051 c 128,-1,21
 430 810 430 810 430 506 c 0,22,23
 430 318 430 318 514 213.5 c 128,-1,24
 598 109 598 109 750 109 c 0,25,26
 1023 109 1023 109 1192 332 c 1,27,-1
 1253 289 l 1,28,29
 1053 -31 1053 -31 684 -31 c 0,0,1
EndSplineSet
EndChar
StartChar: D
Encoding: 68 68 39
Width: 1479
Flags: W
Fore
297 1356 m 1,0,-1
 778 1356 l 2,1,2
 1106 1356 1106 1356 1272 1207.5 c 128,-1,3
 1438 1059 1438 1059 1438 803 c 0,4,5
 1438 592 1438 592 1329 402.5 c 128,-1,6
 1220 213 1220 213 1003 106.5 c 128,-1,7
 786 0 786 0 469 0 c 2,8,-1
 -66 0 l 1,9,-1
 -49 68 l 1,10,11
 58 68 58 68 98 91.5 c 128,-1,12
 138 115 138 115 182 268 c 2,13,-1
 418 1087 l 2,14,15
 446 1185 446 1185 446 1219 c 0,16,17
 446 1288 446 1288 281 1288 c 1,18,-1
 297 1356 l 1,0,-1
1120 848 m 0,19,20
 1120 1039 1120 1039 1036 1151.5 c 128,-1,21
 952 1264 952 1264 770 1264 c 1,22,-1
 489 287 l 2,23,24
 461 179 461 179 461 162 c 0,25,26
 461 92 461 92 573 92 c 0,27,28
 809 92 809 92 964.5 332 c 128,-1,29
 1120 572 1120 572 1120 848 c 0,19,20
EndSplineSet
EndChar
StartChar: E
Encoding: 69 69 40
Width: 1366
Flags: W
Fore
1450 1356 m 1,0,-1
 1354 1020 l 1,1,-1
 1286 1020 l 1,2,3
 1309 1098 1309 1098 1309 1143 c 0,4,5
 1309 1208 1309 1208 1261 1229.5 c 128,-1,6
 1213 1251 1213 1251 1094 1251 c 2,7,-1
 766 1251 l 1,8,-1
 627 762 l 1,9,-1
 856 762 l 2,10,11
 948 762 948 762 986.5 771 c 128,-1,12
 1025 780 1025 780 1049.5 816.5 c 128,-1,13
 1074 853 1074 853 1100 946 c 1,14,-1
 1167 946 l 1,15,-1
 1032 471 l 1,16,-1
 965 471 l 1,17,18
 989 554 989 554 989 594 c 0,19,20
 989 636 989 636 954.5 646.5 c 128,-1,21
 920 657 920 657 825 657 c 2,22,-1
 596 657 l 1,23,-1
 503 332 l 2,24,25
 463 191 463 191 460 178.5 c 128,-1,26
 457 166 457 166 457 154 c 0,27,28
 457 125 457 125 478 114.5 c 128,-1,29
 499 104 499 104 549 104 c 2,30,-1
 807 104 l 2,31,32
 1077 104 1077 104 1159 391 c 1,33,-1
 1227 391 l 1,34,-1
 1114 0 l 1,35,-1
 -66 0 l 1,36,-1
 -49 68 l 1,37,38
 58 68 58 68 98 91.5 c 128,-1,39
 138 115 138 115 182 268 c 2,40,-1
 418 1087 l 2,41,42
 446 1181 446 1181 446 1219 c 0,43,44
 446 1288 446 1288 281 1288 c 1,45,-1
 297 1356 l 1,46,-1
 1450 1356 l 1,0,-1
EndSplineSet
EndChar
StartChar: F
Encoding: 70 70 41
Width: 1366
Flags: W
Fore
1436 1356 m 1,0,-1
 1339 1020 l 1,1,-1
 1272 1020 l 1,2,3
 1294 1098 1294 1098 1294 1142 c 0,4,5
 1294 1203 1294 1203 1251 1227 c 128,-1,6
 1208 1251 1208 1251 1079 1251 c 2,7,-1
 766 1251 l 1,8,-1
 612 719 l 1,9,-1
 815 719 l 2,10,11
 907 719 907 719 946 728.5 c 128,-1,12
 985 738 985 738 1010.5 775.5 c 128,-1,13
 1036 813 1036 813 1063 905 c 1,14,-1
 1130 905 l 1,15,-1
 993 430 l 1,16,-1
 926 430 l 1,17,18
 950 513 950 513 950 551 c 0,19,20
 950 593 950 593 916 603.5 c 128,-1,21
 882 614 882 614 786 614 c 2,22,-1
 584 614 l 1,23,-1
 476 241 l 2,24,25
 457 176 457 176 457 139 c 0,26,27
 457 98 457 98 489.5 83 c 128,-1,28
 522 68 522 68 662 68 c 1,29,-1
 643 0 l 1,30,-1
 -66 0 l 1,31,-1
 -49 68 l 1,32,33
 58 68 58 68 98 91.5 c 128,-1,34
 138 115 138 115 182 268 c 2,35,-1
 418 1087 l 2,36,37
 446 1181 446 1181 446 1219 c 0,38,39
 446 1288 446 1288 281 1288 c 1,40,-1
 297 1356 l 1,41,-1
 1436 1356 l 1,0,-1
EndSplineSet
KernsSLIFO: 36 -188 0 0 17 -264 0 0 15 -264 0 0 3 -37 0 0
EndChar
StartChar: G
Encoding: 71 71 42
Width: 1479
Flags: W
Fore
684 -31 m 0,0,1
 420 -31 420 -31 267.5 119.5 c 128,-1,2
 115 270 115 270 115 528 c 0,3,4
 115 748 115 748 236.5 949.5 c 128,-1,5
 358 1151 358 1151 569 1268.5 c 128,-1,6
 780 1386 780 1386 1030 1386 c 0,7,8
 1139 1386 1139 1386 1258 1350 c 0,9,10
 1321 1331 1321 1331 1352 1331 c 0,11,12
 1393 1331 1393 1331 1417 1386 c 1,13,-1
 1483 1386 l 1,14,-1
 1376 934 l 1,15,-1
 1315 934 l 1,16,17
 1315 1122 1315 1122 1247.5 1207 c 128,-1,18
 1180 1292 1180 1292 1024 1292 c 0,19,20
 780 1292 780 1292 605 1051 c 128,-1,21
 430 810 430 810 430 506 c 0,22,23
 430 301 430 301 507.5 184.5 c 128,-1,24
 585 68 585 68 721 68 c 0,25,26
 815 68 815 68 885 111 c 1,27,-1
 966 396 l 2,28,29
 985 461 985 461 985 492 c 0,30,31
 985 532 985 532 954 546.5 c 128,-1,32
 923 561 923 561 821 561 c 1,33,-1
 840 629 l 1,34,-1
 1487 629 l 1,35,-1
 1468 561 l 1,36,37
 1389 561 1389 561 1352 552 c 128,-1,38
 1315 543 1315 543 1294.5 514.5 c 128,-1,39
 1274 486 1274 486 1241 371 c 2,40,-1
 1159 92 l 1,41,42
 938 -31 938 -31 684 -31 c 0,0,1
EndSplineSet
EndChar
StartChar: H
Encoding: 72 72 43
Width: 1593
Flags: W
Fore
1761 1356 m 1,0,-1
 1745 1288 l 1,1,2
 1637 1288 1637 1288 1597 1264.5 c 128,-1,3
 1557 1241 1557 1241 1513 1087 c 2,4,-1
 1278 268 l 2,5,6
 1249 175 1249 175 1249 137 c 0,7,8
 1249 68 1249 68 1415 68 c 1,9,-1
 1399 0 l 1,10,-1
 729 0 l 1,11,-1
 745 68 l 1,12,13
 825 68 825 68 863 79.5 c 128,-1,14
 901 91 901 91 923.5 126.5 c 128,-1,15
 946 162 946 162 987 303 c 2,16,-1
 1085 643 l 1,17,-1
 592 643 l 1,18,19
 479 252 479 252 467 208 c 128,-1,20
 455 164 455 164 455 137 c 0,21,22
 455 68 455 68 621 68 c 1,23,-1
 604 0 l 1,24,-1
 -66 0 l 1,25,-1
 -49 68 l 1,26,27
 58 68 58 68 98 91.5 c 128,-1,28
 138 115 138 115 182 268 c 2,29,-1
 418 1087 l 2,30,31
 446 1181 446 1181 446 1219 c 0,32,33
 446 1288 446 1288 281 1288 c 1,34,-1
 297 1356 l 1,35,-1
 967 1356 l 1,36,-1
 950 1288 l 1,37,38
 869 1288 869 1288 831 1276 c 128,-1,39
 793 1264 793 1264 770.5 1226 c 128,-1,40
 748 1188 748 1188 711 1058 c 2,41,-1
 625 758 l 1,42,-1
 1118 758 l 1,43,44
 1219 1110 1219 1110 1230 1152.5 c 128,-1,45
 1241 1195 1241 1195 1241 1219 c 0,46,47
 1241 1288 1241 1288 1075 1288 c 1,48,-1
 1092 1356 l 1,49,-1
 1761 1356 l 1,0,-1
EndSplineSet
EndChar
StartChar: I
Encoding: 73 73 44
Width: 797
Flags: W
Fore
967 1356 m 1,0,-1
 950 1288 l 1,1,2
 843 1288 843 1288 803 1264.5 c 128,-1,3
 763 1241 763 1241 719 1087 c 2,4,-1
 483 268 l 2,5,6
 455 175 455 175 455 137 c 0,7,8
 455 68 455 68 621 68 c 1,9,-1
 604 0 l 1,10,-1
 -66 0 l 1,11,-1
 -49 68 l 1,12,13
 58 68 58 68 98 91.5 c 128,-1,14
 138 115 138 115 182 268 c 2,15,-1
 418 1087 l 2,16,17
 446 1181 446 1181 446 1219 c 0,18,19
 446 1288 446 1288 281 1288 c 1,20,-1
 297 1356 l 1,21,-1
 967 1356 l 1,0,-1
EndSplineSet
EndChar
StartChar: J
Encoding: 74 74 45
Width: 1024
Flags: W
Fore
1227 1356 m 1,0,-1
 1210 1288 l 1,1,2
 1120 1288 1120 1288 1081 1272 c 128,-1,3
 1042 1256 1042 1256 1022 1212 c 128,-1,4
 1002 1168 1002 1168 930 919 c 2,5,-1
 780 399 l 2,6,7
 657 -31 657 -31 236 -31 c 0,8,9
 111 -31 111 -31 27 31 c 128,-1,10
 -57 93 -57 93 -57 180 c 0,11,12
 -57 238 -57 238 -22 276.5 c 128,-1,13
 13 315 13 315 68 315 c 0,14,15
 117 315 117 315 150.5 284 c 128,-1,16
 184 253 184 253 195 203 c 0,17,18
 213 112 213 112 236 85.5 c 128,-1,19
 259 59 259 59 293 59 c 0,20,21
 383 59 383 59 440 260 c 2,22,-1
 678 1087 l 2,23,24
 707 1181 707 1181 707 1219 c 0,25,26
 707 1288 707 1288 541 1288 c 1,27,-1
 557 1356 l 1,28,-1
 1227 1356 l 1,0,-1
EndSplineSet
EndChar
StartChar: K
Encoding: 75 75 46
Width: 1366
Flags: W
Fore
1567 1356 m 1,0,-1
 1548 1288 l 1,1,2
 1502 1288 1502 1288 1418.5 1243.5 c 128,-1,3
 1335 1199 1335 1199 938 881 c 1,4,5
 1034 409 1034 409 1113 236 c 128,-1,6
 1192 63 1192 63 1272 63 c 0,7,8
 1293 63 1293 63 1325 68 c 1,9,-1
 1307 0 l 1,10,11
 1179 -20 1179 -20 1055 -20 c 0,12,13
 950 -20 950 -20 890 55 c 128,-1,14
 830 130 830 130 780.5 311.5 c 128,-1,15
 731 493 731 493 694 688 c 1,16,-1
 578 594 l 1,17,18
 478 251 478 251 466.5 207 c 128,-1,19
 455 163 455 163 455 137 c 0,20,21
 455 68 455 68 621 68 c 1,22,-1
 604 0 l 1,23,-1
 -66 0 l 1,24,-1
 -49 68 l 1,25,26
 58 68 58 68 98 91.5 c 128,-1,27
 138 115 138 115 182 268 c 2,28,-1
 418 1087 l 2,29,30
 446 1181 446 1181 446 1219 c 0,31,32
 446 1288 446 1288 281 1288 c 1,33,-1
 297 1356 l 1,34,-1
 967 1356 l 1,35,-1
 950 1288 l 1,36,37
 867 1288 867 1288 829 1275 c 128,-1,38
 791 1262 791 1262 768.5 1223 c 128,-1,39
 746 1184 746 1184 706 1043 c 2,40,-1
 612 715 l 1,41,42
 1063 1077 1063 1077 1128 1136 c 128,-1,43
 1193 1195 1193 1195 1193 1244 c 0,44,45
 1193 1288 1193 1288 1092 1288 c 1,46,-1
 1110 1356 l 1,47,-1
 1567 1356 l 1,0,-1
EndSplineSet
EndChar
StartChar: L
Encoding: 76 76 47
Width: 1251
Flags: W
Fore
1192 412 m 1,0,-1
 1073 0 l 1,1,-1
 -66 0 l 1,2,-1
 -49 68 l 1,3,4
 58 68 58 68 98 91.5 c 128,-1,5
 138 115 138 115 182 268 c 2,6,-1
 418 1087 l 2,7,8
 446 1181 446 1181 446 1219 c 0,9,10
 446 1288 446 1288 281 1288 c 1,11,-1
 297 1356 l 1,12,-1
 967 1356 l 1,13,-1
 950 1288 l 1,14,15
 820 1288 820 1288 787.5 1250.5 c 128,-1,16
 755 1213 755 1213 719 1087 c 2,17,-1
 465 195 l 2,18,19
 455 157 455 157 455 141 c 0,20,21
 455 92 455 92 547 92 c 2,22,-1
 762 92 l 2,23,24
 1035 92 1035 92 1124 412 c 1,25,-1
 1192 412 l 1,0,-1
EndSplineSet
KernsSLIFO: 183 -113 0 0 92 -76 0 0 60 -76 0 0 58 -76 0 0 57 -76 0 0 55 -37 0 0 3 -76 0 0
EndChar
StartChar: M
Encoding: 77 77 48
Width: 1821
Flags: W
Fore
1989 1356 m 1,0,-1
 1972 1288 l 1,1,2
 1865 1288 1865 1288 1825 1264.5 c 128,-1,3
 1785 1241 1785 1241 1741 1087 c 2,4,-1
 1505 268 l 2,5,6
 1477 154 1477 154 1477 137 c 0,7,8
 1477 68 1477 68 1642 68 c 1,9,-1
 1626 0 l 1,10,-1
 956 0 l 1,11,-1
 973 68 l 1,12,13
 1091 68 1091 68 1128 100 c 128,-1,14
 1165 132 1165 132 1204 268 c 2,15,-1
 1427 1040 l 1,16,-1
 719 0 l 1,17,-1
 637 0 l 1,18,-1
 518 1051 l 1,19,-1
 293 268 l 2,20,21
 268 175 268 175 268 152 c 0,22,23
 268 95 268 95 305 81.5 c 128,-1,24
 342 68 342 68 428 68 c 1,25,-1
 412 0 l 1,26,-1
 -68 0 l 1,27,-1
 -51 68 l 1,28,29
 40 68 40 68 94 109 c 128,-1,30
 148 150 148 150 182 268 c 2,31,-1
 453 1204 l 1,32,33
 403 1288 403 1288 268 1288 c 1,34,-1
 285 1356 l 1,35,-1
 774 1356 l 1,36,-1
 879 416 l 1,37,-1
 1520 1356 l 1,38,-1
 1989 1356 l 1,0,-1
EndSplineSet
EndChar
StartChar: N
Encoding: 78 78 49
Width: 1479
Flags: W
Fore
1647 1356 m 1,0,-1
 1630 1288 l 1,1,2
 1512 1288 1512 1288 1475 1256 c 128,-1,3
 1438 1224 1438 1224 1399 1087 c 2,4,-1
 1079 -23 l 1,5,-1
 1010 -23 l 1,6,-1
 524 1087 l 1,7,-1
 289 268 l 2,8,9
 260 175 260 175 260 137 c 0,10,11
 260 68 260 68 426 68 c 1,12,-1
 410 0 l 1,13,-1
 -66 0 l 1,14,-1
 -49 68 l 1,15,16
 58 68 58 68 98 91.5 c 128,-1,17
 138 115 138 115 182 268 c 2,18,-1
 418 1087 l 2,19,20
 446 1181 446 1181 446 1219 c 0,21,22
 446 1288 446 1288 281 1288 c 1,23,-1
 297 1356 l 1,24,-1
 721 1356 l 1,25,-1
 1112 461 l 1,26,-1
 1286 1066 l 2,27,28
 1321 1187 1321 1187 1321 1219 c 0,29,30
 1321 1288 1321 1288 1155 1288 c 1,31,-1
 1171 1356 l 1,32,-1
 1647 1356 l 1,0,-1
EndSplineSet
EndChar
StartChar: O
Encoding: 79 79 50
Width: 1479
Flags: W
Fore
1006 1386 m 0,0,1
 1197 1386 1197 1386 1336 1251.5 c 128,-1,2
 1475 1117 1475 1117 1475 928 c 0,3,4
 1475 722 1475 722 1354 487.5 c 128,-1,5
 1233 253 1233 253 1030 111 c 128,-1,6
 827 -31 827 -31 586 -31 c 0,7,8
 349 -31 349 -31 231 111.5 c 128,-1,9
 113 254 113 254 113 451 c 0,10,11
 113 671 113 671 242 893 c 128,-1,12
 371 1115 371 1115 580 1250.5 c 128,-1,13
 789 1386 789 1386 1006 1386 c 0,0,1
629 66 m 0,14,15
 765 66 765 66 885 222.5 c 128,-1,16
 1005 379 1005 379 1081 630.5 c 128,-1,17
 1157 882 1157 882 1157 1038 c 0,18,19
 1157 1290 1157 1290 969 1290 c 0,20,21
 814 1290 814 1290 691.5 1125 c 128,-1,22
 569 960 569 960 499.5 697.5 c 128,-1,23
 430 435 430 435 430 301 c 0,24,25
 430 191 430 191 481 128.5 c 128,-1,26
 532 66 532 66 629 66 c 0,14,15
EndSplineSet
EndChar
StartChar: P
Encoding: 80 80 51
Width: 1251
Flags: W
Fore
297 1356 m 1,0,-1
 926 1356 l 2,1,2
 1120 1356 1120 1356 1223.5 1260.5 c 128,-1,3
 1327 1165 1327 1165 1327 1022 c 0,4,5
 1327 824 1327 824 1150 689.5 c 128,-1,6
 973 555 973 555 733 555 c 2,7,-1
 565 555 l 1,8,9
 477 247 477 247 466 205 c 128,-1,10
 455 163 455 163 455 137 c 0,11,12
 455 68 455 68 621 68 c 1,13,-1
 604 0 l 1,14,-1
 -66 0 l 1,15,-1
 -49 68 l 1,16,17
 58 68 58 68 98 91.5 c 128,-1,18
 138 115 138 115 182 268 c 2,19,-1
 418 1087 l 2,20,21
 446 1181 446 1181 446 1219 c 0,22,23
 446 1288 446 1288 281 1288 c 1,24,-1
 297 1356 l 1,0,-1
594 653 m 1,25,-1
 649 653 l 2,26,27
 804 653 804 653 910 765.5 c 128,-1,28
 1016 878 1016 878 1016 1047 c 0,29,30
 1016 1268 1016 1268 823 1268 c 0,31,32
 806 1268 806 1268 770 1262 c 1,33,-1
 594 653 l 1,25,-1
EndSplineSet
KernsSLIFO: 36 -152 0 0 17 -264 0 0 15 -264 0 0 3 -76 0 0
EndChar
StartChar: Q
Encoding: 81 81 52
Width: 1479
Flags: W
Fore
1061 -389 m 0,1,2
 940 -389 940 -389 861 -357.5 c 128,-1,3
 782 -326 782 -326 735 -278.5 c 128,-1,4
 688 -231 688 -231 626 -147 c 0,5,6
 566 -65 566 -65 532 -29 c 1,7,8
 313 -8 313 -8 213 132.5 c 128,-1,9
 113 273 113 273 113 451 c 0,10,11
 113 671 113 671 242 893 c 128,-1,12
 371 1115 371 1115 580 1250.5 c 128,-1,13
 789 1386 789 1386 1006 1386 c 0,14,15
 1197 1386 1197 1386 1336 1251.5 c 128,-1,16
 1475 1117 1475 1117 1475 928 c 0,17,18
 1475 675 1475 675 1302.5 399 c 128,-1,19
 1130 123 1130 123 846 14 c 1,20,21
 999 -180 999 -180 1095.5 -239.5 c 128,-1,22
 1192 -299 1192 -299 1307 -299 c 0,23,24
 1339 -299 1339 -299 1372 -295 c 1,25,-1
 1352 -365 l 1,26,0
 1198 -389 1198 -389 1061 -389 c 0,1,2
629 66 m 0,27,28
 765 66 765 66 885 222.5 c 128,-1,29
 1005 379 1005 379 1081 630.5 c 128,-1,30
 1157 882 1157 882 1157 1038 c 0,31,32
 1157 1290 1157 1290 969 1290 c 0,33,34
 814 1290 814 1290 691.5 1125 c 128,-1,35
 569 960 569 960 499.5 697.5 c 128,-1,36
 430 435 430 435 430 301 c 0,37,38
 430 191 430 191 481 128.5 c 128,-1,39
 532 66 532 66 629 66 c 0,27,28
EndSplineSet
EndChar
StartChar: R
Encoding: 82 82 53
Width: 1366
Flags: W
Fore
297 1356 m 1,0,-1
 954 1356 l 2,1,2
 1159 1356 1159 1356 1267.5 1267.5 c 128,-1,3
 1376 1179 1376 1179 1376 1034 c 0,4,5
 1376 887 1376 887 1264.5 783.5 c 128,-1,6
 1153 680 1153 680 944 633 c 1,7,8
 1075 315 1075 315 1111 244 c 128,-1,9
 1147 173 1147 173 1202 118 c 128,-1,10
 1257 63 1257 63 1311 63 c 0,11,12
 1326 63 1326 63 1366 68 c 1,13,-1
 1348 0 l 1,14,15
 1158 -20 1158 -20 1034 -20 c 0,16,17
 924 -20 924 -20 854.5 75.5 c 128,-1,18
 785 171 785 171 643 606 c 1,19,-1
 582 606 l 1,20,21
 477 249 477 249 466 201 c 128,-1,22
 455 153 455 153 455 137 c 0,23,24
 455 68 455 68 621 68 c 1,25,-1
 604 0 l 1,26,-1
 -66 0 l 1,27,-1
 -49 68 l 1,28,29
 58 68 58 68 98 91.5 c 128,-1,30
 138 115 138 115 182 268 c 2,31,-1
 418 1087 l 2,32,33
 446 1181 446 1181 446 1219 c 0,34,35
 446 1288 446 1288 281 1288 c 1,36,-1
 297 1356 l 1,0,-1
594 705 m 1,37,-1
 686 705 l 2,38,39
 862 705 862 705 970.5 796.5 c 128,-1,40
 1079 888 1079 888 1079 1030 c 0,41,42
 1079 1137 1079 1137 1019 1202.5 c 128,-1,43
 959 1268 959 1268 862 1268 c 0,44,45
 807 1268 807 1268 754 1257 c 1,46,-1
 594 705 l 1,37,-1
EndSplineSet
KernsSLIFO: 92 -37 0 0 60 -37 0 0 58 -37 0 0 57 -37 0 0
EndChar
StartChar: S
Encoding: 83 83 54
Width: 1139
Flags: W
Fore
465 -31 m 0,0,1
 364 -31 364 -31 243 9 c 0,2,3
 177 31 177 31 145 31 c 0,4,5
 86 31 86 31 59 -31 c 1,6,-1
 -6 -31 l 1,7,-1
 78 399 l 1,8,-1
 143 399 l 1,9,10
 137 364 137 364 137 324 c 0,11,12
 137 199 137 199 226.5 131 c 128,-1,13
 316 63 316 63 453 63 c 0,14,15
 585 63 585 63 662 134 c 128,-1,16
 739 205 739 205 739 319 c 0,17,18
 739 373 739 373 705 431.5 c 128,-1,19
 671 490 671 490 535 606 c 0,20,21
 369 748 369 748 324 834.5 c 128,-1,22
 279 921 279 921 279 1004 c 0,23,24
 279 1170 279 1170 416.5 1278 c 128,-1,25
 554 1386 554 1386 762 1386 c 0,26,27
 875 1386 875 1386 987 1350 c 0,28,29
 1032 1335 1032 1335 1051 1335 c 0,30,31
 1115 1335 1115 1335 1143 1386 c 1,32,-1
 1208 1386 l 1,33,-1
 1114 983 l 1,34,-1
 1049 983 l 1,35,36
 1055 1027 1055 1027 1055 1065 c 0,37,38
 1055 1292 1055 1292 795 1292 c 0,39,40
 692 1292 692 1292 626.5 1227 c 128,-1,41
 561 1162 561 1162 561 1063 c 0,42,43
 561 1014 561 1014 595 957.5 c 128,-1,44
 629 901 629 901 765 783 c 0,45,46
 934 636 934 636 980 551.5 c 128,-1,47
 1026 467 1026 467 1026 389 c 0,48,49
 1026 195 1026 195 873.5 82 c 128,-1,50
 721 -31 721 -31 465 -31 c 0,0,1
EndSplineSet
EndChar
StartChar: T
Encoding: 84 84 55
Width: 1251
Flags: W
Fore
1462 1356 m 1,0,-1
 1348 977 l 1,1,-1
 1280 977 l 1,2,3
 1309 1119 1309 1119 1309 1159 c 0,4,5
 1309 1205 1309 1205 1277 1226 c 128,-1,6
 1245 1247 1245 1247 1171 1247 c 2,7,-1
 989 1247 l 1,8,-1
 707 268 l 2,9,10
 678 175 678 175 678 137 c 0,11,12
 678 68 678 68 844 68 c 1,13,-1
 827 0 l 1,14,-1
 158 0 l 1,15,-1
 174 68 l 1,16,17
 292 68 292 68 329 100 c 128,-1,18
 366 132 366 132 406 268 c 2,19,-1
 688 1247 l 1,20,-1
 539 1247 l 2,21,22
 325 1247 325 1247 252 977 c 1,23,-1
 184 977 l 1,24,-1
 287 1356 l 1,25,-1
 1462 1356 l 1,0,-1
EndSplineSet
KernsSLIFO: 92 -76 0 0 90 -76 0 0 88 -76 0 0 86 -188 0 0 85 -76 0 0 82 -188 0 0 76 -76 0 0 72 -188 0 0 70 -188 0 0 68 -188 0 0 50 -37 0 0 36 -113 0 0 30 -152 0 0 29 -152 0 0 17 -188 0 0 16 -188 0 0 15 -188 0 0
EndChar
StartChar: U
Encoding: 85 85 56
Width: 1479
Flags: W
Fore
651 -31 m 0,0,1
 419 -31 419 -31 308 73 c 128,-1,2
 197 177 197 177 197 305 c 0,3,4
 197 385 197 385 237 528 c 2,5,-1
 397 1087 l 2,6,7
 426 1181 426 1181 426 1219 c 0,8,9
 426 1288 426 1288 260 1288 c 1,10,-1
 276 1356 l 1,11,-1
 946 1356 l 1,12,-1
 930 1288 l 1,13,14
 845 1288 845 1288 806.5 1274 c 128,-1,15
 768 1260 768 1260 746 1218.5 c 128,-1,16
 724 1177 724 1177 669 985 c 2,17,-1
 554 581 l 2,18,19
 494 370 494 370 494 289 c 0,20,21
 494 191 494 191 556 139.5 c 128,-1,22
 618 88 618 88 733 88 c 0,23,24
 854 88 854 88 936 155 c 128,-1,25
 1018 222 1018 222 1074 340 c 0,26,27
 1110 417 1110 417 1168 618 c 2,28,-1
 1301 1075 l 2,29,30
 1325 1159 1325 1159 1325 1204 c 0,31,32
 1325 1239 1325 1239 1304 1262 c 128,-1,33
 1283 1285 1283 1285 1147 1288 c 1,34,-1
 1163 1356 l 1,35,-1
 1659 1356 l 1,36,-1
 1642 1288 l 1,37,38
 1533 1282 1533 1282 1491 1239.5 c 128,-1,39
 1449 1197 1449 1197 1417 1085 c 2,40,-1
 1250 501 l 2,41,42
 1190 295 1190 295 1111.5 185.5 c 128,-1,43
 1033 76 1033 76 918.5 22.5 c 128,-1,44
 804 -31 804 -31 651 -31 c 0,0,1
EndSplineSet
EndChar
StartChar: V
Encoding: 86 86 57
Width: 1366
Flags: W
Fore
1620 1356 m 1,0,-1
 1602 1288 l 1,1,2
 1519 1288 1519 1288 1472.5 1251 c 128,-1,3
 1426 1214 1426 1214 1370 1128 c 2,4,-1
 621 -31 l 1,5,-1
 535 -31 l 1,6,-1
 326 1180 l 2,7,8
 315 1241 315 1241 277 1264.5 c 128,-1,9
 239 1288 239 1288 156 1288 c 1,10,-1
 174 1356 l 1,11,-1
 821 1356 l 1,12,-1
 803 1288 l 1,13,14
 703 1288 703 1288 660 1268 c 128,-1,15
 617 1248 617 1248 617 1193 c 0,16,17
 617 1176 617 1176 621 1151 c 2,18,-1
 752 346 l 1,19,-1
 1251 1135 l 2,20,21
 1280 1178 1280 1178 1280 1223 c 0,22,23
 1280 1288 1280 1288 1161 1288 c 1,24,-1
 1180 1356 l 1,25,-1
 1620 1356 l 1,0,-1
EndSplineSet
KernsSLIFO: 92 -152 0 0 88 -113 0 0 85 -113 0 0 82 -227 0 0 76 -113 0 0 72 -227 0 0 68 -227 0 0 36 -152 0 0 30 -152 0 0 29 -152 0 0 17 -264 0 0 16 -113 0 0 15 -264 0 0 3 -37 0 0
EndChar
StartChar: W
Encoding: 87 87 58
Width: 1821
Flags: W
Fore
2075 1356 m 1,0,-1
 2056 1288 l 1,1,2
 1978 1288 1978 1288 1925.5 1253 c 128,-1,3
 1873 1218 1873 1218 1825 1128 c 2,4,-1
 1198 -31 l 1,5,-1
 1112 -31 l 1,6,-1
 1006 846 l 1,7,-1
 559 -31 l 1,8,-1
 473 -31 l 1,9,-1
 326 1180 l 2,10,11
 318 1239 318 1239 279.5 1263.5 c 128,-1,12
 241 1288 241 1288 156 1288 c 1,13,-1
 174 1356 l 1,14,-1
 821 1356 l 1,15,-1
 803 1288 l 1,16,17
 705 1288 705 1288 661.5 1268 c 128,-1,18
 618 1248 618 1248 618 1186 c 0,19,20
 618 1169 618 1169 698 471 c 1,21,-1
 1149 1356 l 1,22,-1
 1235 1356 l 1,23,-1
 1339 449 l 1,24,-1
 1710 1135 l 2,25,26
 1739 1189 1739 1189 1739 1223 c 0,27,28
 1739 1288 1739 1288 1620 1288 c 1,29,-1
 1638 1356 l 1,30,-1
 2075 1356 l 1,0,-1
EndSplineSet
KernsSLIFO: 92 -113 0 0 88 -113 0 0 85 -152 0 0 82 -152 0 0 76 -76 0 0 72 -152 0 0 68 -152 0 0 36 -152 0 0 30 -113 0 0 29 -113 0 0 17 -152 0 0 16 -76 0 0 15 -152 0 0 3 -37 0 0
EndChar
StartChar: X
Encoding: 88 88 59
Width: 1366
Flags: W
Fore
1552 1356 m 1,0,-1
 1538 1288 l 1,1,2
 1396 1278 1396 1278 1257 1141 c 2,3,-1
 848 739 l 1,4,5
 984 308 984 308 1007.5 239 c 128,-1,6
 1031 170 1031 170 1081 119 c 128,-1,7
 1131 68 1131 68 1233 68 c 1,8,-1
 1219 0 l 1,9,-1
 569 0 l 1,10,-1
 584 68 l 1,11,12
 729 68 729 68 729 141 c 0,13,14
 729 174 729 174 714 222 c 2,15,-1
 621 518 l 1,16,-1
 350 252 l 2,17,18
 262 167 262 167 262 123 c 0,19,20
 262 68 262 68 379 68 c 1,21,-1
 365 0 l 1,22,-1
 -141 0 l 1,23,-1
 -127 68 l 1,24,25
 -51 68 -51 68 32 118 c 128,-1,26
 115 168 115 168 213 264 c 2,27,-1
 586 629 l 1,28,29
 456 1043 456 1043 434.5 1119 c 128,-1,30
 413 1195 413 1195 373.5 1241.5 c 128,-1,31
 334 1288 334 1288 246 1288 c 1,32,-1
 260 1356 l 1,33,-1
 860 1356 l 1,34,-1
 846 1288 l 1,35,36
 709 1288 709 1288 709 1221 c 0,37,38
 709 1186 709 1186 734 1104 c 2,39,-1
 813 852 l 1,40,41
 978 1012 978 1012 1013.5 1048.5 c 128,-1,42
 1049 1085 1049 1085 1098 1146 c 128,-1,43
 1147 1207 1147 1207 1147 1241 c 0,44,45
 1147 1288 1147 1288 1026 1288 c 1,46,-1
 1040 1356 l 1,47,-1
 1552 1356 l 1,0,-1
EndSplineSet
EndChar
StartChar: Y
Encoding: 89 89 60
Width: 1251
Flags: W
Fore
1552 1356 m 1,0,-1
 1534 1288 l 1,1,2
 1481 1283 1481 1283 1439 1266 c 0,3,4
 1394 1247 1394 1247 1351 1210 c 0,5,6
 1307 1173 1307 1173 1256 1111 c 2,7,-1
 814 550 l 2,8,9
 800 533 800 533 723 253 c 0,10,11
 698 166 698 166 698 137 c 0,12,13
 698 68 698 68 864 68 c 1,14,-1
 848 0 l 1,15,-1
 178 0 l 1,16,-1
 195 68 l 1,17,18
 274 68 274 68 312 79.5 c 128,-1,19
 350 91 350 91 372.5 126.5 c 128,-1,20
 395 162 395 162 429 279 c 2,21,-1
 506 547 l 1,22,-1
 379 983 l 2,23,24
 323 1173 323 1173 305 1212.5 c 128,-1,25
 287 1252 287 1252 257.5 1270 c 128,-1,26
 228 1288 228 1288 176 1288 c 1,27,-1
 195 1356 l 1,28,-1
 807 1356 l 1,29,-1
 788 1288 l 1,30,31
 711 1286 711 1286 669 1264.5 c 128,-1,32
 627 1243 627 1243 627 1190 c 0,33,34
 627 1147 627 1147 642 1096 c 2,35,-1
 768 655 l 1,36,37
 1121 1105 1121 1105 1156.5 1153.5 c 128,-1,38
 1192 1202 1192 1202 1192 1231 c 0,39,40
 1192 1258 1192 1258 1164 1271.5 c 128,-1,41
 1136 1285 1136 1285 1061 1288 c 1,42,-1
 1079 1356 l 1,43,-1
 1552 1356 l 1,0,-1
EndSplineSet
KernsSLIFO: 89 -188 0 0 88 -188 0 0 84 -227 0 0 83 -152 0 0 82 -227 0 0 76 -113 0 0 72 -227 0 0 68 -188 0 0 36 -152 0 0 30 -188 0 0 29 -188 0 0 17 -152 0 0 16 -188 0 0 15 -188 0 0 3 -76 0 0
EndChar
StartChar: Z
Encoding: 90 90 61
Width: 1251
Flags: W
Fore
1386 1319 m 1,0,-1
 330 102 l 1,1,-1
 786 102 l 2,2,3
 909 102 909 102 960.5 152.5 c 128,-1,4
 1012 203 1012 203 1083 379 c 1,5,-1
 1149 379 l 1,6,-1
 1040 0 l 1,7,-1
 -102 0 l 1,8,-1
 -102 37 l 1,9,-1
 954 1253 l 1,10,-1
 631 1253 l 2,11,12
 521 1253 521 1253 473 1237 c 128,-1,13
 425 1221 425 1221 396 1174 c 128,-1,14
 367 1127 367 1127 311 995 c 1,15,-1
 246 995 l 1,16,-1
 350 1356 l 1,17,-1
 1386 1356 l 1,18,-1
 1386 1319 l 1,0,-1
EndSplineSet
EndChar
StartChar: bracketleft
Encoding: 91 91 62
Width: 682
Flags: W
Fore
942 1386 m 1,0,-1
 918 1303 l 1,1,-1
 745 1303 l 1,2,-1
 279 -322 l 1,3,-1
 451 -322 l 1,4,-1
 428 -406 l 1,5,-1
 -12 -406 l 1,6,-1
 502 1386 l 1,7,-1
 942 1386 l 1,0,-1
EndSplineSet
EndChar
StartChar: backslash
Encoding: 92 92 63
Width: 569
Flags: W
Fore
426 -31 m 1,0,-1
 293 -31 l 1,1,-1
 150 1421 l 1,2,-1
 283 1421 l 1,3,-1
 426 -31 l 1,0,-1
EndSplineSet
EndChar
StartChar: bracketright
Encoding: 93 93 64
Width: 682
Flags: W
Fore
711 1386 m 1,0,-1
 197 -406 l 1,1,-1
 -244 -406 l 1,2,-1
 -221 -322 l 1,3,-1
 -49 -322 l 1,4,-1
 418 1303 l 1,5,-1
 246 1303 l 1,6,-1
 270 1386 l 1,7,-1
 711 1386 l 1,0,-1
EndSplineSet
EndChar
StartChar: asciicircum
Encoding: 94 94 65
Width: 1167
Flags: W
Fore
1092 664 m 1,0,-1
 936 664 l 1,1,-1
 643 1178 l 1,2,-1
 350 664 l 1,3,-1
 195 664 l 1,4,-1
 606 1384 l 1,5,-1
 688 1384 l 1,6,-1
 1092 664 l 1,0,-1
EndSplineSet
EndChar
StartChar: underscore
Encoding: 95 95 66
Width: 1024
Flags: W
Fore
1040 -442 m 1,0,-1
 -16 -442 l 1,1,-1
 -16 -311 l 1,2,-1
 1040 -311 l 1,3,-1
 1040 -442 l 1,0,-1
EndSplineSet
EndChar
StartChar: grave
Encoding: 96 96 67
Width: 682
Flags: W
Fore
614 1051 m 1,0,-1
 518 1051 l 1,1,-1
 225 1348 l 1,2,-1
 510 1348 l 1,3,-1
 614 1051 l 1,0,-1
EndSplineSet
EndChar
StartChar: a
Encoding: 97 97 68
Width: 1024
Flags: W
Fore
698 827 m 1,0,1
 669 874 669 874 616 874 c 0,2,3
 521 874 521 874 424.5 661.5 c 128,-1,4
 328 449 328 449 328 244 c 0,5,6
 328 158 328 158 377 158 c 0,7,8
 421 158 421 158 492 242.5 c 128,-1,9
 563 327 563 327 567 344 c 2,10,-1
 698 827 l 1,0,1
526 184 m 1,11,12
 391 -29 391 -29 223 -29 c 0,13,14
 145 -29 145 -29 93 45.5 c 128,-1,15
 41 120 41 120 41 240 c 0,16,17
 41 519 41 519 210 742 c 128,-1,18
 379 965 379 965 616 965 c 0,19,20
 701 965 701 965 788 911 c 1,21,-1
 922 932 l 1,22,-1
 1004 932 l 1,23,-1
 869 433 l 2,24,25
 812 221 812 221 806.5 194 c 128,-1,26
 801 167 801 167 801 154 c 0,27,28
 801 142 801 142 810.5 132.5 c 128,-1,29
 820 123 820 123 831 123 c 0,30,31
 891 123 891 123 969 231 c 1,32,-1
 1026 193 l 1,33,34
 878 -29 878 -29 664 -29 c 0,35,36
 595 -29 595 -29 554.5 8.5 c 128,-1,37
 514 46 514 46 514 94 c 0,38,39
 514 143 514 143 526 184 c 1,11,12
EndSplineSet
EndChar
StartChar: b
Encoding: 98 98 69
Width: 1024
Flags: W
Fore
313 109 m 1,0,1
 345 61 345 61 412 61 c 0,2,3
 507 61 507 61 603.5 274 c 128,-1,4
 700 487 700 487 700 692 c 0,5,6
 700 778 700 778 645 778 c 0,7,8
 620 778 620 778 585 751.5 c 128,-1,9
 550 725 550 725 500.5 667 c 128,-1,10
 451 609 451 609 446 591 c 2,11,-1
 313 109 l 1,0,1
487 752 m 1,12,13
 555 852 555 852 641.5 908.5 c 128,-1,14
 728 965 728 965 805 965 c 0,15,16
 894 965 894 965 940.5 895.5 c 128,-1,17
 987 826 987 826 987 696 c 0,18,19
 987 417 987 417 818.5 194 c 128,-1,20
 650 -29 650 -29 412 -29 c 0,21,22
 304 -29 304 -29 215 31 c 1,23,-1
 88 0 l 1,24,-1
 6 0 l 1,25,-1
 307 1106 l 2,26,27
 328 1184 328 1184 328 1214 c 0,28,29
 328 1233 328 1233 312.5 1245.5 c 128,-1,30
 297 1258 297 1258 190 1262 c 1,31,-1
 190 1325 l 1,32,-1
 586 1421 l 1,33,-1
 668 1421 l 1,34,-1
 487 752 l 1,12,13
EndSplineSet
EndChar
StartChar: c
Encoding: 99 99 70
Width: 909
Flags: W
Fore
365 -29 m 0,0,1
 225 -29 225 -29 137 55 c 128,-1,2
 49 139 49 139 49 274 c 0,3,4
 49 543 49 543 215 754 c 128,-1,5
 381 965 381 965 647 965 c 0,6,7
 768 965 768 965 836.5 910 c 128,-1,8
 905 855 905 855 905 774 c 0,9,10
 905 719 905 719 878.5 684 c 128,-1,11
 852 649 852 649 801 649 c 0,12,13
 706 649 706 649 686 780 c 0,14,15
 677 837 677 837 659.5 857 c 128,-1,16
 642 877 642 877 608 877 c 0,17,18
 517 877 517 877 428.5 661.5 c 128,-1,19
 340 446 340 446 340 252 c 0,20,21
 340 190 340 190 373.5 155.5 c 128,-1,22
 407 121 407 121 465 121 c 0,23,24
 605 121 605 121 762 252 c 1,25,-1
 805 193 l 1,26,27
 624 -29 624 -29 365 -29 c 0,0,1
EndSplineSet
EndChar
StartChar: d
Encoding: 100 100 71
Width: 1024
Flags: W
Fore
698 827 m 1,0,1
 669 874 669 874 616 874 c 0,2,3
 521 874 521 874 424.5 661.5 c 128,-1,4
 328 449 328 449 328 244 c 0,5,6
 328 158 328 158 377 158 c 0,7,8
 421 158 421 158 492 242.5 c 128,-1,9
 563 327 563 327 567 344 c 2,10,-1
 698 827 l 1,0,1
526 184 m 1,11,12
 391 -29 391 -29 223 -29 c 0,13,14
 145 -29 145 -29 93 45.5 c 128,-1,15
 41 120 41 120 41 240 c 0,16,17
 41 519 41 519 210 742 c 128,-1,18
 379 965 379 965 616 965 c 0,19,20
 670 965 670 965 729 940 c 1,21,22
 795 1181 795 1181 795 1214 c 0,23,24
 795 1233 795 1233 779.5 1245.5 c 128,-1,25
 764 1258 764 1258 657 1262 c 1,26,-1
 657 1325 l 1,27,-1
 1053 1421 l 1,28,-1
 1135 1421 l 1,29,-1
 817 242 l 2,30,31
 801 180 801 180 801 154 c 0,32,33
 801 142 801 142 810.5 132.5 c 128,-1,34
 820 123 820 123 831 123 c 0,35,36
 891 123 891 123 969 231 c 1,37,-1
 1026 193 l 1,38,39
 878 -29 878 -29 664 -29 c 0,40,41
 595 -29 595 -29 554.5 8.5 c 128,-1,42
 514 46 514 46 514 94 c 0,43,44
 514 143 514 143 526 184 c 1,11,12
EndSplineSet
EndChar
StartChar: e
Encoding: 101 101 72
Width: 909
Flags: W
Fore
365 455 m 1,0,1
 496 469 496 469 564.5 565.5 c 128,-1,2
 633 662 633 662 633 754 c 0,3,4
 633 877 633 877 584 877 c 0,5,6
 526 877 526 877 467 761.5 c 128,-1,7
 408 646 408 646 365 455 c 1,0,1
365 -29 m 0,8,9
 225 -29 225 -29 137 55 c 128,-1,10
 49 139 49 139 49 274 c 0,11,12
 49 543 49 543 215 754 c 128,-1,13
 381 965 381 965 647 965 c 0,14,15
 771 965 771 965 836 903 c 128,-1,16
 901 841 901 841 901 737 c 0,17,18
 901 582 901 582 756.5 480 c 128,-1,19
 612 378 612 378 350 362 c 1,20,21
 340 296 340 296 340 252 c 0,22,23
 340 190 340 190 373.5 155.5 c 128,-1,24
 407 121 407 121 465 121 c 0,25,26
 605 121 605 121 762 252 c 1,27,-1
 805 193 l 1,28,29
 624 -29 624 -29 365 -29 c 0,8,9
EndSplineSet
EndChar
StartChar: f
Encoding: 102 102 73
Width: 682
Flags: W
Fore
573 842 m 1,0,-1
 397 195 l 2,1,2
 342 -6 342 -6 257.5 -144 c 128,-1,3
 173 -282 173 -282 65.5 -352 c 128,-1,4
 -42 -422 -42 -422 -168 -422 c 0,5,6
 -271 -422 -271 -422 -343.5 -364 c 128,-1,7
 -416 -306 -416 -306 -416 -238 c 0,8,9
 -416 -192 -416 -192 -387.5 -157.5 c 128,-1,10
 -359 -123 -359 -123 -319 -123 c 0,11,12
 -275 -123 -275 -123 -240.5 -153.5 c 128,-1,13
 -206 -184 -206 -184 -193 -233 c 0,14,15
 -168 -330 -168 -330 -121 -330 c 0,16,17
 -63 -330 -63 -330 -21.5 -257.5 c 128,-1,18
 20 -185 20 -185 61 -33 c 2,19,-1
 299 842 l 1,20,-1
 141 842 l 1,21,-1
 170 936 l 1,22,-1
 324 936 l 1,23,24
 369 1090 369 1090 389.5 1135.5 c 128,-1,25
 410 1181 410 1181 457.5 1236 c 128,-1,26
 505 1291 505 1291 567 1332.5 c 128,-1,27
 629 1374 629 1374 703 1397.5 c 128,-1,28
 777 1421 777 1421 856 1421 c 0,29,30
 982 1421 982 1421 1053 1370 c 128,-1,31
 1124 1319 1124 1319 1124 1233 c 0,32,33
 1124 1191 1124 1191 1095 1166 c 128,-1,34
 1066 1141 1066 1141 1016 1141 c 0,35,36
 971 1141 971 1141 938.5 1171 c 128,-1,37
 906 1201 906 1201 897 1251 c 0,38,39
 881 1329 881 1329 829 1329 c 0,40,41
 788 1329 788 1329 753 1305 c 128,-1,42
 718 1281 718 1281 691 1230 c 128,-1,43
 664 1179 664 1179 600 936 c 1,44,-1
 782 936 l 1,45,-1
 754 842 l 1,46,-1
 573 842 l 1,0,-1
EndSplineSet
KernsSLIFO: 183 113 0 0 73 -37 0 0
EndChar
StartChar: g
Encoding: 103 103 74
Width: 1024
Flags: W
Fore
1049 899 m 1,0,-1
 1018 791 l 1,1,-1
 883 791 l 1,2,3
 901 754 901 754 901 702 c 0,4,5
 901 660 901 660 892 620.5 c 128,-1,6
 883 581 883 581 865.5 545 c 128,-1,7
 848 509 848 509 823 478 c 128,-1,8
 798 447 798 447 766.5 421.5 c 128,-1,9
 735 396 735 396 697.5 376 c 128,-1,10
 660 356 660 356 618.5 342 c 128,-1,11
 577 328 577 328 531 322 c 2,12,-1
 431 310 l 2,13,14
 336 269 336 269 303 250 c 128,-1,15
 270 231 270 231 270 209 c 0,16,17
 270 190 270 190 312 182 c 128,-1,18
 354 174 354 174 467 162 c 0,19,20
 690 137 690 137 772 74 c 128,-1,21
 854 11 854 11 854 -102 c 0,22,23
 854 -252 854 -252 699.5 -344 c 128,-1,24
 545 -436 545 -436 311 -436 c 0,25,26
 116 -436 116 -436 -6.5 -377.5 c 128,-1,27
 -129 -319 -129 -319 -129 -215 c 0,28,29
 -129 -155 -129 -155 -67 -108.5 c 128,-1,30
 -5 -62 -5 -62 135 -12 c 1,31,32
 72 56 72 56 72 129 c 0,33,34
 72 187 72 187 119 233.5 c 128,-1,35
 166 280 166 280 291 334 c 1,36,37
 208 356 208 356 158.5 417.5 c 128,-1,38
 109 479 109 479 109 565 c 0,39,40
 109 726 109 726 240 845.5 c 128,-1,41
 371 965 371 965 584 965 c 0,42,43
 639 965 639 965 709 946.5 c 128,-1,44
 779 928 779 928 819 899 c 1,45,-1
 1049 899 l 1,0,-1
459 399 m 0,46,47
 533 399 533 399 588 513 c 128,-1,48
 643 627 643 627 643 745 c 0,49,50
 643 874 643 874 551 874 c 0,51,52
 468 874 468 874 417.5 771 c 128,-1,53
 367 668 367 668 367 535 c 0,54,55
 367 473 367 473 393 436 c 128,-1,56
 419 399 419 399 459 399 c 0,46,47
213 -57 m 1,57,58
 68 -124 68 -124 68 -209 c 0,59,60
 68 -271 68 -271 142 -309.5 c 128,-1,61
 216 -348 216 -348 324 -348 c 0,62,63
 455 -348 455 -348 555 -301 c 128,-1,64
 655 -254 655 -254 655 -199 c 0,65,66
 655 -157 655 -157 595.5 -125 c 128,-1,67
 536 -93 536 -93 213 -57 c 1,57,58
EndSplineSet
EndChar
StartChar: h
Encoding: 104 104 75
Width: 1139
Flags: W
Fore
1077 193 m 1,0,1
 929 -29 929 -29 715 -29 c 0,2,3
 646 -29 646 -29 605.5 8.5 c 128,-1,4
 565 46 565 46 565 94 c 0,5,6
 565 143 565 143 578 184 c 0,7,8
 703 633 703 633 713 672 c 128,-1,9
 723 711 723 711 723 729 c 0,10,11
 723 780 723 780 688 780 c 0,12,13
 639 780 639 780 536.5 667.5 c 128,-1,14
 434 555 434 555 406 447 c 2,15,-1
 285 0 l 1,16,-1
 8 0 l 1,17,-1
 307 1106 l 2,18,19
 328 1184 328 1184 328 1214 c 0,20,21
 328 1233 328 1233 312.5 1245.5 c 128,-1,22
 297 1258 297 1258 190 1262 c 1,23,-1
 190 1325 l 1,24,-1
 586 1421 l 1,25,-1
 668 1421 l 1,26,-1
 473 698 l 1,27,28
 544 811 544 811 651 888 c 128,-1,29
 758 965 758 965 854 965 c 0,30,31
 925 965 925 965 969.5 923.5 c 128,-1,32
 1014 882 1014 882 1014 821 c 0,33,34
 1014 762 1014 762 993 692 c 2,35,-1
 876 270 l 2,36,37
 858 206 858 206 855 183 c 128,-1,38
 852 160 852 160 852 154 c 0,39,40
 852 142 852 142 861.5 132.5 c 128,-1,41
 871 123 871 123 883 123 c 0,42,43
 942 123 942 123 1020 231 c 1,44,-1
 1077 193 l 1,0,1
EndSplineSet
EndChar
StartChar: i
Encoding: 105 105 76
Width: 569
Flags: W
Fore
549 193 m 1,0,1
 401 -29 401 -29 186 -29 c 0,2,3
 117 -29 117 -29 76 8.5 c 128,-1,4
 35 46 35 46 35 94 c 0,5,6
 35 143 35 143 47 184 c 2,7,-1
 150 566 l 2,8,9
 192 720 192 720 197.5 745 c 128,-1,10
 203 770 203 770 203 782 c 0,11,12
 203 813 203 813 178 813 c 0,13,14
 133 813 133 813 66 721 c 1,15,-1
 10 760 l 1,16,17
 146 965 146 965 350 965 c 0,18,19
 417 965 417 965 454.5 927 c 128,-1,20
 492 889 492 889 492 827 c 0,21,22
 492 797 492 797 479 756 c 2,23,-1
 376 374 l 2,24,25
 334 220 334 220 329 193 c 128,-1,26
 324 166 324 166 324 154 c 0,27,28
 324 142 324 142 333.5 132.5 c 128,-1,29
 343 123 343 123 354 123 c 0,30,31
 414 123 414 123 492 231 c 1,32,-1
 549 193 l 1,0,1
436 1421 m 0,33,34
 499 1421 499 1421 544.5 1375.5 c 128,-1,35
 590 1330 590 1330 590 1268 c 0,36,37
 590 1205 590 1205 544.5 1159.5 c 128,-1,38
 499 1114 499 1114 436 1114 c 0,39,40
 374 1114 374 1114 328.5 1159.5 c 128,-1,41
 283 1205 283 1205 283 1268 c 0,42,43
 283 1330 283 1330 328.5 1375.5 c 128,-1,44
 374 1421 374 1421 436 1421 c 0,33,34
EndSplineSet
EndChar
StartChar: j
Encoding: 106 106 77
Width: 569
Flags: W
Fore
530 827 m 0,0,1
 530 801 530 801 503 700 c 2,2,-1
 391 285 l 2,3,4
 334 74 334 74 287.5 -36 c 128,-1,5
 241 -146 241 -146 170 -236 c 128,-1,6
 99 -326 99 -326 10.5 -374 c 128,-1,7
 -78 -422 -78 -422 -182 -422 c 0,8,9
 -274 -422 -274 -422 -340 -367.5 c 128,-1,10
 -406 -313 -406 -313 -406 -246 c 0,11,12
 -406 -201 -406 -201 -380 -172 c 128,-1,13
 -354 -143 -354 -143 -315 -143 c 0,14,15
 -234 -143 -234 -143 -207 -246 c 0,16,17
 -185 -330 -185 -330 -135 -330 c 0,18,19
 -87 -330 -87 -330 -52.5 -263.5 c 128,-1,20
 -18 -197 -18 -197 27 -33 c 2,21,-1
 225 698 l 2,22,23
 242 760 242 760 242 782 c 0,24,25
 242 813 242 813 217 813 c 0,26,27
 172 813 172 813 104 721 c 1,28,-1
 49 760 l 1,29,30
 185 965 185 965 389 965 c 0,31,32
 456 965 456 965 493 927 c 128,-1,33
 530 889 530 889 530 827 c 0,0,1
475 1421 m 0,34,35
 538 1421 538 1421 583.5 1375.5 c 128,-1,36
 629 1330 629 1330 629 1268 c 0,37,38
 629 1205 629 1205 583.5 1159.5 c 128,-1,39
 538 1114 538 1114 475 1114 c 0,40,41
 412 1114 412 1114 367 1159.5 c 128,-1,42
 322 1205 322 1205 322 1268 c 0,43,44
 322 1330 322 1330 367 1375.5 c 128,-1,45
 412 1421 412 1421 475 1421 c 0,34,35
EndSplineSet
EndChar
StartChar: k
Encoding: 107 107 78
Width: 1024
Flags: W
Fore
432 551 m 1,0,-1
 694 821 l 2,1,2
 764 893 764 893 824.5 929 c 128,-1,3
 885 965 885 965 940 965 c 0,4,5
 996 965 996 965 1029.5 934.5 c 128,-1,6
 1063 904 1063 904 1063 858 c 0,7,8
 1063 810 1063 810 1036 782 c 128,-1,9
 1009 754 1009 754 963 754 c 0,10,11
 935 754 935 754 899 774 c 0,12,13
 870 791 870 791 852 791 c 0,14,15
 794 791 794 791 657 657 c 1,16,17
 754 579 754 579 776 436 c 0,18,19
 814 208 814 208 823.5 172.5 c 128,-1,20
 833 137 833 137 864 137 c 0,21,22
 902 137 902 137 963 221 c 1,23,-1
 1020 178 l 1,24,25
 881 -29 881 -29 709 -29 c 0,26,27
 570 -29 570 -29 551 135 c 0,28,29
 523 357 523 357 513.5 400.5 c 128,-1,30
 504 444 504 444 473 477 c 1,31,-1
 391 399 l 1,32,-1
 285 0 l 1,33,-1
 8 0 l 1,34,-1
 307 1106 l 2,35,36
 328 1184 328 1184 328 1214 c 0,37,38
 328 1233 328 1233 312.5 1245.5 c 128,-1,39
 297 1258 297 1258 190 1262 c 1,40,-1
 190 1325 l 1,41,-1
 586 1421 l 1,42,-1
 668 1421 l 1,43,-1
 432 551 l 1,0,-1
EndSplineSet
EndChar
StartChar: l
Encoding: 108 108 79
Width: 569
Flags: W
Fore
657 1421 m 1,0,-1
 340 242 l 2,1,2
 324 180 324 180 324 154 c 0,3,4
 324 142 324 142 333.5 132.5 c 128,-1,5
 343 123 343 123 354 123 c 0,6,7
 414 123 414 123 492 231 c 1,8,-1
 549 193 l 1,9,10
 401 -29 401 -29 186 -29 c 0,11,12
 117 -29 117 -29 76 8.5 c 128,-1,13
 35 46 35 46 35 94 c 0,14,15
 35 139 35 139 47 184 c 2,16,-1
 297 1106 l 2,17,18
 317 1184 317 1184 317 1214 c 0,19,20
 317 1233 317 1233 302 1245.5 c 128,-1,21
 287 1258 287 1258 180 1262 c 1,22,-1
 180 1325 l 1,23,-1
 575 1421 l 1,24,-1
 657 1421 l 1,0,-1
EndSplineSet
EndChar
StartChar: m
Encoding: 109 109 80
Width: 1593
Flags: W
Fore
1546 193 m 1,0,1
 1398 -29 1398 -29 1184 -29 c 0,2,3
 1115 -29 1115 -29 1074.5 8.5 c 128,-1,4
 1034 46 1034 46 1034 94 c 0,5,6
 1034 143 1034 143 1047 184 c 0,7,8
 1172 633 1172 633 1182 672 c 128,-1,9
 1192 711 1192 711 1192 729 c 0,10,11
 1192 763 1192 763 1184 771.5 c 128,-1,12
 1176 780 1176 780 1161 780 c 0,13,14
 1123 780 1123 780 1029 666.5 c 128,-1,15
 935 553 935 553 908 448 c 2,16,-1
 786 0 l 1,17,-1
 510 0 l 1,18,-1
 639 469 l 2,19,20
 690 654 690 654 697.5 686 c 128,-1,21
 705 718 705 718 705 729 c 0,22,23
 705 763 705 763 697 771.5 c 128,-1,24
 689 780 689 780 674 780 c 0,25,26
 636 780 636 780 542 666.5 c 128,-1,27
 448 553 448 553 420 448 c 2,28,-1
 299 0 l 1,29,-1
 23 0 l 1,30,-1
 211 698 l 2,31,32
 227 760 227 760 227 782 c 0,33,34
 227 813 227 813 203 813 c 0,35,36
 158 813 158 813 90 721 c 1,37,-1
 35 760 l 1,38,39
 170 965 170 965 375 965 c 0,40,41
 442 965 442 965 479 927 c 128,-1,42
 516 889 516 889 516 827 c 0,43,44
 516 793 516 793 492 715 c 1,45,46
 643 965 643 965 836 965 c 0,47,48
 907 965 907 965 952 923.5 c 128,-1,49
 997 882 997 882 997 821 c 0,50,51
 997 768 997 768 979 715 c 1,52,53
 1130 965 1130 965 1323 965 c 0,54,55
 1394 965 1394 965 1438.5 923.5 c 128,-1,56
 1483 882 1483 882 1483 821 c 0,57,58
 1483 762 1483 762 1462 692 c 2,59,-1
 1345 270 l 2,60,61
 1327 206 1327 206 1324 183 c 128,-1,62
 1321 160 1321 160 1321 154 c 0,63,64
 1321 142 1321 142 1330.5 132.5 c 128,-1,65
 1340 123 1340 123 1352 123 c 0,66,67
 1411 123 1411 123 1489 231 c 1,68,-1
 1546 193 l 1,0,1
EndSplineSet
EndChar
StartChar: n
Encoding: 110 110 81
Width: 1139
Flags: W
Fore
1092 193 m 1,0,1
 944 -29 944 -29 729 -29 c 0,2,3
 660 -29 660 -29 620 8.5 c 128,-1,4
 580 46 580 46 580 94 c 0,5,6
 580 143 580 143 592 184 c 0,7,8
 717 633 717 633 727 672 c 128,-1,9
 737 711 737 711 737 729 c 0,10,11
 737 780 737 780 702 780 c 0,12,13
 653 780 653 780 550.5 667.5 c 128,-1,14
 448 555 448 555 420 447 c 2,15,-1
 299 0 l 1,16,-1
 23 0 l 1,17,-1
 211 698 l 2,18,19
 227 760 227 760 227 782 c 0,20,21
 227 813 227 813 203 813 c 0,22,23
 158 813 158 813 90 721 c 1,24,-1
 35 760 l 1,25,26
 170 965 170 965 375 965 c 0,27,28
 442 965 442 965 479 927 c 128,-1,29
 516 889 516 889 516 827 c 0,30,31
 516 795 516 795 487 698 c 1,32,33
 558 811 558 811 665 888 c 128,-1,34
 772 965 772 965 868 965 c 0,35,36
 939 965 939 965 983.5 923.5 c 128,-1,37
 1028 882 1028 882 1028 821 c 0,38,39
 1028 762 1028 762 1008 692 c 2,40,-1
 890 270 l 2,41,42
 873 206 873 206 869.5 183 c 128,-1,43
 866 160 866 160 866 154 c 0,44,45
 866 142 866 142 875.5 132.5 c 128,-1,46
 885 123 885 123 897 123 c 0,47,48
 957 123 957 123 1034 231 c 1,49,-1
 1092 193 l 1,0,1
EndSplineSet
EndChar
StartChar: o
Encoding: 111 111 82
Width: 1024
Flags: W
Fore
631 965 m 0,0,1
 778 965 778 965 869.5 871 c 128,-1,2
 961 777 961 777 961 641 c 0,3,4
 961 373 961 373 795.5 172 c 128,-1,5
 630 -29 630 -29 377 -29 c 0,6,7
 230 -29 230 -29 139.5 64 c 128,-1,8
 49 157 49 157 49 295 c 0,9,10
 49 562 49 562 213.5 763.5 c 128,-1,11
 378 965 378 965 631 965 c 0,0,1
403 61 m 0,12,13
 472 61 472 61 533 178 c 128,-1,14
 594 295 594 295 634 477 c 128,-1,15
 674 659 674 659 674 739 c 0,16,17
 674 874 674 874 606 874 c 0,18,19
 534 874 534 874 473 759 c 128,-1,20
 412 644 412 644 374 462 c 128,-1,21
 336 280 336 280 336 195 c 0,22,23
 336 61 336 61 403 61 c 0,12,13
EndSplineSet
EndChar
StartChar: p
Encoding: 112 112 83
Width: 1024
Flags: W
Fore
487 752 m 1,0,1
 555 852 555 852 641.5 908.5 c 128,-1,2
 728 965 728 965 805 965 c 0,3,4
 894 965 894 965 940.5 895.5 c 128,-1,5
 987 826 987 826 987 696 c 0,6,7
 987 417 987 417 818.5 194 c 128,-1,8
 650 -29 650 -29 412 -29 c 0,9,10
 331 -29 331 -29 283 -4 c 1,11,12
 209 -274 209 -274 209 -301 c 0,13,14
 209 -371 209 -371 375 -371 c 1,15,-1
 358 -438 l 1,16,-1
 -287 -438 l 1,17,-1
 -270 -371 l 1,18,19
 -152 -371 -152 -371 -113.5 -338 c 128,-1,20
 -75 -305 -75 -305 -39 -170 c 2,21,-1
 197 698 l 2,22,23
 213 760 213 760 213 782 c 0,24,25
 213 813 213 813 188 813 c 0,26,27
 144 813 144 813 76 721 c 1,28,-1
 20 760 l 1,29,30
 156 965 156 965 360 965 c 0,31,32
 427 965 427 965 463.5 927.5 c 128,-1,33
 500 890 500 890 500 827 c 0,34,35
 500 795 500 795 487 752 c 1,0,1
313 109 m 1,36,37
 345 61 345 61 412 61 c 0,38,39
 507 61 507 61 603.5 274 c 128,-1,40
 700 487 700 487 700 692 c 0,41,42
 700 778 700 778 645 778 c 0,43,44
 620 778 620 778 585 751.5 c 128,-1,45
 550 725 550 725 500.5 667 c 128,-1,46
 451 609 451 609 446 591 c 2,47,-1
 313 109 l 1,36,37
EndSplineSet
EndChar
StartChar: q
Encoding: 113 113 84
Width: 1024
Flags: W
Fore
698 827 m 1,0,1
 669 874 669 874 616 874 c 0,2,3
 521 874 521 874 424.5 661.5 c 128,-1,4
 328 449 328 449 328 244 c 0,5,6
 328 158 328 158 377 158 c 0,7,8
 421 158 421 158 492 242.5 c 128,-1,9
 563 327 563 327 567 344 c 2,10,-1
 698 827 l 1,0,1
526 184 m 1,11,12
 391 -29 391 -29 223 -29 c 0,13,14
 145 -29 145 -29 93 45.5 c 128,-1,15
 41 120 41 120 41 240 c 0,16,17
 41 519 41 519 210 742 c 128,-1,18
 379 965 379 965 616 965 c 0,19,20
 701 965 701 965 788 911 c 1,21,-1
 922 932 l 1,22,-1
 1004 932 l 1,23,-1
 705 -170 l 2,24,25
 676 -263 676 -263 676 -301 c 0,26,27
 676 -371 676 -371 842 -371 c 1,28,-1
 825 -438 l 1,29,-1
 180 -438 l 1,30,-1
 197 -371 l 1,31,32
 277 -371 277 -371 315 -359 c 128,-1,33
 353 -347 353 -347 375.5 -311.5 c 128,-1,34
 398 -276 398 -276 436 -140 c 2,35,-1
 526 184 l 1,11,12
EndSplineSet
EndChar
StartChar: r
Encoding: 114 114 85
Width: 797
Flags: W
Fore
471 647 m 1,0,1
 634 965 634 965 754 965 c 0,2,3
 850 965 850 965 850 846 c 0,4,5
 850 767 850 767 811 699 c 128,-1,6
 772 631 772 631 719 631 c 0,7,8
 693 631 693 631 669 651 c 0,9,10
 650 668 650 668 633 668 c 0,11,12
 583 668 583 668 503 560.5 c 128,-1,13
 423 453 423 453 390 333 c 2,14,-1
 299 0 l 1,15,-1
 23 0 l 1,16,-1
 211 698 l 2,17,18
 227 760 227 760 227 782 c 0,19,20
 227 813 227 813 203 813 c 0,21,22
 158 813 158 813 90 721 c 1,23,-1
 35 760 l 1,24,25
 170 965 170 965 375 965 c 0,26,27
 441 965 441 965 477.5 927.5 c 128,-1,28
 514 890 514 890 514 827 c 0,29,30
 514 798 514 798 471 647 c 1,0,1
EndSplineSet
KernsSLIFO: 183 76 0 0 17 -113 0 0 15 -113 0 0
EndChar
StartChar: s
Encoding: 115 115 86
Width: 797
Flags: W
Fore
322 -29 m 0,0,1
 179 -29 179 -29 86.5 26.5 c 128,-1,2
 -6 82 -6 82 -6 160 c 0,3,4
 -6 201 -6 201 18.5 229.5 c 128,-1,5
 43 258 43 258 82 258 c 0,6,7
 151 258 151 258 205 147 c 0,8,9
 246 61 246 61 322 61 c 0,10,11
 418 61 418 61 418 195 c 0,12,13
 418 224 418 224 397 264 c 128,-1,14
 376 304 376 304 292 402 c 0,15,16
 184 526 184 526 154.5 589 c 128,-1,17
 125 652 125 652 125 702 c 0,18,19
 125 816 125 816 225 890.5 c 128,-1,20
 325 965 325 965 485 965 c 0,21,22
 613 965 613 965 694.5 910.5 c 128,-1,23
 776 856 776 856 776 778 c 0,24,25
 776 732 776 732 751.5 703 c 128,-1,26
 727 674 727 674 682 674 c 0,27,28
 650 674 650 674 622.5 701 c 128,-1,29
 595 728 595 728 586 768 c 0,30,31
 562 874 562 874 483 874 c 0,32,33
 391 874 391 874 391 774 c 0,34,35
 391 747 391 747 410.5 710.5 c 128,-1,36
 430 674 430 674 510 584 c 0,37,38
 622 460 622 460 653 393.5 c 128,-1,39
 684 327 684 327 684 270 c 0,40,41
 684 140 684 140 583.5 55.5 c 128,-1,42
 483 -29 483 -29 322 -29 c 0,0,1
EndSplineSet
EndChar
StartChar: t
Encoding: 116 116 87
Width: 569
Flags: W
Fore
152 -29 m 0,0,1
 85 -29 85 -29 46.5 12 c 128,-1,2
 8 53 8 53 8 104 c 0,3,4
 8 144 8 144 21 192 c 2,5,-1
 197 846 l 1,6,-1
 49 846 l 1,7,-1
 74 936 l 1,8,9
 192 942 192 942 313.5 1024 c 128,-1,10
 435 1106 435 1106 481 1204 c 1,11,-1
 571 1204 l 1,12,-1
 498 936 l 1,13,-1
 649 936 l 1,14,-1
 625 846 l 1,15,-1
 475 846 l 1,16,-1
 307 225 l 2,17,18
 299 194 299 194 299 170 c 0,19,20
 299 154 299 154 312 141.5 c 128,-1,21
 325 129 325 129 346 129 c 0,22,23
 414 129 414 129 522 209 c 1,24,-1
 561 154 l 1,25,26
 377 -29 377 -29 152 -29 c 0,0,1
EndSplineSet
EndChar
StartChar: u
Encoding: 117 117 88
Width: 1139
Flags: W
Fore
610 238 m 1,0,1
 540 126 540 126 432 48.5 c 128,-1,2
 324 -29 324 -29 227 -29 c 0,3,4
 157 -29 157 -29 112.5 12.5 c 128,-1,5
 68 54 68 54 68 115 c 0,6,7
 68 173 68 173 88 244 c 2,8,-1
 181 582 l 2,9,10
 219 719 219 719 224 744.5 c 128,-1,11
 229 770 229 770 229 782 c 0,12,13
 229 813 229 813 205 813 c 0,14,15
 160 813 160 813 92 721 c 1,16,-1
 37 760 l 1,17,18
 172 965 172 965 377 965 c 0,19,20
 443 965 443 965 479.5 927.5 c 128,-1,21
 516 890 516 890 516 827 c 0,22,23
 516 802 516 802 480 670 c 2,24,-1
 381 311 l 2,25,26
 358 230 358 230 358 207 c 0,27,28
 358 156 358 156 393 156 c 0,29,30
 442 156 442 156 545 268 c 128,-1,31
 648 380 648 380 676 489 c 2,32,-1
 797 936 l 1,33,-1
 1073 936 l 1,34,-1
 885 242 l 2,35,36
 868 180 868 180 868 154 c 0,37,38
 868 142 868 142 877.5 132.5 c 128,-1,39
 887 123 887 123 899 123 c 0,40,41
 959 123 959 123 1036 231 c 1,42,-1
 1094 193 l 1,43,44
 946 -29 946 -29 731 -29 c 0,45,46
 662 -29 662 -29 622 8.5 c 128,-1,47
 582 46 582 46 582 94 c 0,48,49
 582 150 582 150 610 238 c 1,0,1
EndSplineSet
EndChar
StartChar: v
Encoding: 118 118 89
Width: 909
Flags: W
Fore
272 -29 m 1,0,-1
 174 694 l 2,1,2
 158 813 158 813 123 813 c 0,3,4
 78 813 78 813 25 737 c 1,5,-1
 -31 778 l 1,6,7
 32 868 32 868 111.5 916.5 c 128,-1,8
 191 965 191 965 266 965 c 0,9,10
 342 965 342 965 380.5 915.5 c 128,-1,11
 419 866 419 866 432 763 c 2,12,-1
 494 276 l 1,13,14
 614 423 614 423 668.5 518 c 128,-1,15
 723 613 723 613 723 682 c 0,16,17
 723 707 723 707 694 749 c 0,18,19
 657 804 657 804 657 846 c 0,20,21
 657 896 657 896 688 930.5 c 128,-1,22
 719 965 719 965 770 965 c 0,23,24
 830 965 830 965 866.5 922.5 c 128,-1,25
 903 880 903 880 903 819 c 0,26,27
 903 583 903 583 362 -29 c 1,28,-1
 272 -29 l 1,0,-1
EndSplineSet
KernsSLIFO: 17 -76 0 0 15 -76 0 0
EndChar
StartChar: w
Encoding: 119 119 90
Width: 1366
Flags: W
Fore
971 276 m 1,0,1
 1180 531 1180 531 1180 682 c 0,2,3
 1180 707 1180 707 1151 749 c 0,4,5
 1114 804 1114 804 1114 846 c 0,6,7
 1114 896 1114 896 1145 930.5 c 128,-1,8
 1176 965 1176 965 1227 965 c 0,9,10
 1287 965 1287 965 1323.5 922.5 c 128,-1,11
 1360 880 1360 880 1360 819 c 0,12,13
 1360 699 1360 699 1220 471.5 c 128,-1,14
 1080 244 1080 244 840 -29 c 1,15,-1
 750 -29 l 1,16,-1
 694 563 l 1,17,-1
 342 -29 l 1,18,-1
 252 -29 l 1,19,-1
 174 694 l 2,20,21
 162 813 162 813 123 813 c 0,22,23
 78 813 78 813 25 737 c 1,24,-1
 -31 778 l 1,25,26
 32 868 32 868 111.5 916.5 c 128,-1,27
 191 965 191 965 266 965 c 0,28,29
 345 965 345 965 384.5 913 c 128,-1,30
 424 861 424 861 434 752 c 2,31,-1
 467 375 l 1,32,-1
 649 686 l 2,33,34
 678 735 678 735 694 753 c 2,35,-1
 866 950 l 1,36,-1
 907 950 l 1,37,-1
 971 276 l 1,0,1
EndSplineSet
KernsSLIFO: 17 -76 0 0 15 -76 0 0
EndChar
StartChar: x
Encoding: 120 120 91
Width: 1024
Flags: W
Fore
563 696 m 1,0,1
 746 965 746 965 879 965 c 0,2,3
 941 965 941 965 981.5 931.5 c 128,-1,4
 1022 898 1022 898 1022 848 c 0,5,6
 1022 741 1022 741 920 741 c 0,7,8
 879 741 879 741 835 788 c 0,9,10
 812 813 812 813 801 813 c 0,11,12
 743 813 743 813 598 588 c 1,13,-1
 716 192 l 2,14,15
 725 161 725 161 740 142 c 128,-1,16
 755 123 755 123 772 123 c 0,17,18
 813 123 813 123 877 209 c 1,19,-1
 924 160 l 1,20,21
 866 79 866 79 779 25 c 128,-1,22
 692 -29 692 -29 614 -29 c 0,23,24
 564 -29 564 -29 530 7 c 128,-1,25
 496 43 496 43 474 117 c 2,26,-1
 420 295 l 1,27,28
 313 121 313 121 230 46 c 128,-1,29
 147 -29 147 -29 59 -29 c 0,30,31
 10 -29 10 -29 -30 5.5 c 128,-1,32
 -70 40 -70 40 -70 94 c 0,33,34
 -70 143 -70 143 -40.5 176 c 128,-1,35
 -11 209 -11 209 35 209 c 0,36,37
 79 209 79 209 118 152 c 0,38,39
 138 123 138 123 150 123 c 0,40,41
 191 123 191 123 241 184 c 128,-1,42
 291 245 291 245 387 406 c 1,43,-1
 286 742 l 2,44,45
 276 776 276 776 261 794.5 c 128,-1,46
 246 813 246 813 229 813 c 0,47,48
 188 813 188 813 125 727 c 1,49,-1
 78 776 l 1,50,51
 136 858 136 858 222 911.5 c 128,-1,52
 308 965 308 965 387 965 c 0,53,54
 483 965 483 965 524 831.5 c 128,-1,55
 565 698 565 698 563 696 c 1,0,1
EndSplineSet
EndChar
StartChar: y
Encoding: 121 121 92
Width: 909
Flags: W
Fore
268 4 m 1,0,-1
 174 694 l 2,1,2
 158 813 158 813 123 813 c 0,3,4
 78 813 78 813 25 737 c 1,5,-1
 -31 778 l 1,6,7
 32 868 32 868 111.5 916.5 c 128,-1,8
 191 965 191 965 266 965 c 0,9,10
 342 965 342 965 380.5 915.5 c 128,-1,11
 419 866 419 866 432 763 c 2,12,-1
 494 276 l 1,13,14
 614 423 614 423 668.5 518 c 128,-1,15
 723 613 723 613 723 682 c 0,16,17
 723 707 723 707 694 749 c 0,18,19
 657 804 657 804 657 846 c 0,20,21
 657 896 657 896 688 930.5 c 128,-1,22
 719 965 719 965 770 965 c 0,23,24
 830 965 830 965 866.5 922.5 c 128,-1,25
 903 880 903 880 903 819 c 0,26,27
 903 611 903 611 460 84.5 c 128,-1,28
 17 -442 17 -442 -141 -442 c 0,29,30
 -190 -442 -190 -442 -223 -412 c 128,-1,31
 -256 -382 -256 -382 -256 -334 c 0,32,33
 -256 -289 -256 -289 -224 -254 c 128,-1,34
 -192 -219 -192 -219 -141 -219 c 0,35,36
 -102 -219 -102 -219 -72 -254 c 0,37,38
 -55 -274 -55 -274 -43 -274 c 0,39,40
 -17 -274 -17 -274 68 -202 c 128,-1,41
 153 -130 153 -130 268 4 c 1,0,-1
EndSplineSet
KernsSLIFO: 17 -76 0 0 15 -76 0 0
EndChar
StartChar: z
Encoding: 122 122 93
Width: 797
Flags: W
Fore
848 874 m 1,0,-1
 240 244 l 1,1,2
 257 252 257 252 272 252 c 0,3,4
 314 252 314 252 407 242 c 0,5,6
 499 231 499 231 539 231 c 0,7,8
 585 231 585 231 613.5 257 c 128,-1,9
 642 283 642 283 674 360 c 1,10,-1
 741 360 l 1,11,12
 673 152 673 152 616.5 76 c 128,-1,13
 560 0 560 0 481 0 c 0,14,15
 423 0 423 0 300 11 c 0,16,17
 186 20 186 20 135 20 c 0,18,19
 49 20 49 20 -49 0 c 1,20,-1
 -49 61 l 1,21,-1
 559 692 l 1,22,23
 539 684 539 684 526 684 c 0,24,25
 486 684 486 684 396 694 c 0,26,27
 307 705 307 705 268 705 c 0,28,29
 225 705 225 705 199 684.5 c 128,-1,30
 173 664 173 664 141 596 c 1,31,-1
 74 596 l 1,32,33
 136 791 136 791 184 863.5 c 128,-1,34
 232 936 232 936 287 936 c 0,35,36
 337 936 337 936 453 926 c 0,37,38
 577 915 577 915 635 915 c 0,39,40
 762 915 762 915 848 936 c 1,41,-1
 848 874 l 1,0,-1
EndSplineSet
EndChar
StartChar: braceleft
Encoding: 123 123 94
Width: 713
Flags: W
Fore
975 1421 m 1,0,-1
 954 1337 l 1,1,2
 649 1306 649 1306 649 987 c 0,3,4
 649 774 649 774 535 662.5 c 128,-1,5
 421 551 421 551 246 496 c 1,6,-1
 246 492 l 1,7,8
 338 454 338 454 390 384.5 c 128,-1,9
 442 315 442 315 442 231 c 0,10,11
 442 160 442 160 369 0 c 0,12,13
 293 -156 293 -156 293 -221 c 0,14,15
 293 -275 293 -275 326.5 -305.5 c 128,-1,16
 360 -336 360 -336 461 -358 c 1,17,-1
 440 -442 l 1,18,19
 245 -422 245 -422 143 -345 c 128,-1,20
 41 -268 41 -268 41 -147 c 0,21,22
 41 -87 41 -87 62 -29 c 128,-1,23
 83 29 83 29 133 126 c 0,24,25
 197 252 197 252 197 299 c 0,26,27
 197 435 197 435 25 453 c 1,28,-1
 41 530 l 1,29,30
 182 541 182 541 261 618.5 c 128,-1,31
 340 696 340 696 340 819 c 0,32,33
 340 1375 340 1375 975 1421 c 1,0,-1
EndSplineSet
EndChar
StartChar: bar
Encoding: 124 124 95
Width: 451
Flags: W
Fore
313 -442 m 1,0,-1
 182 -442 l 1,1,-1
 182 1421 l 1,2,-1
 313 1421 l 1,3,-1
 313 -442 l 1,0,-1
EndSplineSet
EndChar
StartChar: braceright
Encoding: 125 125 96
Width: 713
Flags: W
Fore
690 526 m 1,0,-1
 674 449 l 1,1,2
 533 438 533 438 454 360.5 c 128,-1,3
 375 283 375 283 375 160 c 0,4,5
 375 -396 375 -396 -260 -442 c 1,6,-1
 -240 -358 l 1,7,8
 66 -327 66 -327 66 -8 c 0,9,10
 66 205 66 205 180 316 c 128,-1,11
 294 427 294 427 469 483 c 1,12,-1
 469 487 l 1,13,14
 377 525 377 525 324.5 594.5 c 128,-1,15
 272 664 272 664 272 748 c 0,16,17
 272 819 272 819 346 979 c 0,18,19
 422 1134 422 1134 422 1200 c 0,20,21
 422 1254 422 1254 388 1284.5 c 128,-1,22
 354 1315 354 1315 254 1337 c 1,23,-1
 274 1421 l 1,24,25
 470 1401 470 1401 572 1324 c 128,-1,26
 674 1247 674 1247 674 1126 c 0,27,28
 674 1065 674 1065 652.5 1007.5 c 128,-1,29
 631 950 631 950 582 853 c 0,30,31
 518 727 518 727 518 680 c 0,32,33
 518 544 518 544 690 526 c 1,0,-1
EndSplineSet
EndChar
StartChar: asciitilde
Encoding: 126 126 97
Width: 1167
Flags: W
Fore
1130 852 m 1,0,1
 1130 710 1130 710 1054.5 605 c 128,-1,2
 979 500 979 500 858 500 c 0,3,4
 773 500 773 500 600 571 c 0,5,6
 438 641 438 641 371 641 c 0,7,8
 238 641 238 641 207 500 c 1,9,-1
 143 500 l 1,10,11
 143 641 143 641 219 746.5 c 128,-1,12
 295 852 295 852 416 852 c 0,13,14
 501 852 501 852 674 780 c 0,15,16
 836 711 836 711 903 711 c 0,17,18
 1036 711 1036 711 1067 852 c 1,19,-1
 1130 852 l 1,0,1
EndSplineSet
EndChar
StartChar: Aring
Encoding: 197 197 99
Width: 1366
Flags: W
Fore
795 528 m 1,0,-1
 717 1010 l 1,1,-1
 412 528 l 1,2,-1
 795 528 l 1,0,-1
1143 176 m 2,3,4
 1154 115 1154 115 1192 91.5 c 128,-1,5
 1230 68 1230 68 1313 68 c 1,6,-1
 1294 0 l 1,7,-1
 647 0 l 1,8,-1
 666 68 l 1,9,10
 765 68 765 68 808.5 88 c 128,-1,11
 852 108 852 108 852 163 c 0,12,13
 852 180 852 180 813 424 c 1,14,-1
 346 424 l 1,15,16
 211 211 211 211 199.5 189 c 128,-1,17
 188 167 188 167 188 133 c 0,18,19
 188 68 188 68 307 68 c 1,20,-1
 289 0 l 1,21,-1
 -152 0 l 1,22,-1
 -133 68 l 1,23,24
 -50 68 -50 68 -3.5 105 c 128,-1,25
 43 142 43 142 98 227 c 2,26,-1
 807 1325 l 1,27,28
 747 1350 747 1350 712.5 1403 c 128,-1,29
 678 1456 678 1456 678 1520 c 0,30,31
 678 1607 678 1607 740 1669 c 128,-1,32
 802 1731 802 1731 889 1731 c 0,33,34
 976 1731 976 1731 1038 1669 c 128,-1,35
 1100 1607 1100 1607 1100 1520 c 0,36,37
 1100 1451 1100 1451 1058 1394 c 128,-1,38
 1016 1337 1016 1337 946 1317 c 1,39,-1
 1143 176 l 2,3,4
889 1386 m 0,40,41
 942 1386 942 1386 982 1426 c 128,-1,42
 1022 1466 1022 1466 1022 1520 c 0,43,44
 1022 1573 1022 1573 982 1613 c 128,-1,45
 942 1653 942 1653 889 1653 c 0,46,47
 835 1653 835 1653 795.5 1613 c 128,-1,48
 756 1573 756 1573 756 1520 c 0,49,50
 756 1466 756 1466 795.5 1426 c 128,-1,51
 835 1386 835 1386 889 1386 c 0,40,41
EndSplineSet
EndChar
StartChar: Ccedilla
Encoding: 199 199 100
Width: 1366
Flags: W
Fore
623 -29 m 1,0,1
 380 -8 380 -8 247.5 141 c 128,-1,2
 115 290 115 290 115 528 c 0,3,4
 115 748 115 748 236.5 949.5 c 128,-1,5
 358 1151 358 1151 569 1268.5 c 128,-1,6
 780 1386 780 1386 1030 1386 c 0,7,8
 1139 1386 1139 1386 1258 1350 c 0,9,10
 1321 1331 1321 1331 1352 1331 c 0,11,12
 1393 1331 1393 1331 1417 1386 c 1,13,-1
 1483 1386 l 1,14,-1
 1376 934 l 1,15,-1
 1315 934 l 1,16,17
 1315 1122 1315 1122 1247.5 1207 c 128,-1,18
 1180 1292 1180 1292 1024 1292 c 0,19,20
 780 1292 780 1292 605 1051 c 128,-1,21
 430 810 430 810 430 506 c 0,22,23
 430 318 430 318 514 213.5 c 128,-1,24
 598 109 598 109 750 109 c 0,25,26
 1023 109 1023 109 1192 332 c 1,27,-1
 1253 289 l 1,28,29
 1061 -22 1061 -22 702 -31 c 1,30,-1
 670 -96 l 1,31,32
 714 -86 714 -86 756 -86 c 0,33,34
 810 -86 810 -86 846.5 -120 c 128,-1,35
 883 -154 883 -154 883 -199 c 0,36,37
 883 -285 883 -285 786 -345.5 c 128,-1,38
 689 -406 689 -406 516 -406 c 0,39,40
 440 -406 440 -406 375 -389 c 1,41,-1
 401 -330 l 1,42,43
 437 -342 437 -342 510 -342 c 0,44,45
 575 -342 575 -342 618.5 -311 c 128,-1,46
 662 -280 662 -280 662 -227 c 0,47,48
 662 -201 662 -201 641.5 -184.5 c 128,-1,49
 621 -168 621 -168 596 -168 c 0,50,51
 576 -168 576 -168 547 -174 c 1,52,-1
 623 -29 l 1,0,1
EndSplineSet
EndChar
StartChar: ccedilla
Encoding: 231 231 111
Width: 909
Flags: W
Fore
315 -27 m 1,0,1
 191 -9 191 -9 120 72.5 c 128,-1,2
 49 154 49 154 49 274 c 0,3,4
 49 543 49 543 215 754 c 128,-1,5
 381 965 381 965 647 965 c 0,6,7
 768 965 768 965 836.5 910 c 128,-1,8
 905 855 905 855 905 774 c 0,9,10
 905 719 905 719 878.5 684 c 128,-1,11
 852 649 852 649 801 649 c 0,12,13
 706 649 706 649 686 780 c 0,14,15
 677 837 677 837 659.5 857 c 128,-1,16
 642 877 642 877 608 877 c 0,17,18
 517 877 517 877 428.5 661.5 c 128,-1,19
 340 446 340 446 340 252 c 0,20,21
 340 190 340 190 373.5 155.5 c 128,-1,22
 407 121 407 121 465 121 c 0,23,24
 605 121 605 121 762 252 c 1,25,-1
 805 193 l 1,26,27
 635 -14 635 -14 397 -29 c 1,28,-1
 362 -96 l 1,29,30
 407 -86 407 -86 449 -86 c 0,31,32
 503 -86 503 -86 539 -120 c 128,-1,33
 575 -154 575 -154 575 -199 c 0,34,35
 575 -287 575 -287 476.5 -346.5 c 128,-1,36
 378 -406 378 -406 209 -406 c 0,37,38
 133 -406 133 -406 68 -389 c 1,39,-1
 94 -330 l 1,40,41
 129 -342 129 -342 203 -342 c 0,42,43
 267 -342 267 -342 310.5 -311 c 128,-1,44
 354 -280 354 -280 354 -227 c 0,45,46
 354 -201 354 -201 334 -184.5 c 128,-1,47
 314 -168 314 -168 289 -168 c 0,48,49
 269 -168 269 -168 240 -174 c 1,50,-1
 315 -27 l 1,0,1
EndSplineSet
EndChar
StartChar: dagger
Encoding: 8224 8224 130
Width: 1024
Flags: W
Fore
657 901 m 1,0,1
 716 901 716 901 803 958 c 0,2,3
 892 1016 892 1016 954 1016 c 0,4,5
 1000 1016 1000 1016 1039.5 981 c 128,-1,6
 1079 946 1079 946 1079 895 c 0,7,8
 1079 836 1079 836 1038 788.5 c 128,-1,9
 997 741 997 741 930 741 c 0,10,11
 884 741 884 741 796 793 c 0,12,13
 701 848 701 848 647 848 c 1,14,15
 647 804 647 804 673 738 c 0,16,17
 702 665 702 665 702 612 c 0,18,19
 702 593 702 593 669 535 c 0,20,21
 490 223 490 223 287 -403 c 1,22,-1
 225 -403 l 1,23,24
 401 153 401 153 401 596 c 0,25,26
 401 625 401 625 419.5 658 c 128,-1,27
 438 691 438 691 505 752 c 0,28,29
 578 818 578 818 586 848 c 1,30,31
 540 848 540 848 445 795 c 0,32,33
 351 741 351 741 305 741 c 0,34,35
 260 741 260 741 220 776 c 128,-1,36
 180 811 180 811 180 862 c 0,37,38
 180 922 180 922 221 969 c 128,-1,39
 262 1016 262 1016 330 1016 c 0,40,41
 383 1016 383 1016 467 957 c 0,42,43
 548 901 548 901 596 901 c 1,44,45
 599 922 599 922 599 951 c 0,46,47
 599 989 599 989 592 1073 c 0,48,49
 586 1147 586 1147 586 1176 c 0,50,51
 586 1275 586 1275 633.5 1330.5 c 128,-1,52
 681 1386 681 1386 760 1386 c 0,53,54
 809 1386 809 1386 839.5 1353.5 c 128,-1,55
 870 1321 870 1321 870 1268 c 0,56,57
 870 1234 870 1234 851 1191.5 c 128,-1,58
 832 1149 832 1149 759 1060 c 0,59,60
 669 951 669 951 657 901 c 1,0,1
EndSplineSet
EndChar
StartChar: degree
Encoding: 176 176 131
Width: 819
Flags: W
Fore
514 1386 m 0,0,1
 649 1386 649 1386 745.5 1289.5 c 128,-1,2
 842 1193 842 1193 842 1059 c 0,3,4
 842 924 842 924 745.5 827.5 c 128,-1,5
 649 731 649 731 514 731 c 0,6,7
 380 731 380 731 283 827.5 c 128,-1,8
 186 924 186 924 186 1059 c 0,9,10
 186 1194 186 1194 282.5 1290 c 128,-1,11
 379 1386 379 1386 514 1386 c 0,0,1
514 854 m 0,12,13
 598 854 598 854 658.5 914.5 c 128,-1,14
 719 975 719 975 719 1059 c 0,15,16
 719 1143 719 1143 658.5 1203.5 c 128,-1,17
 598 1264 598 1264 514 1264 c 0,18,19
 430 1264 430 1264 369.5 1203.5 c 128,-1,20
 309 1143 309 1143 309 1059 c 0,21,22
 309 975 309 975 369.5 914.5 c 128,-1,23
 430 854 430 854 514 854 c 0,12,13
EndSplineSet
EndChar
StartChar: cent
Encoding: 162 162 132
Width: 1024
Flags: W
Fore
758 961 m 1,0,1
 857 948 857 948 910 896 c 128,-1,2
 963 844 963 844 963 774 c 0,3,4
 963 719 963 719 936.5 684 c 128,-1,5
 910 649 910 649 858 649 c 0,6,7
 764 649 764 649 743 780 c 0,8,9
 737 822 737 822 725 846 c 1,10,-1
 516 121 l 1,11,-1
 522 121 l 2,12,13
 662 121 662 121 819 252 c 1,14,-1
 862 193 l 1,15,16
 700 -7 700 -7 473 -27 c 1,17,-1
 373 -379 l 1,18,-1
 291 -379 l 1,19,-1
 391 -27 l 1,20,21
 259 -17 259 -17 182.5 66 c 128,-1,22
 106 149 106 149 106 274 c 0,23,24
 106 527 106 527 259 737 c 128,-1,25
 412 947 412 947 676 963 c 1,26,-1
 780 1325 l 1,27,-1
 862 1325 l 1,28,-1
 758 961 l 1,0,1
651 874 m 1,29,30
 555 848 555 848 476 637.5 c 128,-1,31
 397 427 397 427 397 252 c 0,32,33
 397 182 397 182 440 145 c 1,34,-1
 651 874 l 1,29,30
EndSplineSet
EndChar
StartChar: sterling
Encoding: 163 163 133
Width: 1024
Flags: W
Fore
1169 1386 m 1,0,-1
 1057 997 l 1,1,-1
 989 997 l 1,2,3
 999 1054 999 1054 999 1101 c 0,4,5
 999 1292 999 1292 838 1292 c 0,6,7
 710 1292 710 1292 623.5 1167 c 128,-1,8
 537 1042 537 1042 537 881 c 0,9,10
 537 879 537 879 543 737 c 1,11,-1
 768 737 l 1,12,-1
 739 635 l 1,13,-1
 549 635 l 1,14,15
 551 622 551 622 551 592 c 0,16,17
 551 369 551 369 250 188 c 1,18,19
 319 213 319 213 401 213 c 0,20,21
 457 213 457 213 576 195 c 0,22,23
 655 182 655 182 680 182 c 0,24,25
 813 182 813 182 883 309 c 1,26,-1
 928 285 l 1,27,28
 869 143 869 143 757 56 c 128,-1,29
 645 -31 645 -31 522 -31 c 0,30,31
 446 -31 446 -31 310 9 c 0,32,33
 202 41 202 41 154 41 c 0,34,35
 85 41 85 41 5 -13 c 0,36,37
 -14 -26 -14 -26 -23 -31 c 1,38,-1
 -55 23 l 1,39,40
 141 158 141 158 212 261 c 128,-1,41
 283 364 283 364 283 504 c 0,42,43
 283 543 283 543 274 635 c 1,44,-1
 88 635 l 1,45,-1
 117 737 l 1,46,-1
 264 737 l 1,47,48
 260 797 260 797 260 834 c 0,49,50
 260 1054 260 1054 412.5 1220 c 128,-1,51
 565 1386 565 1386 827 1386 c 0,52,53
 907 1386 907 1386 987 1358 c 0,54,55
 1028 1343 1028 1343 1049 1343 c 0,56,57
 1089 1343 1089 1343 1102 1386 c 1,58,-1
 1169 1386 l 1,0,-1
EndSplineSet
EndChar
StartChar: section
Encoding: 167 167 134
Width: 1024
Flags: W
Fore
416 825 m 1,0,1
 357 887 357 887 331 941 c 128,-1,2
 305 995 305 995 305 1083 c 0,3,4
 305 1214 305 1214 418 1300 c 128,-1,5
 531 1386 531 1386 686 1386 c 0,6,7
 842 1386 842 1386 949.5 1324.5 c 128,-1,8
 1057 1263 1057 1263 1057 1169 c 0,9,10
 1057 1071 1057 1071 969 1071 c 0,11,12
 880 1071 880 1071 848 1192 c 0,13,14
 835 1239 835 1239 789 1272 c 128,-1,15
 743 1305 743 1305 686 1305 c 0,16,17
 616 1305 616 1305 575.5 1266 c 128,-1,18
 535 1227 535 1227 535 1159 c 0,19,20
 535 1105 535 1105 565.5 1048 c 128,-1,21
 596 991 596 991 720 885 c 0,22,23
 876 752 876 752 918.5 663 c 128,-1,24
 961 574 961 574 961 485 c 0,25,26
 961 381 961 381 875 291 c 128,-1,27
 789 201 789 201 649 170 c 1,28,29
 708 108 708 108 734 54 c 128,-1,30
 760 0 760 0 760 -88 c 0,31,32
 760 -219 760 -219 647 -305 c 128,-1,33
 534 -391 534 -391 379 -391 c 0,34,35
 212 -391 212 -391 100 -329.5 c 128,-1,36
 -12 -268 -12 -268 -12 -174 c 0,37,38
 -12 -132 -12 -132 13 -104 c 128,-1,39
 38 -76 38 -76 78 -76 c 0,40,41
 164 -76 164 -76 199 -195 c 0,42,43
 214 -248 214 -248 262 -278.5 c 128,-1,44
 310 -309 310 -309 371 -309 c 0,45,46
 446 -309 446 -309 488 -271 c 128,-1,47
 530 -233 530 -233 530 -164 c 0,48,49
 530 -109 530 -109 499.5 -52 c 128,-1,50
 469 5 469 5 345 110 c 0,51,52
 188 244 188 244 146 332.5 c 128,-1,53
 104 421 104 421 104 510 c 0,54,55
 104 615 104 615 190 704.5 c 128,-1,56
 276 794 276 794 416 825 c 1,0,1
592 225 m 1,57,58
 663 250 663 250 697 293.5 c 128,-1,59
 731 337 731 337 731 420 c 0,60,61
 731 498 731 498 665.5 583 c 128,-1,62
 600 668 600 668 473 770 c 1,63,64
 334 720 334 720 334 575 c 0,65,66
 334 498 334 498 399.5 412.5 c 128,-1,67
 465 327 465 327 592 225 c 1,57,58
EndSplineSet
EndChar
StartChar: bullet
Encoding: 8226 8226 135
Width: 717
Flags: W
Fore
410 944 m 0,0,1
 518 944 518 944 597 865 c 128,-1,2
 676 786 676 786 676 678 c 0,3,4
 676 569 676 569 597 490.5 c 128,-1,5
 518 412 518 412 410 412 c 0,6,7
 301 412 301 412 222 490.5 c 128,-1,8
 143 569 143 569 143 678 c 0,9,10
 143 786 143 786 222 865 c 128,-1,11
 301 944 301 944 410 944 c 0,0,1
EndSplineSet
EndChar
StartChar: paragraph
Encoding: 182 182 136
Width: 1024
Flags: W
Fore
1141 1278 m 1,0,-1
 975 1278 l 1,1,-1
 975 -360 l 1,2,-1
 874 -360 l 1,3,-1
 874 1278 l 1,4,-1
 717 1278 l 1,5,-1
 717 -360 l 1,6,-1
 616 -360 l 1,7,-1
 616 434 l 1,8,9
 396 434 396 434 270.5 555.5 c 128,-1,10
 145 677 145 677 145 901 c 0,11,12
 145 1122 145 1122 272 1239 c 128,-1,13
 399 1356 399 1356 604 1356 c 2,14,-1
 1141 1356 l 1,15,-1
 1141 1278 l 1,0,-1
EndSplineSet
EndChar
StartChar: germandbls
Encoding: 223 223 137
Width: 1024
Flags: W
Fore
289 68 m 1,0,1
 104 -422 104 -422 -236 -422 c 0,2,3
 -338 -422 -338 -422 -410.5 -364 c 128,-1,4
 -483 -306 -483 -306 -483 -238 c 0,5,6
 -483 -192 -483 -192 -455 -157.5 c 128,-1,7
 -427 -123 -427 -123 -387 -123 c 0,8,9
 -342 -123 -342 -123 -307.5 -153.5 c 128,-1,10
 -273 -184 -273 -184 -260 -233 c 0,11,12
 -235 -330 -235 -330 -188 -330 c 0,13,14
 -131 -330 -131 -330 -90 -259.5 c 128,-1,15
 -49 -189 -49 -189 -6 -33 c 2,16,-1
 293 1061 l 2,17,18
 333 1210 333 1210 474 1315.5 c 128,-1,19
 615 1421 615 1421 788 1421 c 0,20,21
 913 1421 913 1421 997 1341 c 128,-1,22
 1081 1261 1081 1261 1081 1151 c 0,23,24
 1081 1027 1081 1027 972 916 c 128,-1,25
 863 805 863 805 696 791 c 1,26,-1
 696 786 l 1,27,28
 817 777 817 777 894 680.5 c 128,-1,29
 971 584 971 584 971 483 c 0,30,31
 971 275 971 275 817.5 130.5 c 128,-1,32
 664 -14 664 -14 483 -14 c 0,33,34
 345 -14 345 -14 289 68 c 1,0,1
588 836 m 1,35,36
 692 836 692 836 759.5 956 c 128,-1,37
 827 1076 827 1076 827 1202 c 0,38,39
 827 1262 827 1262 801 1295.5 c 128,-1,40
 775 1329 775 1329 735 1329 c 0,41,42
 684 1329 684 1329 649 1281.5 c 128,-1,43
 614 1234 614 1234 584 1124 c 2,44,-1
 336 217 l 1,45,46
 342 219 342 219 354 219 c 0,47,48
 429 219 429 219 459 139 c 0,49,50
 482 80 482 80 518 80 c 0,51,52
 595 80 595 80 650 213 c 128,-1,53
 705 346 705 346 705 518 c 0,54,55
 705 730 705 730 573 762 c 1,56,-1
 588 836 l 1,35,36
EndSplineSet
EndChar
StartChar: registered
Encoding: 174 174 138
Width: 1530
Flags: W
Fore
787 1386 m 0,0,1
 1079 1386 1079 1386 1287.5 1178 c 128,-1,2
 1496 970 1496 970 1496 678 c 0,3,4
 1496 386 1496 386 1287.5 177.5 c 128,-1,5
 1079 -31 1079 -31 787 -31 c 0,6,7
 495 -31 495 -31 286.5 177.5 c 128,-1,8
 78 386 78 386 78 678 c 0,9,10
 78 970 78 970 286.5 1178 c 128,-1,11
 495 1386 495 1386 787 1386 c 0,0,1
787 57 m 0,12,13
 1042 57 1042 57 1224.5 240 c 128,-1,14
 1407 423 1407 423 1407 678 c 0,15,16
 1407 933 1407 933 1224.5 1115.5 c 128,-1,17
 1042 1298 1042 1298 787 1298 c 0,18,19
 532 1298 532 1298 349 1115.5 c 128,-1,20
 166 933 166 933 166 678 c 0,21,22
 166 423 166 423 349 240 c 128,-1,23
 532 57 532 57 787 57 c 0,12,13
1227 283 m 1,24,25
 1186 266 1186 266 1086 266 c 0,26,27
 999 266 999 266 925.5 322.5 c 128,-1,28
 852 379 852 379 744 627 c 1,29,-1
 693 627 l 1,30,-1
 693 444 l 2,31,32
 693 365 693 365 712.5 347.5 c 128,-1,33
 732 330 732 330 809 330 c 1,34,-1
 809 279 l 1,35,-1
 386 279 l 1,36,-1
 386 330 l 1,37,38
 456 330 456 330 472 348.5 c 128,-1,39
 488 367 488 367 488 444 c 2,40,-1
 488 926 l 2,41,42
 488 1004 488 1004 472.5 1022 c 128,-1,43
 457 1040 457 1040 386 1040 c 1,44,-1
 386 1092 l 1,45,-1
 771 1092 l 2,46,47
 932 1092 932 1092 1023.5 1032.5 c 128,-1,48
 1115 973 1115 973 1115 866 c 0,49,50
 1115 780 1115 780 1077 728.5 c 128,-1,51
 1039 677 1039 677 949 649 c 1,52,53
 1110 328 1110 328 1186 328 c 0,54,55
 1207 328 1207 328 1227 334 c 1,56,-1
 1227 283 l 1,24,25
693 686 m 1,57,-1
 730 686 l 2,58,59
 829 686 829 686 870.5 726.5 c 128,-1,60
 912 767 912 767 912 866 c 0,61,62
 912 945 912 945 867 985.5 c 128,-1,63
 822 1026 822 1026 752 1026 c 0,64,65
 719 1026 719 1026 693 1016 c 1,66,-1
 693 686 l 1,57,-1
EndSplineSet
EndChar
StartChar: copyright
Encoding: 169 169 139
Width: 1530
Flags: W
Fore
787 1386 m 0,0,1
 1079 1386 1079 1386 1287.5 1178 c 128,-1,2
 1496 970 1496 970 1496 678 c 0,3,4
 1496 386 1496 386 1287.5 177.5 c 128,-1,5
 1079 -31 1079 -31 787 -31 c 0,6,7
 495 -31 495 -31 286.5 177.5 c 128,-1,8
 78 386 78 386 78 678 c 0,9,10
 78 970 78 970 286.5 1178 c 128,-1,11
 495 1386 495 1386 787 1386 c 0,0,1
787 57 m 0,12,13
 1042 57 1042 57 1224.5 240 c 128,-1,14
 1407 423 1407 423 1407 678 c 0,15,16
 1407 933 1407 933 1224.5 1115.5 c 128,-1,17
 1042 1298 1042 1298 787 1298 c 0,18,19
 532 1298 532 1298 349 1115.5 c 128,-1,20
 166 933 166 933 166 678 c 0,21,22
 166 423 166 423 349 240 c 128,-1,23
 532 57 532 57 787 57 c 0,12,13
1147 432 m 1,24,25
 1000 266 1000 266 787 266 c 0,26,27
 605 266 605 266 483 388 c 128,-1,28
 361 510 361 510 361 692 c 0,29,30
 361 874 361 874 488 996 c 128,-1,31
 615 1118 615 1118 809 1118 c 0,32,33
 884 1118 884 1118 987 1091 c 0,34,35
 1016 1083 1016 1083 1022 1083 c 0,36,37
 1050 1083 1050 1083 1053 1118 c 1,38,-1
 1104 1118 l 1,39,-1
 1104 870 l 1,40,-1
 1053 870 l 1,41,42
 1016 1040 1016 1040 814 1040 c 0,43,44
 717 1040 717 1040 650.5 951 c 128,-1,45
 584 862 584 862 584 694 c 0,46,47
 584 534 584 534 655 446 c 128,-1,48
 726 358 726 358 834 358 c 0,49,50
 980 358 980 358 1115 483 c 1,51,-1
 1147 432 l 1,24,25
EndSplineSet
EndChar
StartChar: trademark
Encoding: 8482 8482 140
Width: 2048
Flags: W
Fore
2155 543 m 1,0,-1
 1716 543 l 1,1,-1
 1716 594 l 1,2,3
 1801 594 1801 594 1817 611.5 c 128,-1,4
 1833 629 1833 629 1833 709 c 2,5,-1
 1833 1206 l 1,6,-1
 1481 543 l 1,7,-1
 1430 543 l 1,8,-1
 1149 1188 l 1,9,-1
 1149 709 l 2,10,11
 1149 629 1149 629 1165 611.5 c 128,-1,12
 1181 594 1181 594 1266 594 c 1,13,-1
 1266 543 l 1,14,-1
 959 543 l 1,15,-1
 959 594 l 1,16,17
 1043 594 1043 594 1059 611.5 c 128,-1,18
 1075 629 1075 629 1075 709 c 2,19,-1
 1075 1192 l 2,20,21
 1075 1267 1075 1267 1055.5 1287 c 128,-1,22
 1036 1307 1036 1307 959 1307 c 1,23,-1
 959 1356 l 1,24,-1
 1299 1356 l 1,25,-1
 1536 805 l 1,26,-1
 1829 1356 l 1,27,-1
 2155 1356 l 1,28,-1
 2155 1307 l 1,29,30
 2070 1307 2070 1307 2054 1289 c 128,-1,31
 2038 1271 2038 1271 2038 1190 c 2,32,-1
 2038 709 l 2,33,34
 2038 629 2038 629 2054 611.5 c 128,-1,35
 2070 594 2070 594 2155 594 c 1,36,-1
 2155 543 l 1,0,-1
873 1120 m 1,37,-1
 821 1120 l 1,38,39
 821 1282 821 1282 700 1282 c 2,40,-1
 584 1282 l 1,41,-1
 584 709 l 2,42,43
 584 630 584 630 601.5 612 c 128,-1,44
 619 594 619 594 700 594 c 1,45,-1
 700 543 l 1,46,-1
 262 543 l 1,47,-1
 262 594 l 1,48,49
 344 594 344 594 361.5 612 c 128,-1,50
 379 630 379 630 379 709 c 2,51,-1
 379 1282 l 1,52,-1
 262 1282 l 2,53,54
 141 1282 141 1282 141 1120 c 1,55,-1
 90 1120 l 1,56,-1
 90 1356 l 1,57,-1
 873 1356 l 1,58,-1
 873 1120 l 1,37,-1
EndSplineSet
Ligature: 0 3 'liga' T M
EndChar
StartChar: acute
Encoding: 180 180 141
Width: 682
Flags: W
Fore
862 1348 m 1,0,-1
 522 1051 l 1,1,-1
 426 1051 l 1,2,-1
 571 1348 l 1,3,-1
 862 1348 l 1,0,-1
EndSplineSet
EndChar
StartChar: dieresis
Encoding: 168 168 142
Width: 682
Flags: W
Fore
739 1341 m 0,0,1
 794 1341 794 1341 833 1302 c 128,-1,2
 872 1263 872 1263 872 1208 c 0,3,4
 872 1153 872 1153 833.5 1114 c 128,-1,5
 795 1075 795 1075 739 1075 c 0,6,7
 684 1075 684 1075 645 1114 c 128,-1,8
 606 1153 606 1153 606 1208 c 0,9,10
 606 1263 606 1263 645 1302 c 128,-1,11
 684 1341 684 1341 739 1341 c 0,0,1
365 1341 m 0,12,13
 420 1341 420 1341 459 1302 c 128,-1,14
 498 1263 498 1263 498 1208 c 0,15,16
 498 1153 498 1153 459 1114 c 128,-1,17
 420 1075 420 1075 365 1075 c 0,18,19
 310 1075 310 1075 270.5 1114 c 128,-1,20
 231 1153 231 1153 231 1208 c 0,21,22
 231 1263 231 1263 270.5 1302 c 128,-1,23
 310 1341 310 1341 365 1341 c 0,12,13
EndSplineSet
EndChar
StartChar: notequal
Encoding: 8800 8800 143
Width: 1124
Flags: W
Fore
1087 289 m 1,0,-1
 485 289 l 1,1,-1
 322 0 l 1,2,-1
 211 0 l 1,3,-1
 377 289 l 1,4,-1
 37 289 l 1,5,-1
 37 385 l 1,6,-1
 430 385 l 1,7,-1
 588 664 l 1,8,-1
 37 664 l 1,9,-1
 37 760 l 1,10,-1
 641 760 l 1,11,-1
 805 1051 l 1,12,-1
 913 1051 l 1,13,-1
 750 760 l 1,14,-1
 1087 760 l 1,15,-1
 1087 664 l 1,16,-1
 696 664 l 1,17,-1
 541 385 l 1,18,-1
 1087 385 l 1,19,-1
 1087 289 l 1,0,-1
EndSplineSet
EndChar
StartChar: AE
Encoding: 198 198 144
Width: 1933
Flags: W
Fore
2017 1356 m 1,0,-1
 1921 1020 l 1,1,-1
 1853 1020 l 1,2,3
 1876 1098 1876 1098 1876 1143 c 0,4,5
 1876 1203 1876 1203 1833 1227 c 128,-1,6
 1790 1251 1790 1251 1661 1251 c 2,7,-1
 1354 1251 l 1,8,-1
 1214 762 l 1,9,-1
 1423 762 l 2,10,11
 1516 762 1516 762 1554 771 c 128,-1,12
 1592 780 1592 780 1616.5 816.5 c 128,-1,13
 1641 853 1641 853 1667 946 c 1,14,-1
 1735 946 l 1,15,-1
 1599 471 l 1,16,-1
 1532 471 l 1,17,18
 1556 554 1556 554 1556 594 c 0,19,20
 1556 636 1556 636 1522 646.5 c 128,-1,21
 1488 657 1488 657 1393 657 c 2,22,-1
 1184 657 l 1,23,-1
 1091 332 l 2,24,25
 1050 191 1050 191 1047.5 178.5 c 128,-1,26
 1045 166 1045 166 1045 154 c 0,27,28
 1045 125 1045 125 1066 114.5 c 128,-1,29
 1087 104 1087 104 1137 104 c 2,30,-1
 1374 104 l 2,31,32
 1644 104 1644 104 1726 391 c 1,33,-1
 1794 391 l 1,34,-1
 1681 0 l 1,35,-1
 522 0 l 1,36,-1
 539 68 l 1,37,38
 636 68 636 68 674.5 87 c 128,-1,39
 713 106 713 106 732 154.5 c 128,-1,40
 751 203 751 203 815 424 c 1,41,-1
 406 424 l 1,42,43
 236 208 236 208 216.5 182 c 128,-1,44
 197 156 197 156 197 133 c 0,45,46
 197 68 197 68 315 68 c 1,47,-1
 297 0 l 1,48,-1
 -152 0 l 1,49,-1
 -133 68 l 1,50,51
 -73 68 -73 68 -16.5 97.5 c 128,-1,52
 40 127 40 127 119 227 c 2,53,-1
 864 1174 l 2,54,55
 903 1225 903 1225 903 1245 c 0,56,57
 903 1288 903 1288 776 1288 c 1,58,-1
 793 1356 l 1,59,-1
 2017 1356 l 1,0,-1
1053 1251 m 1,60,-1
 485 528 l 1,61,-1
 844 528 l 1,62,-1
 1053 1251 l 1,60,-1
EndSplineSet
EndChar
StartChar: Oslash
Encoding: 216 216 145
Width: 1479
Flags: W
Fore
1343 1245 m 1,0,1
 1475 1109 1475 1109 1475 928 c 0,2,3
 1475 722 1475 722 1354 487.5 c 128,-1,4
 1233 253 1233 253 1030 111 c 128,-1,5
 827 -31 827 -31 586 -31 c 0,6,7
 414 -31 414 -31 299 49 c 1,8,-1
 193 -72 l 1,9,-1
 131 -16 l 1,10,-1
 238 104 l 1,11,12
 173 176 173 176 143 270 c 128,-1,13
 113 364 113 364 113 451 c 0,14,15
 113 671 113 671 242 893 c 128,-1,16
 371 1115 371 1115 580 1250.5 c 128,-1,17
 789 1386 789 1386 1006 1386 c 0,18,19
 1155 1386 1155 1386 1280 1298 c 1,20,-1
 1393 1427 l 1,21,-1
 1454 1372 l 1,22,-1
 1343 1245 l 1,0,1
1145 1145 m 1,23,24
 1111 1290 1111 1290 969 1290 c 0,25,26
 762 1290 762 1290 614 1002 c 128,-1,27
 466 714 466 714 430 326 c 1,28,-1
 1145 1145 l 1,23,24
1157 1032 m 1,29,-1
 440 213 l 1,30,31
 477 66 477 66 629 66 c 0,32,33
 823 66 823 66 979.5 377.5 c 128,-1,34
 1136 689 1136 689 1157 1032 c 1,29,-1
EndSplineSet
EndChar
StartChar: infinity
Encoding: 8734 8734 146
Width: 1460
Flags: W
Fore
1407 526 m 0,0,1
 1407 340 1407 340 1292 219 c 0,2,3
 1242 166 1242 166 1180.5 136 c 128,-1,4
 1119 106 1119 106 1057 106 c 0,5,6
 997 106 997 106 945 131 c 128,-1,7
 893 156 893 156 843.5 211 c 128,-1,8
 794 266 794 266 745 350 c 2,9,-1
 721 393 l 1,10,11
 677 310 677 310 630.5 258.5 c 128,-1,12
 584 207 584 207 527.5 183.5 c 128,-1,13
 471 160 471 160 397 160 c 0,14,15
 297 160 297 160 219.5 207 c 128,-1,16
 142 254 142 254 97.5 339 c 128,-1,17
 53 424 53 424 53 528 c 0,18,19
 53 630 53 630 93.5 714.5 c 128,-1,20
 134 799 134 799 204 847 c 128,-1,21
 274 895 274 895 360 895 c 0,22,23
 472 895 472 895 543 827 c 0,24,25
 597 773 597 773 653 668 c 1,26,27
 701 776 701 776 748 834 c 0,28,29
 843 944 843 944 1024 944 c 0,30,31
 1096 944 1096 944 1152 924.5 c 128,-1,32
 1208 905 1208 905 1262 860 c 0,33,34
 1407 736 1407 736 1407 526 c 0,0,1
1350 526 m 0,35,36
 1350 616 1350 616 1312 695.5 c 128,-1,37
 1274 775 1274 775 1208 820.5 c 128,-1,38
 1142 866 1142 866 1067 866 c 0,39,40
 963 866 963 866 895 782 c 0,41,42
 866 746 866 746 840.5 690 c 128,-1,43
 815 634 815 634 762 494 c 2,44,-1
 750 465 l 1,45,46
 799 364 799 364 843 308.5 c 128,-1,47
 887 253 887 253 940.5 227 c 128,-1,48
 994 201 994 201 1061 201 c 0,49,50
 1144 201 1144 201 1210 242.5 c 128,-1,51
 1276 284 1276 284 1313 358 c 128,-1,52
 1350 432 1350 432 1350 526 c 0,35,36
625 590 m 1,53,54
 587 670 587 670 550 715 c 128,-1,55
 513 760 513 760 465.5 782.5 c 128,-1,56
 418 805 418 805 358 805 c 0,57,58
 284 805 284 805 228 770 c 128,-1,59
 172 735 172 735 140.5 673 c 128,-1,60
 109 611 109 611 109 530 c 0,61,62
 109 451 109 451 139.5 383 c 128,-1,63
 170 315 170 315 222.5 276.5 c 128,-1,64
 275 238 275 238 338 238 c 0,65,66
 398 238 398 238 453 274.5 c 128,-1,67
 508 311 508 311 537 367 c 0,68,69
 576 444 576 444 614 557 c 2,70,-1
 625 590 l 1,53,54
EndSplineSet
EndChar
StartChar: plusminus
Encoding: 177 177 147
Width: 1124
Flags: W
Fore
1165 131 m 1,0,-1
 71 131 l 1,1,-1
 71 262 l 1,2,-1
 552 262 l 1,3,-1
 552 612 l 1,4,-1
 71 612 l 1,5,-1
 71 743 l 1,6,-1
 552 743 l 1,7,-1
 552 1225 l 1,8,-1
 684 1225 l 1,9,-1
 684 743 l 1,10,-1
 1165 743 l 1,11,-1
 1165 612 l 1,12,-1
 684 612 l 1,13,-1
 684 262 l 1,14,-1
 1165 262 l 1,15,-1
 1165 131 l 1,0,-1
EndSplineSet
EndChar
StartChar: lessequal
Encoding: 8804 8804 148
Width: 1124
Flags: W
Fore
1065 221 m 1,0,-1
 59 719 l 1,1,-1
 59 770 l 1,2,-1
 1065 1272 l 1,3,-1
 1065 1161 l 1,4,-1
 223 745 l 1,5,-1
 1065 328 l 1,6,-1
 1065 221 l 1,0,-1
1065 0 m 1,7,-1
 59 0 l 1,8,-1
 59 96 l 1,9,-1
 1065 96 l 1,10,-1
 1065 0 l 1,7,-1
EndSplineSet
EndChar
StartChar: greaterequal
Encoding: 8805 8805 149
Width: 1124
Flags: W
Fore
1065 723 m 1,0,-1
 59 221 l 1,1,-1
 59 332 l 1,2,-1
 901 748 l 1,3,-1
 59 1165 l 1,4,-1
 59 1272 l 1,5,-1
 1065 774 l 1,6,-1
 1065 723 l 1,0,-1
1065 0 m 1,7,-1
 59 0 l 1,8,-1
 59 96 l 1,9,-1
 1065 96 l 1,10,-1
 1065 0 l 1,7,-1
EndSplineSet
EndChar
StartChar: yen
Encoding: 165 165 150
Width: 1024
Flags: W
Fore
1309 1356 m 1,0,-1
 1288 1288 l 1,1,2
 1222 1286 1222 1286 1111 1123 c 2,3,-1
 807 670 l 1,4,-1
 1067 670 l 1,5,-1
 1040 578 l 1,6,-1
 745 578 l 1,7,-1
 704 516 l 2,8,9
 692 500 692 500 684 472 c 2,10,-1
 668 414 l 1,11,-1
 993 414 l 1,12,-1
 967 322 l 1,13,-1
 643 322 l 1,14,15
 603 174 603 174 603 138 c 0,16,17
 603 96 603 96 635.5 82 c 128,-1,18
 668 68 668 68 778 68 c 1,19,-1
 760 0 l 1,20,-1
 45 0 l 1,21,-1
 63 68 l 1,22,23
 171 68 171 68 215.5 82.5 c 128,-1,24
 260 97 260 97 280.5 137.5 c 128,-1,25
 301 178 301 178 344 322 c 1,26,-1
 23 322 l 1,27,-1
 49 414 l 1,28,-1
 371 414 l 1,29,-1
 393 494 l 1,30,-1
 379 578 l 1,31,-1
 96 578 l 1,32,-1
 123 670 l 1,33,-1
 365 670 l 1,34,-1
 292 1122 l 2,35,36
 278 1204 278 1204 252 1246 c 128,-1,37
 226 1288 226 1288 174 1288 c 1,38,-1
 195 1356 l 1,39,-1
 707 1356 l 1,40,-1
 686 1288 l 1,41,42
 580 1282 580 1282 580 1227 c 0,43,44
 580 1166 580 1166 591 1087 c 2,45,-1
 659 633 l 1,46,47
 973 1105 973 1105 1003.5 1153.5 c 128,-1,48
 1034 1202 1034 1202 1034 1233 c 0,49,50
 1034 1264 1034 1264 1013 1274.5 c 128,-1,51
 992 1285 992 1285 956 1288 c 1,52,-1
 977 1356 l 1,53,-1
 1309 1356 l 1,0,-1
EndSplineSet
EndChar
StartChar: uni00B5
Encoding: 181 181 151
Width: 1180
Flags: W
Fore
1114 193 m 1,0,1
 966 -29 966 -29 752 -29 c 0,2,3
 683 -29 683 -29 642.5 8.5 c 128,-1,4
 602 46 602 46 602 94 c 0,5,6
 602 150 602 150 631 238 c 1,7,8
 560 126 560 126 452 48.5 c 128,-1,9
 344 -29 344 -29 248 -29 c 0,10,11
 183 -29 183 -29 139 8 c 1,12,13
 109 -89 109 -89 109 -211 c 0,14,15
 109 -442 109 -442 -29 -442 c 0,16,17
 -72 -442 -72 -442 -100.5 -409.5 c 128,-1,18
 -129 -377 -129 -377 -129 -332 c 0,19,20
 -129 -278 -129 -278 -48 -135 c 0,21,22
 60 54 60 54 84 151 c 2,23,-1
 179 497 l 2,24,25
 250 745 250 745 250 782 c 0,26,27
 250 813 250 813 225 813 c 0,28,29
 180 813 180 813 113 721 c 1,30,-1
 57 760 l 1,31,32
 193 965 193 965 397 965 c 0,33,34
 464 965 464 965 500.5 927.5 c 128,-1,35
 537 890 537 890 537 827 c 0,36,37
 537 802 537 802 500 670 c 2,38,-1
 401 311 l 2,39,40
 379 230 379 230 379 207 c 0,41,42
 379 156 379 156 414 156 c 0,43,44
 463 156 463 156 565.5 268 c 128,-1,45
 668 380 668 380 696 489 c 2,46,-1
 817 936 l 1,47,-1
 1094 936 l 1,48,-1
 905 242 l 2,49,50
 889 180 889 180 889 154 c 0,51,52
 889 142 889 142 898.5 132.5 c 128,-1,53
 908 123 908 123 920 123 c 0,54,55
 979 123 979 123 1057 231 c 1,56,-1
 1114 193 l 1,0,1
EndSplineSet
EndChar
StartChar: partialdiff
Encoding: 8706 8706 152
Width: 1012
Flags: W
Fore
995 920 m 0,0,1
 995 780 995 780 967 639 c 128,-1,2
 939 498 939 498 885.5 375.5 c 128,-1,3
 832 253 832 253 758 156 c 0,4,5
 615 -31 615 -31 403 -31 c 0,6,7
 249 -31 249 -31 157.5 60.5 c 128,-1,8
 66 152 66 152 66 305 c 0,9,10
 66 462 66 462 142.5 601.5 c 128,-1,11
 219 741 219 741 346 824 c 128,-1,12
 473 907 473 907 616 907 c 0,13,14
 722 907 722 907 805 856 c 0,15,16
 849 829 849 829 877 798 c 128,-1,17
 905 767 905 767 928 717 c 1,18,-1
 932 717 l 1,19,20
 942 864 942 864 942 903 c 0,21,22
 942 1020 942 1020 900.5 1105 c 128,-1,23
 859 1190 859 1190 780.5 1235 c 128,-1,24
 702 1280 702 1280 596 1280 c 0,25,26
 496 1280 496 1280 424.5 1242.5 c 128,-1,27
 353 1205 353 1205 295 1120 c 1,28,-1
 250 1120 l 1,29,30
 285 1194 285 1194 311.5 1236 c 128,-1,31
 338 1278 338 1278 375 1315 c 0,32,33
 424 1366 424 1366 492 1394.5 c 128,-1,34
 560 1423 560 1423 629 1423 c 0,35,36
 676 1423 676 1423 723 1409.5 c 128,-1,37
 770 1396 770 1396 811 1370 c 128,-1,38
 852 1344 852 1344 881 1311 c 0,39,40
 995 1181 995 1181 995 920 c 0,0,1
911 629 m 1,41,42
 875 734 875 734 800 794 c 128,-1,43
 725 854 725 854 627 854 c 0,44,45
 546 854 546 854 469.5 805 c 128,-1,46
 393 756 393 756 348 678 c 0,47,48
 315 621 315 621 288 546 c 128,-1,49
 261 471 261 471 247 399.5 c 128,-1,50
 233 328 233 328 233 264 c 0,51,52
 233 156 233 156 286.5 91.5 c 128,-1,53
 340 27 340 27 430 27 c 0,54,55
 502 27 502 27 582 76.5 c 128,-1,56
 662 126 662 126 729 213 c 0,57,58
 799 306 799 306 841 401.5 c 128,-1,59
 883 497 883 497 911 629 c 1,41,42
EndSplineSet
EndChar
StartChar: summation
Encoding: 8721 8721 153
Width: 1460
Flags: W
Fore
1419 212 m 1,0,-1
 1356 -204 l 1,1,-1
 43 -204 l 1,2,-1
 43 -167 l 1,3,-1
 713 664 l 1,4,-1
 43 1478 l 1,5,-1
 43 1517 l 1,6,-1
 1321 1517 l 1,7,-1
 1348 1179 l 1,8,-1
 1309 1179 l 1,9,10
 1293 1312 1293 1312 1233 1373.5 c 128,-1,11
 1173 1435 1173 1435 1059 1435 c 2,12,-1
 319 1435 l 1,13,-1
 881 750 l 1,14,-1
 252 -28 l 1,15,-1
 1071 -28 l 2,16,17
 1125 -28 1125 -28 1185.5 -11 c 128,-1,18
 1246 6 1246 6 1276 28 c 0,19,20
 1312 53 1312 53 1336.5 99 c 128,-1,21
 1361 145 1361 145 1380 220 c 1,22,-1
 1419 212 l 1,0,-1
EndSplineSet
EndChar
StartChar: product
Encoding: 8719 8719 154
Width: 1686
Flags: W
Fore
1640 -204 m 1,0,-1
 1042 -204 l 1,1,-1
 1042 -167 l 1,2,-1
 1077 -167 l 2,3,4
 1164 -167 1164 -167 1202.5 -129.5 c 128,-1,5
 1241 -92 1241 -92 1241 -11 c 2,6,-1
 1241 1439 l 1,7,-1
 444 1439 l 1,8,-1
 444 -11 l 2,9,10
 444 -90 444 -90 483.5 -128.5 c 128,-1,11
 523 -167 523 -167 606 -167 c 2,12,-1
 643 -167 l 1,13,-1
 643 -204 l 1,14,-1
 45 -204 l 1,15,-1
 45 -167 l 1,16,-1
 80 -167 l 2,17,18
 167 -167 167 -167 205.5 -129.5 c 128,-1,19
 244 -92 244 -92 244 -11 c 2,20,-1
 244 1324 l 2,21,22
 244 1407 244 1407 205.5 1443.5 c 128,-1,23
 167 1480 167 1480 80 1480 c 2,24,-1
 45 1480 l 1,25,-1
 45 1517 l 1,26,-1
 1640 1517 l 1,27,-1
 1640 1480 l 1,28,-1
 1606 1480 l 2,29,30
 1521 1480 1521 1480 1481.5 1443.5 c 128,-1,31
 1442 1407 1442 1407 1442 1324 c 2,32,-1
 1442 -11 l 2,33,34
 1442 -92 1442 -92 1481.5 -129.5 c 128,-1,35
 1521 -167 1521 -167 1606 -167 c 2,36,-1
 1640 -167 l 1,37,-1
 1640 -204 l 1,0,-1
EndSplineSet
EndChar
StartChar: glyph155
Encoding: 65539 -1 155
Width: 1124
Flags: W
Fore
1049 258 m 1,0,1
 1042 197 1042 197 1030.5 153.5 c 128,-1,2
 1019 110 1019 110 999 74 c 0,3,4
 975 26 975 26 932.5 -2.5 c 128,-1,5
 890 -31 890 -31 842 -31 c 0,6,7
 807 -31 807 -31 772.5 -14.5 c 128,-1,8
 738 2 738 2 719 29 c 0,9,10
 687 73 687 73 673 136.5 c 128,-1,11
 659 200 659 200 659 305 c 0,12,13
 659 367 659 367 666 463 c 0,14,15
 669 490 669 490 671 515.5 c 128,-1,16
 673 541 673 541 680 614 c 0,17,18
 682 632 682 632 685.5 662 c 128,-1,19
 689 692 689 692 692 717 c 2,20,-1
 698 770 l 1,21,-1
 438 770 l 1,22,-1
 434 709 l 2,23,24
 417 415 417 415 394.5 259 c 128,-1,25
 372 103 372 103 336 36 c 128,-1,26
 300 -31 300 -31 242 -31 c 0,27,28
 208 -31 208 -31 183 -6 c 128,-1,29
 158 19 158 19 158 53 c 0,30,31
 158 80 158 80 170 105 c 128,-1,32
 182 130 182 130 213 172 c 0,33,34
 259 231 259 231 281.5 285 c 128,-1,35
 304 339 304 339 319 428 c 0,36,37
 334 513 334 513 341.5 588.5 c 128,-1,38
 349 664 349 664 354 770 c 1,39,-1
 309 770 l 2,40,41
 259 770 259 770 235 763.5 c 128,-1,42
 211 757 211 757 184 737 c 0,43,44
 138 701 138 701 94 627 c 1,45,-1
 55 627 l 1,46,47
 107 787 107 787 171.5 851 c 128,-1,48
 236 915 236 915 346 915 c 2,49,-1
 1049 915 l 1,50,-1
 1049 770 l 1,51,-1
 807 770 l 1,52,53
 790 661 790 661 781 547.5 c 128,-1,54
 772 434 772 434 772 332 c 0,55,56
 772 239 772 239 805 190 c 128,-1,57
 838 141 838 141 897 141 c 0,58,59
 994 141 994 141 1014 258 c 1,60,-1
 1049 258 l 1,0,1
EndSplineSet
EndChar
StartChar: integral
Encoding: 8747 8747 156
Width: 561
Flags: W
Fore
561 1755 m 0,0,1
 561 1726 561 1726 548.5 1702 c 128,-1,2
 536 1678 536 1678 514.5 1665.5 c 128,-1,3
 493 1653 493 1653 467 1653 c 0,4,5
 431 1653 431 1653 391 1688 c 0,6,7
 371 1708 371 1708 352 1708 c 0,8,9
 311 1708 311 1708 311 1645 c 0,10,11
 311 1599 311 1599 322 1499 c 0,12,13
 340 1295 340 1295 349 1128 c 128,-1,14
 358 961 358 961 358 834 c 2,15,-1
 356 713 l 1,16,-1
 342 242 l 2,17,18
 336 52 336 52 293 -78 c 0,19,20
 271 -145 271 -145 225 -182 c 128,-1,21
 179 -219 179 -219 119 -219 c 0,22,23
 65 -219 65 -219 32.5 -185.5 c 128,-1,24
 0 -152 0 -152 0 -98 c 0,25,26
 0 -54 0 -54 25 -27 c 128,-1,27
 50 0 50 0 90 0 c 0,28,29
 132 0 132 0 160 -33 c 0,30,31
 173 -47 173 -47 184 -55 c 128,-1,32
 195 -63 195 -63 209 -63 c 0,33,34
 248 -63 248 -63 248 -2 c 0,35,36
 248 35 248 35 238 117 c 0,37,38
 218 287 218 287 209 512 c 0,39,40
 206 616 206 616 203 741 c 0,41,42
 201 811 201 811 201 895 c 2,43,-1
 217 1448 l 2,44,45
 223 1639 223 1639 283 1765 c 0,46,47
 302 1805 302 1805 346.5 1834.5 c 128,-1,48
 391 1864 391 1864 434 1864 c 0,49,50
 465 1864 465 1864 495.5 1849 c 128,-1,51
 526 1834 526 1834 543.5 1808 c 128,-1,52
 561 1782 561 1782 561 1755 c 0,0,1
EndSplineSet
EndChar
StartChar: ordfeminine
Encoding: 170 170 157
Width: 545
Flags: W
Fore
743 1364 m 1,0,-1
 664 1077 l 2,1,2
 622 922 622 922 620 913 c 128,-1,3
 618 904 618 904 618 891 c 0,4,5
 618 874 618 874 635 874 c 0,6,7
 668 874 668 874 705 922 c 1,8,-1
 739 889 l 1,9,10
 664 786 664 786 532 786 c 0,11,12
 432 786 432 786 432 874 c 0,13,14
 432 904 432 904 438 932 c 1,15,16
 362 786 362 786 231 786 c 0,17,18
 165 786 165 786 128.5 829 c 128,-1,19
 92 872 92 872 92 948 c 0,20,21
 92 1113 92 1113 197.5 1248.5 c 128,-1,22
 303 1384 303 1384 440 1384 c 0,23,24
 520 1384 520 1384 559 1354 c 1,25,-1
 690 1364 l 1,26,-1
 743 1364 l 1,0,-1
537 1284 m 1,27,28
 514 1323 514 1323 453 1323 c 0,29,30
 398 1323 398 1323 350.5 1209 c 128,-1,31
 303 1095 303 1095 303 963 c 0,32,33
 303 907 303 907 338 907 c 0,34,35
 357 907 357 907 378 923.5 c 128,-1,36
 399 940 399 940 435 992.5 c 128,-1,37
 471 1045 471 1045 473 1055 c 2,38,-1
 537 1284 l 1,27,28
EndSplineSet
EndChar
StartChar: ordmasculine
Encoding: 186 186 158
Width: 614
Flags: W
Fore
514 1384 m 0,0,1
 625 1384 625 1384 693.5 1319 c 128,-1,2
 762 1254 762 1254 762 1163 c 0,3,4
 762 1026 762 1026 660 906 c 128,-1,5
 558 786 558 786 391 786 c 0,6,7
 280 786 280 786 212.5 849 c 128,-1,8
 145 912 145 912 145 1004 c 0,9,10
 145 1141 145 1141 246.5 1262.5 c 128,-1,11
 348 1384 348 1384 514 1384 c 0,0,1
408 848 m 0,12,13
 465 848 465 848 509 971.5 c 128,-1,14
 553 1095 553 1095 553 1237 c 0,15,16
 553 1323 553 1323 504 1323 c 0,17,18
 445 1323 445 1323 399.5 1193.5 c 128,-1,19
 354 1064 354 1064 354 938 c 0,20,21
 354 848 354 848 408 848 c 0,12,13
EndSplineSet
EndChar
StartChar: uni2126
Encoding: 8486 8486 159
Width: 1573
Flags: W
Fore
1518 0 m 1,0,-1
 950 0 l 1,1,-1
 973 279 l 1,2,3
 1070 318 1070 318 1131 381 c 128,-1,4
 1192 444 1192 444 1220.5 535.5 c 128,-1,5
 1249 627 1249 627 1249 754 c 0,6,7
 1249 1013 1249 1013 1126 1159 c 0,8,9
 1062 1235 1062 1235 974 1276 c 128,-1,10
 886 1317 886 1317 782 1317 c 0,11,12
 680 1317 680 1317 595 1277.5 c 128,-1,13
 510 1238 510 1238 448 1165 c 128,-1,14
 386 1092 386 1092 352.5 990 c 128,-1,15
 319 888 319 888 319 768 c 0,16,17
 319 635 319 635 357 525.5 c 128,-1,18
 395 416 395 416 463 354 c 0,19,20
 494 326 494 326 520 311.5 c 128,-1,21
 546 297 546 297 596 279 c 1,22,-1
 618 0 l 1,23,-1
 55 0 l 1,24,-1
 55 279 l 1,25,-1
 90 279 l 1,26,27
 93 218 93 218 121 197 c 0,28,29
 147 177 147 177 176.5 169.5 c 128,-1,30
 206 162 206 162 260 162 c 2,31,-1
 530 162 l 1,32,-1
 530 231 l 1,33,34
 393 271 393 271 293.5 349.5 c 128,-1,35
 194 428 194 428 143 539.5 c 128,-1,36
 92 651 92 651 92 788 c 0,37,38
 92 918 92 918 142.5 1029 c 128,-1,39
 193 1140 193 1140 285 1220 c 128,-1,40
 377 1300 377 1300 503.5 1343 c 128,-1,41
 630 1386 630 1386 782 1386 c 0,42,43
 936 1386 936 1386 1065.5 1342.5 c 128,-1,44
 1195 1299 1195 1299 1286.5 1221 c 128,-1,45
 1378 1143 1378 1143 1429.5 1031.5 c 128,-1,46
 1481 920 1481 920 1481 788 c 0,47,48
 1481 651 1481 651 1426.5 535 c 128,-1,49
 1372 419 1372 419 1272 339.5 c 128,-1,50
 1172 260 1172 260 1042 231 c 1,51,-1
 1034 162 l 1,52,-1
 1309 162 l 2,53,54
 1397 162 1397 162 1434 186.5 c 128,-1,55
 1471 211 1471 211 1479 279 c 1,56,-1
 1518 279 l 1,57,-1
 1518 0 l 1,0,-1
EndSplineSet
EndChar
StartChar: ae
Encoding: 230 230 160
Width: 1479
Flags: W
Fore
907 455 m 1,0,1
 1045 470 1045 470 1123.5 571 c 128,-1,2
 1202 672 1202 672 1202 754 c 0,3,4
 1202 877 1202 877 1153 877 c 0,5,6
 1082 877 1082 877 1016.5 762.5 c 128,-1,7
 951 648 951 648 907 455 c 1,0,1
1217 965 m 0,8,9
 1341 965 1341 965 1405.5 903 c 128,-1,10
 1470 841 1470 841 1470 737 c 0,11,12
 1470 587 1470 587 1314.5 483 c 128,-1,13
 1159 379 1159 379 889 362 c 1,14,15
 874 277 874 277 874 252 c 0,16,17
 874 194 874 194 922.5 157.5 c 128,-1,18
 971 121 971 121 1034 121 c 0,19,20
 1174 121 1174 121 1331 252 c 1,21,-1
 1374 193 l 1,22,23
 1194 -29 1194 -29 934 -29 c 0,24,25
 807 -29 807 -29 715 41.5 c 128,-1,26
 623 112 623 112 606 233 c 1,27,28
 522 103 522 103 430 37 c 128,-1,29
 338 -29 338 -29 223 -29 c 0,30,31
 145 -29 145 -29 93 45.5 c 128,-1,32
 41 120 41 120 41 240 c 0,33,34
 41 519 41 519 210 742 c 128,-1,35
 379 965 379 965 616 965 c 0,36,37
 700 965 700 965 739 920 c 1,38,-1
 752 965 l 1,39,-1
 965 965 l 1,40,-1
 940 856 l 1,41,42
 1062 965 1062 965 1217 965 c 0,8,9
719 807 m 1,43,44
 691 874 691 874 616 874 c 0,45,46
 521 874 521 874 424.5 661.5 c 128,-1,47
 328 449 328 449 328 244 c 0,48,49
 328 158 328 158 377 158 c 0,50,51
 425 158 425 158 506 239 c 128,-1,52
 587 320 587 320 594 344 c 2,53,-1
 719 807 l 1,43,44
EndSplineSet
EndChar
StartChar: oslash
Encoding: 248 248 161
Width: 1024
Flags: W
Fore
981 950 m 1,0,-1
 891 848 l 1,1,2
 961 758 961 758 961 641 c 0,3,4
 961 373 961 373 795.5 172 c 128,-1,5
 630 -29 630 -29 377 -29 c 0,6,7
 258 -29 258 -29 174 33 c 1,8,-1
 88 -63 l 1,9,-1
 27 -14 l 1,10,-1
 117 88 l 1,11,12
 49 175 49 175 49 295 c 0,13,14
 49 562 49 562 213.5 763.5 c 128,-1,15
 378 965 378 965 631 965 c 0,16,17
 744 965 744 965 834 903 c 1,18,-1
 920 999 l 1,19,-1
 981 950 l 1,0,-1
674 719 m 1,20,-1
 674 739 l 2,21,22
 674 874 674 874 606 874 c 0,23,24
 527 874 527 874 460 733.5 c 128,-1,25
 393 593 393 593 354 358 c 1,26,-1
 674 719 l 1,20,-1
655 580 m 1,27,-1
 336 219 l 1,28,-1
 336 195 l 2,29,30
 336 61 336 61 403 61 c 0,31,32
 478 61 478 61 545 201 c 128,-1,33
 612 341 612 341 655 580 c 1,27,-1
EndSplineSet
EndChar
StartChar: questiondown
Encoding: 191 191 162
Width: 1024
Flags: W
Fore
721 973 m 0,0,1
 790 973 790 973 838.5 924.5 c 128,-1,2
 887 876 887 876 887 807 c 0,3,4
 887 738 887 738 838.5 689.5 c 128,-1,5
 790 641 790 641 721 641 c 0,6,7
 652 641 652 641 603.5 689.5 c 128,-1,8
 555 738 555 738 555 807 c 0,9,10
 555 876 555 876 603.5 924.5 c 128,-1,11
 652 973 652 973 721 973 c 0,0,1
627 195 m 1,12,13
 405 141 405 141 304 66 c 128,-1,14
 203 -9 203 -9 203 -125 c 0,15,16
 203 -199 203 -199 246.5 -242 c 128,-1,17
 290 -285 290 -285 371 -285 c 0,18,19
 424 -285 424 -285 483 -231 c 0,20,21
 519 -198 519 -198 552.5 -181 c 128,-1,22
 586 -164 586 -164 643 -164 c 0,23,24
 686 -164 686 -164 717 -191.5 c 128,-1,25
 748 -219 748 -219 748 -264 c 0,26,27
 748 -345 748 -345 668 -393.5 c 128,-1,28
 588 -442 588 -442 453 -442 c 0,29,30
 290 -442 290 -442 145 -295.5 c 128,-1,31
 0 -149 0 -149 0 14 c 0,32,33
 0 165 0 165 153 277 c 128,-1,34
 306 389 306 389 633 473 c 1,35,-1
 659 563 l 1,36,-1
 729 563 l 1,37,-1
 627 195 l 1,12,13
EndSplineSet
EndChar
StartChar: exclamdown
Encoding: 161 161 163
Width: 797
Flags: W
Fore
494 973 m 0,0,1
 562 973 562 973 610.5 924.5 c 128,-1,2
 659 876 659 876 659 807 c 0,3,4
 659 738 659 738 610.5 689.5 c 128,-1,5
 562 641 562 641 494 641 c 0,6,7
 425 641 425 641 376.5 689.5 c 128,-1,8
 328 738 328 738 328 807 c 0,9,10
 328 876 328 876 376.5 924.5 c 128,-1,11
 425 973 425 973 494 973 c 0,0,1
465 504 m 1,12,13
 412 301 412 301 403 -10 c 0,14,15
 398 -184 398 -184 381.5 -257 c 128,-1,16
 365 -330 365 -330 307 -386 c 128,-1,17
 249 -442 249 -442 170 -442 c 0,18,19
 107 -442 107 -442 72 -406.5 c 128,-1,20
 37 -371 37 -371 37 -322 c 0,21,22
 37 -275 37 -275 62.5 -205 c 128,-1,23
 88 -135 88 -135 189 40 c 0,24,25
 237 122 237 122 267 178 c 128,-1,26
 297 234 297 234 317 279.5 c 128,-1,27
 337 325 337 325 395 504 c 1,28,-1
 465 504 l 1,12,13
EndSplineSet
EndChar
StartChar: logicalnot
Encoding: 172 172 164
Width: 1241
Flags: W
Fore
1186 453 m 1,0,-1
 1055 453 l 1,1,-1
 1055 776 l 1,2,-1
 92 776 l 1,3,-1
 92 907 l 1,4,-1
 1186 907 l 1,5,-1
 1186 453 l 1,0,-1
EndSplineSet
EndChar
StartChar: radical
Encoding: 8730 8730 165
Width: 1124
Flags: W
Fore
1124 1870 m 1,0,-1
 813 -78 l 1,1,-1
 317 944 l 1,2,-1
 119 852 l 1,3,-1
 84 915 l 1,4,-1
 385 1067 l 1,5,-1
 788 244 l 1,6,-1
 793 244 l 1,7,-1
 1051 1870 l 1,8,-1
 1124 1870 l 1,0,-1
EndSplineSet
EndChar
StartChar: florin
Encoding: 402 402 166
Width: 1024
Flags: W
Fore
666 842 m 1,0,-1
 513 202 l 2,1,2
 464 -4 464 -4 383.5 -142.5 c 128,-1,3
 303 -281 303 -281 203 -351.5 c 128,-1,4
 103 -422 103 -422 -4 -422 c 0,5,6
 -131 -422 -131 -422 -211 -368 c 128,-1,7
 -291 -314 -291 -314 -291 -240 c 0,8,9
 -291 -190 -291 -190 -261 -159.5 c 128,-1,10
 -231 -129 -231 -129 -188 -129 c 0,11,12
 -93 -129 -93 -129 -51 -244 c 0,13,14
 -18 -330 -18 -330 35 -330 c 0,15,16
 81 -330 81 -330 110 -276 c 128,-1,17
 139 -222 139 -222 184 -33 c 2,18,-1
 393 842 l 1,19,-1
 227 842 l 1,20,-1
 250 936 l 1,21,-1
 416 936 l 1,22,23
 453 1089 453 1089 471 1135 c 128,-1,24
 489 1181 489 1181 529.5 1236 c 128,-1,25
 570 1291 570 1291 626 1333 c 128,-1,26
 682 1375 682 1375 752 1398 c 128,-1,27
 822 1421 822 1421 901 1421 c 0,28,29
 1019 1421 1019 1421 1107.5 1364 c 128,-1,30
 1196 1307 1196 1307 1196 1225 c 0,31,32
 1196 1172 1196 1172 1167 1141 c 128,-1,33
 1138 1110 1138 1110 1090 1110 c 0,34,35
 986 1110 986 1110 958 1239 c 0,36,37
 938 1329 938 1329 874 1329 c 0,38,39
 831 1329 831 1329 793.5 1282 c 128,-1,40
 756 1235 756 1235 688 936 c 1,41,-1
 874 936 l 1,42,-1
 852 842 l 1,43,-1
 666 842 l 1,0,-1
EndSplineSet
EndChar
StartChar: approxequal
Encoding: 8776 8776 167
Width: 1124
Flags: W
Fore
1073 874 m 1,0,1
 1053 722 1053 722 979.5 637.5 c 128,-1,2
 906 553 906 553 791 553 c 0,3,4
 735 553 735 553 667.5 579.5 c 128,-1,5
 600 606 600 606 487 670 c 0,6,7
 347 748 347 748 276 748 c 0,8,9
 204 748 204 748 157.5 698.5 c 128,-1,10
 111 649 111 649 98 561 c 1,11,-1
 51 561 l 1,12,13
 71 712 71 712 144 797.5 c 128,-1,14
 217 883 217 883 326 883 c 0,15,16
 374 883 374 883 449 858 c 0,17,18
 505 837 505 837 657 756 c 0,19,20
 775 694 775 694 850 694 c 0,21,22
 891 694 891 694 918.5 707.5 c 128,-1,23
 946 721 946 721 973 754 c 0,24,25
 1012 801 1012 801 1022 874 c 1,26,-1
 1073 874 l 1,0,1
1073 487 m 1,27,28
 1053 335 1053 335 979.5 250.5 c 128,-1,29
 906 166 906 166 791 166 c 0,30,31
 735 166 735 166 670 191 c 128,-1,32
 605 216 605 216 487 281 c 0,33,34
 416 323 416 323 366 341.5 c 128,-1,35
 316 360 316 360 276 360 c 0,36,37
 204 360 204 360 157.5 311 c 128,-1,38
 111 262 111 262 98 174 c 1,39,-1
 51 174 l 1,40,41
 63 272 63 272 100 344.5 c 128,-1,42
 137 417 137 417 195 455.5 c 128,-1,43
 253 494 253 494 326 494 c 0,44,45
 374 494 374 494 449 469 c 0,46,47
 501 453 501 453 657 369 c 0,48,49
 775 307 775 307 850 307 c 0,50,51
 891 307 891 307 918.5 320.5 c 128,-1,52
 946 334 946 334 973 367 c 0,53,54
 1012 414 1012 414 1022 487 c 1,55,-1
 1073 487 l 1,27,28
EndSplineSet
EndChar
StartChar: uni2206
Encoding: 8710 8710 168
Width: 1253
Flags: W
Fore
1227 0 m 1,0,-1
 27 0 l 1,1,-1
 655 1386 l 1,2,-1
 1227 0 l 1,0,-1
991 82 m 1,3,-1
 592 1049 l 1,4,-1
 152 82 l 1,5,-1
 991 82 l 1,3,-1
EndSplineSet
EndChar
StartChar: guillemotleft
Encoding: 171 171 169
Width: 1024
Flags: W
Fore
1122 938 m 1,0,-1
 739 469 l 1,1,-1
 852 0 l 1,2,-1
 758 0 l 1,3,-1
 485 469 l 1,4,-1
 1028 938 l 1,5,-1
 1122 938 l 1,0,-1
678 938 m 1,6,-1
 295 469 l 1,7,-1
 408 0 l 1,8,-1
 313 0 l 1,9,-1
 41 469 l 1,10,-1
 584 938 l 1,11,-1
 678 938 l 1,6,-1
EndSplineSet
EndChar
StartChar: guillemotright
Encoding: 187 187 170
Width: 1024
Flags: W
Fore
967 469 m 1,0,-1
 424 0 l 1,1,-1
 330 0 l 1,2,-1
 713 469 l 1,3,-1
 600 938 l 1,4,-1
 694 938 l 1,5,-1
 967 469 l 1,0,-1
522 469 m 1,6,-1
 -20 0 l 1,7,-1
 -115 0 l 1,8,-1
 268 469 l 1,9,-1
 156 938 l 1,10,-1
 250 938 l 1,11,-1
 522 469 l 1,6,-1
EndSplineSet
EndChar
StartChar: ellipsis
Encoding: 8230 8230 171
Width: 2048
Flags: W
Fore
1645 301 m 0,0,1
 1713 301 1713 301 1761.5 252.5 c 128,-1,2
 1810 204 1810 204 1810 135 c 0,3,4
 1810 66 1810 66 1761.5 17.5 c 128,-1,5
 1713 -31 1713 -31 1645 -31 c 0,6,7
 1576 -31 1576 -31 1527.5 17.5 c 128,-1,8
 1479 66 1479 66 1479 135 c 0,9,10
 1479 204 1479 204 1527.5 252.5 c 128,-1,11
 1576 301 1576 301 1645 301 c 0,0,1
963 301 m 0,12,13
 1031 301 1031 301 1079.5 252.5 c 128,-1,14
 1128 204 1128 204 1128 135 c 0,15,16
 1128 66 1128 66 1080 17.5 c 128,-1,17
 1032 -31 1032 -31 963 -31 c 0,18,19
 894 -31 894 -31 845.5 17.5 c 128,-1,20
 797 66 797 66 797 135 c 0,21,22
 797 204 797 204 845 252.5 c 128,-1,23
 893 301 893 301 963 301 c 0,12,13
281 301 m 0,24,25
 349 301 349 301 397.5 252.5 c 128,-1,26
 446 204 446 204 446 135 c 0,27,28
 446 66 446 66 397.5 17.5 c 128,-1,29
 349 -31 349 -31 281 -31 c 0,30,31
 212 -31 212 -31 163.5 17.5 c 128,-1,32
 115 66 115 66 115 135 c 0,33,34
 115 204 115 204 163 252.5 c 128,-1,35
 211 301 211 301 281 301 c 0,24,25
EndSplineSet
Ligature: 0 3 'liga' period period period
EndChar
StartChar: OE
Encoding: 338 338 176
Width: 1933
Flags: W
Fore
2017 1356 m 1,0,-1
 1921 1020 l 1,1,-1
 1853 1020 l 1,2,3
 1876 1098 1876 1098 1876 1143 c 0,4,5
 1876 1203 1876 1203 1833 1227 c 128,-1,6
 1790 1251 1790 1251 1661 1251 c 2,7,-1
 1436 1251 l 1,8,-1
 1296 762 l 1,9,-1
 1423 762 l 2,10,11
 1516 762 1516 762 1554 771 c 128,-1,12
 1592 780 1592 780 1616.5 816.5 c 128,-1,13
 1641 853 1641 853 1667 946 c 1,14,-1
 1735 946 l 1,15,-1
 1599 471 l 1,16,-1
 1532 471 l 1,17,18
 1556 554 1556 554 1556 594 c 0,19,20
 1556 636 1556 636 1522 646.5 c 128,-1,21
 1488 657 1488 657 1393 657 c 2,22,-1
 1266 657 l 1,23,-1
 1173 332 l 2,24,25
 1132 191 1132 191 1129.5 178.5 c 128,-1,26
 1127 166 1127 166 1127 154 c 0,27,28
 1127 125 1127 125 1148 114.5 c 128,-1,29
 1169 104 1169 104 1219 104 c 2,30,-1
 1374 104 l 2,31,32
 1644 104 1644 104 1726 391 c 1,33,-1
 1794 391 l 1,34,-1
 1681 0 l 1,35,-1
 932 0 l 2,36,37
 865 0 865 0 764 -15 c 0,38,39
 658 -31 658 -31 586 -31 c 0,40,41
 349 -31 349 -31 231 111.5 c 128,-1,42
 113 254 113 254 113 451 c 0,43,44
 113 671 113 671 242 893 c 128,-1,45
 371 1115 371 1115 580 1250.5 c 128,-1,46
 789 1386 789 1386 1006 1386 c 0,47,48
 1066 1386 1066 1386 1145 1370 c 0,49,50
 1215 1356 1215 1356 1264 1356 c 2,51,-1
 2017 1356 l 1,0,-1
1087 1087 m 2,52,53
 1108 1154 1108 1154 1108 1200 c 0,54,55
 1108 1290 1108 1290 969 1290 c 0,56,57
 814 1290 814 1290 691.5 1125 c 128,-1,58
 569 960 569 960 499.5 697.5 c 128,-1,59
 430 435 430 435 430 301 c 0,60,61
 430 191 430 191 481 128.5 c 128,-1,62
 532 66 532 66 629 66 c 0,63,64
 731 66 731 66 777 117.5 c 128,-1,65
 823 169 823 169 852 268 c 2,66,-1
 1087 1087 l 2,52,53
EndSplineSet
EndChar
StartChar: oe
Encoding: 339 339 177
Width: 1479
Flags: W
Fore
926 455 m 1,0,1
 1064 470 1064 470 1133 564.5 c 128,-1,2
 1202 659 1202 659 1202 754 c 0,3,4
 1202 877 1202 877 1153 877 c 0,5,6
 1094 877 1094 877 1031 758 c 128,-1,7
 968 639 968 639 926 455 c 1,0,1
1217 965 m 0,8,9
 1341 965 1341 965 1405.5 903 c 128,-1,10
 1470 841 1470 841 1470 737 c 0,11,12
 1470 582 1470 582 1324 480 c 128,-1,13
 1178 378 1178 378 911 362 c 1,14,15
 901 296 901 296 901 252 c 0,16,17
 901 190 901 190 938.5 155.5 c 128,-1,18
 976 121 976 121 1034 121 c 0,19,20
 1174 121 1174 121 1331 252 c 1,21,-1
 1374 193 l 1,22,23
 1194 -29 1194 -29 934 -29 c 0,24,25
 778 -29 778 -29 692 100 c 1,26,27
 542 -29 542 -29 377 -29 c 0,28,29
 230 -29 230 -29 139.5 64 c 128,-1,30
 49 157 49 157 49 295 c 0,31,32
 49 559 49 559 219 762 c 128,-1,33
 389 965 389 965 643 965 c 0,34,35
 805 965 805 965 883 827 c 1,36,37
 1028 965 1028 965 1217 965 c 0,8,9
403 61 m 0,38,39
 472 61 472 61 536 179 c 128,-1,40
 600 297 600 297 643 479.5 c 128,-1,41
 686 662 686 662 686 739 c 0,42,43
 686 874 686 874 618 874 c 0,44,45
 546 874 546 874 482 757.5 c 128,-1,46
 418 641 418 641 377 459 c 128,-1,47
 336 277 336 277 336 195 c 0,48,49
 336 61 336 61 403 61 c 0,38,39
EndSplineSet
EndChar
StartChar: endash
Encoding: 8211 8211 178
Width: 1024
Flags: W
Fore
1040 412 m 1,0,-1
 -16 412 l 1,1,-1
 -16 535 l 1,2,-1
 1040 535 l 1,3,-1
 1040 412 l 1,0,-1
EndSplineSet
EndChar
StartChar: emdash
Encoding: 8212 8212 179
Width: 2048
Flags: W
Fore
2064 412 m 1,0,-1
 -16 412 l 1,1,-1
 -16 535 l 1,2,-1
 2064 535 l 1,3,-1
 2064 412 l 1,0,-1
EndSplineSet
EndChar
StartChar: quotedblleft
Encoding: 8220 8220 180
Width: 1024
Flags: W
Fore
1157 1323 m 1,0,1
 1020 1284 1020 1284 944 1217 c 128,-1,2
 868 1150 868 1150 868 1092 c 0,3,4
 868 1051 868 1051 934 1026 c 0,5,6
 1028 988 1028 988 1028 893 c 0,7,8
 1028 819 1028 819 977.5 771 c 128,-1,9
 927 723 927 723 852 723 c 0,10,11
 775 723 775 723 726.5 776 c 128,-1,12
 678 829 678 829 678 903 c 0,13,14
 678 1063 678 1063 799.5 1196.5 c 128,-1,15
 921 1330 921 1330 1135 1386 c 1,16,-1
 1157 1323 l 1,0,1
713 1323 m 1,17,18
 575 1284 575 1284 499.5 1217 c 128,-1,19
 424 1150 424 1150 424 1092 c 0,20,21
 424 1051 424 1051 489 1026 c 0,22,23
 584 988 584 988 584 893 c 0,24,25
 584 820 584 820 533.5 771.5 c 128,-1,26
 483 723 483 723 408 723 c 0,27,28
 331 723 331 723 282 776 c 128,-1,29
 233 829 233 829 233 903 c 0,30,31
 233 1063 233 1063 355 1196.5 c 128,-1,32
 477 1330 477 1330 690 1386 c 1,33,-1
 713 1323 l 1,17,18
EndSplineSet
EndChar
StartChar: quotedblright
Encoding: 8221 8221 181
Width: 1024
Flags: W
Fore
629 786 m 1,0,1
 766 825 766 825 842 892.5 c 128,-1,2
 918 960 918 960 918 1018 c 0,3,4
 918 1058 918 1058 852 1083 c 0,5,6
 758 1121 758 1121 758 1217 c 0,7,8
 758 1290 758 1290 808 1338 c 128,-1,9
 858 1386 858 1386 934 1386 c 0,10,11
 1011 1386 1011 1386 1059.5 1333 c 128,-1,12
 1108 1280 1108 1280 1108 1206 c 0,13,14
 1108 1046 1108 1046 986.5 913 c 128,-1,15
 865 780 865 780 651 723 c 1,16,-1
 629 786 l 1,0,1
184 786 m 1,17,18
 322 825 322 825 397.5 892.5 c 128,-1,19
 473 960 473 960 473 1018 c 0,20,21
 473 1058 473 1058 408 1083 c 0,22,23
 313 1121 313 1121 313 1217 c 0,24,25
 313 1290 313 1290 363.5 1338 c 128,-1,26
 414 1386 414 1386 489 1386 c 0,27,28
 566 1386 566 1386 615 1333 c 128,-1,29
 664 1280 664 1280 664 1206 c 0,30,31
 664 1046 664 1046 542 913 c 128,-1,32
 420 780 420 780 207 723 c 1,33,-1
 184 786 l 1,17,18
EndSplineSet
EndChar
StartChar: quoteleft
Encoding: 8216 8216 182
Width: 682
Flags: W
Fore
764 1323 m 1,0,1
 626 1284 626 1284 550.5 1217 c 128,-1,2
 475 1150 475 1150 475 1092 c 0,3,4
 475 1051 475 1051 541 1026 c 0,5,6
 635 988 635 988 635 893 c 0,7,8
 635 820 635 820 584.5 771.5 c 128,-1,9
 534 723 534 723 459 723 c 0,10,11
 382 723 382 723 333.5 776 c 128,-1,12
 285 829 285 829 285 903 c 0,13,14
 285 1063 285 1063 406.5 1196.5 c 128,-1,15
 528 1330 528 1330 741 1386 c 1,16,-1
 764 1323 l 1,0,1
EndSplineSet
KernsSLIFO: 182 -152 0 0
EndChar
StartChar: quoteright
Encoding: 8217 8217 183
Width: 682
Flags: W
Fore
238 786 m 1,0,1
 375 825 375 825 450.5 892.5 c 128,-1,2
 526 960 526 960 526 1018 c 0,3,4
 526 1058 526 1058 461 1083 c 0,5,6
 367 1121 367 1121 367 1217 c 0,7,8
 367 1290 367 1290 417 1338 c 128,-1,9
 467 1386 467 1386 543 1386 c 0,10,11
 619 1386 619 1386 668 1333 c 128,-1,12
 717 1280 717 1280 717 1206 c 0,13,14
 717 1046 717 1046 595.5 913 c 128,-1,15
 474 780 474 780 260 723 c 1,16,-1
 238 786 l 1,0,1
EndSplineSet
KernsSLIFO: 183 -152 0 0 87 -76 0 0 86 -152 0 0 3 -152 0 0
EndChar
StartChar: divide
Encoding: 247 247 184
Width: 1124
Flags: W
Fore
618 1110 m 0,0,1
 661 1110 661 1110 690.5 1080 c 128,-1,2
 720 1050 720 1050 720 1008 c 0,3,4
 720 965 720 965 690.5 935 c 128,-1,5
 661 905 661 905 618 905 c 0,6,7
 575 905 575 905 545.5 935 c 128,-1,8
 516 965 516 965 516 1008 c 0,9,10
 516 1050 516 1050 545.5 1080 c 128,-1,11
 575 1110 575 1110 618 1110 c 0,0,1
1165 612 m 1,12,-1
 71 612 l 1,13,-1
 71 743 l 1,14,-1
 1165 743 l 1,15,-1
 1165 612 l 1,12,-1
618 451 m 0,16,17
 661 451 661 451 690.5 421 c 128,-1,18
 720 391 720 391 720 348 c 0,19,20
 720 305 720 305 690.5 275.5 c 128,-1,21
 661 246 661 246 618 246 c 0,22,23
 575 246 575 246 545.5 275.5 c 128,-1,24
 516 305 516 305 516 348 c 0,25,26
 516 391 516 391 545.5 421 c 128,-1,27
 575 451 575 451 618 451 c 0,16,17
EndSplineSet
EndChar
StartChar: lozenge
Encoding: 9674 9674 185
Width: 1012
Flags: W
Fore
967 709 m 1,0,-1
 549 0 l 1,1,-1
 438 0 l 1,2,-1
 47 709 l 1,3,-1
 438 1423 l 1,4,-1
 549 1423 l 1,5,-1
 967 709 l 1,0,-1
854 709 m 1,6,-1
 496 1325 l 1,7,-1
 156 709 l 1,8,-1
 496 94 l 1,9,-1
 854 709 l 1,6,-1
EndSplineSet
EndChar
StartChar: fraction
Encoding: 8725 8725 188
Width: 342
Flags: W
Fore
760 1386 m 1,0,-1
 -174 -31 l 1,1,-1
 -305 -31 l 1,2,-1
 629 1386 l 1,3,-1
 760 1386 l 1,0,-1
EndSplineSet
EndChar
StartChar: Euro
Encoding: 8364 8364 189
Width: 1024
Flags: W
Fore
502 737 m 1,0,1
 486 680 486 680 477 653 c 1,2,-1
 860 653 l 1,3,-1
 815 575 l 1,4,-1
 457 575 l 1,5,6
 403 369 403 369 403 262 c 0,7,8
 403 66 403 66 553 66 c 0,9,10
 645 66 645 66 731 123.5 c 128,-1,11
 817 181 817 181 915 299 c 1,12,-1
 952 264 l 1,13,14
 831 116 831 116 718 43.5 c 128,-1,15
 605 -29 605 -29 467 -29 c 0,16,17
 306 -29 306 -29 216.5 69 c 128,-1,18
 127 167 127 167 127 344 c 0,19,20
 127 455 127 455 156 575 c 1,21,-1
 14 575 l 1,22,-1
 59 653 l 1,23,-1
 174 653 l 1,24,25
 182 685 182 685 201 737 c 1,26,-1
 47 737 l 1,27,-1
 92 815 l 1,28,-1
 229 815 l 1,29,30
 347 1081 347 1081 546.5 1232.5 c 128,-1,31
 746 1384 746 1384 948 1384 c 0,32,33
 1033 1384 1033 1384 1090 1364.5 c 128,-1,34
 1147 1345 1147 1345 1223 1296 c 1,35,-1
 1137 997 l 1,36,-1
 1069 997 l 1,37,38
 1083 1061 1083 1061 1083 1122 c 0,39,40
 1083 1303 1083 1303 944 1303 c 0,41,42
 829 1303 829 1303 722 1178.5 c 128,-1,43
 615 1054 615 1054 526 815 c 1,44,-1
 952 815 l 1,45,-1
 907 737 l 1,46,-1
 502 737 l 1,0,1
EndSplineSet
EndChar
StartChar: guilsinglleft
Encoding: 8249 8249 190
Width: 682
Flags: W
Fore
713 938 m 1,0,-1
 330 469 l 1,1,-1
 442 0 l 1,2,-1
 348 0 l 1,3,-1
 76 469 l 1,4,-1
 618 938 l 1,5,-1
 713 938 l 1,0,-1
EndSplineSet
EndChar
StartChar: guilsinglright
Encoding: 8250 8250 191
Width: 682
Flags: W
Fore
561 469 m 1,0,-1
 18 0 l 1,1,-1
 -76 0 l 1,2,-1
 307 469 l 1,3,-1
 195 938 l 1,4,-1
 289 938 l 1,5,-1
 561 469 l 1,0,-1
EndSplineSet
EndChar
StartChar: fi
Encoding: 64257 64257 192
Width: 1139
Flags: W
Fore
524 842 m 1,0,-1
 348 195 l 2,1,2
 293 -6 293 -6 208.5 -144 c 128,-1,3
 124 -282 124 -282 16 -352 c 128,-1,4
 -92 -422 -92 -422 -217 -422 c 0,5,6
 -320 -422 -320 -422 -392.5 -364 c 128,-1,7
 -465 -306 -465 -306 -465 -238 c 0,8,9
 -465 -192 -465 -192 -436.5 -157.5 c 128,-1,10
 -408 -123 -408 -123 -369 -123 c 0,11,12
 -324 -123 -324 -123 -289.5 -153.5 c 128,-1,13
 -255 -184 -255 -184 -242 -233 c 0,14,15
 -217 -330 -217 -330 -170 -330 c 0,16,17
 -112 -330 -112 -330 -70.5 -257.5 c 128,-1,18
 -29 -185 -29 -185 12 -33 c 2,19,-1
 250 842 l 1,20,-1
 92 842 l 1,21,-1
 121 936 l 1,22,-1
 274 936 l 1,23,24
 320 1091 320 1091 342 1136 c 128,-1,25
 364 1181 364 1181 414 1236 c 128,-1,26
 464 1291 464 1291 530 1332.5 c 128,-1,27
 596 1374 596 1374 672 1397.5 c 128,-1,28
 748 1421 748 1421 827 1421 c 0,29,30
 957 1421 957 1421 1036.5 1368.5 c 128,-1,31
 1116 1316 1116 1316 1116 1233 c 0,32,33
 1116 1191 1116 1191 1087 1166 c 128,-1,34
 1058 1141 1058 1141 1008 1141 c 0,35,36
 963 1141 963 1141 930.5 1171 c 128,-1,37
 898 1201 898 1201 889 1251 c 0,38,39
 883 1283 883 1283 857 1306 c 128,-1,40
 831 1329 831 1329 801 1329 c 0,41,42
 761 1329 761 1329 722.5 1307 c 128,-1,43
 684 1285 684 1285 652.5 1239.5 c 128,-1,44
 621 1194 621 1194 600 1118 c 2,45,-1
 551 936 l 1,46,-1
 899 936 l 2,47,48
 1036 936 1036 936 1036 842 c 0,49,50
 1036 797 1036 797 1024 756 c 2,51,-1
 920 374 l 2,52,53
 879 220 879 220 873.5 193 c 128,-1,54
 868 166 868 166 868 154 c 0,55,56
 868 142 868 142 877.5 132.5 c 128,-1,57
 887 123 887 123 899 123 c 0,58,59
 959 123 959 123 1036 231 c 1,60,-1
 1094 193 l 1,61,62
 946 -29 946 -29 731 -29 c 0,63,64
 662 -29 662 -29 621 8.5 c 128,-1,65
 580 46 580 46 580 94 c 0,66,67
 580 143 580 143 592 184 c 2,68,-1
 698 573 l 2,69,70
 742 738 742 738 746 757.5 c 128,-1,71
 750 777 750 777 750 791 c 0,72,73
 750 842 750 842 686 842 c 2,74,-1
 524 842 l 1,0,-1
EndSplineSet
Ligature: 0 0 'liga' f i
EndChar
StartChar: fl
Encoding: 64258 64258 193
Width: 1139
Flags: W
Fore
524 842 m 1,0,-1
 348 195 l 2,1,2
 293 -6 293 -6 208.5 -144 c 128,-1,3
 124 -282 124 -282 16 -352 c 128,-1,4
 -92 -422 -92 -422 -217 -422 c 0,5,6
 -320 -422 -320 -422 -392.5 -364 c 128,-1,7
 -465 -306 -465 -306 -465 -238 c 0,8,9
 -465 -192 -465 -192 -436.5 -157.5 c 128,-1,10
 -408 -123 -408 -123 -369 -123 c 0,11,12
 -324 -123 -324 -123 -289.5 -153.5 c 128,-1,13
 -255 -184 -255 -184 -242 -233 c 0,14,15
 -217 -330 -217 -330 -170 -330 c 0,16,17
 -112 -330 -112 -330 -70.5 -257.5 c 128,-1,18
 -29 -185 -29 -185 12 -33 c 2,19,-1
 250 842 l 1,20,-1
 92 842 l 1,21,-1
 121 936 l 1,22,-1
 274 936 l 1,23,24
 320 1091 320 1091 342 1136 c 128,-1,25
 364 1181 364 1181 414 1236 c 128,-1,26
 464 1291 464 1291 530 1332.5 c 128,-1,27
 596 1374 596 1374 672 1397.5 c 128,-1,28
 748 1421 748 1421 827 1421 c 0,29,30
 928 1421 928 1421 993 1391 c 1,31,-1
 1120 1421 l 1,32,-1
 1202 1421 l 1,33,-1
 885 242 l 2,34,35
 868 180 868 180 868 154 c 0,36,37
 868 142 868 142 877.5 132.5 c 128,-1,38
 887 123 887 123 899 123 c 0,39,40
 959 123 959 123 1036 231 c 1,41,-1
 1094 193 l 1,42,43
 946 -29 946 -29 731 -29 c 0,44,45
 662 -29 662 -29 621 8.5 c 128,-1,46
 580 46 580 46 580 94 c 0,47,48
 580 139 580 139 592 184 c 2,49,-1
 877 1235 l 1,50,51
 875 1237 875 1237 874 1243 c 0,52,53
 859 1329 859 1329 801 1329 c 0,54,55
 761 1329 761 1329 722.5 1307 c 128,-1,56
 684 1285 684 1285 652.5 1239.5 c 128,-1,57
 621 1194 621 1194 600 1118 c 2,58,-1
 551 936 l 1,59,-1
 713 936 l 1,60,-1
 684 842 l 1,61,-1
 524 842 l 1,0,-1
EndSplineSet
Ligature: 0 0 'liga' f l
EndChar
StartChar: daggerdbl
Encoding: 8225 8225 194
Width: 1024
Flags: W
Fore
666 942 m 1,0,1
 724 942 724 942 811 999 c 0,2,3
 901 1057 901 1057 963 1057 c 0,4,5
 1008 1057 1008 1057 1047.5 1022 c 128,-1,6
 1087 987 1087 987 1087 936 c 0,7,8
 1087 877 1087 877 1046 829.5 c 128,-1,9
 1005 782 1005 782 938 782 c 0,10,11
 892 782 892 782 804 834 c 0,12,13
 709 889 709 889 655 889 c 1,14,15
 650 870 650 870 650 853 c 0,16,17
 650 825 650 825 670 783 c 0,18,19
 690 741 690 741 690 715 c 0,20,21
 690 688 690 688 676.5 661 c 128,-1,22
 663 634 663 634 611 587 c 0,23,24
 550 533 550 533 537.5 498 c 128,-1,25
 525 463 525 463 525 436 c 0,26,27
 525 403 525 403 554 356 c 0,28,29
 580 314 580 314 580 287 c 0,30,31
 580 261 580 261 567.5 234 c 128,-1,32
 555 207 555 207 505 162 c 0,33,34
 438 100 438 100 426 55 c 1,35,36
 472 55 472 55 566 109 c 0,37,38
 660 162 660 162 707 162 c 0,39,40
 752 162 752 162 791.5 127 c 128,-1,41
 831 92 831 92 831 41 c 0,42,43
 831 -18 831 -18 790 -65.5 c 128,-1,44
 749 -113 749 -113 682 -113 c 0,45,46
 629 -113 629 -113 545 -54 c 0,47,48
 464 2 464 2 416 2 c 1,49,50
 414 -14 414 -14 414 -33 c 0,51,52
 414 -66 414 -66 424 -133 c 0,53,54
 434 -199 434 -199 434 -231 c 0,55,56
 434 -331 434 -331 386.5 -386.5 c 128,-1,57
 339 -442 339 -442 260 -442 c 0,58,59
 211 -442 211 -442 180.5 -409.5 c 128,-1,60
 150 -377 150 -377 150 -324 c 0,61,62
 150 -290 150 -290 167.5 -252.5 c 128,-1,63
 185 -215 185 -215 254 -143 c 0,64,65
 343 -49 343 -49 354 2 c 1,66,67
 295 2 295 2 208 -55 c 0,68,69
 119 -113 119 -113 57 -113 c 0,70,71
 12 -113 12 -113 -28 -78 c 128,-1,72
 -68 -43 -68 -43 -68 8 c 0,73,74
 -68 68 -68 68 -27 115 c 128,-1,75
 14 162 14 162 82 162 c 0,76,77
 128 162 128 162 216 111 c 0,78,79
 311 55 311 55 365 55 c 1,80,81
 370 74 370 74 370 91 c 0,82,83
 370 119 370 119 349 162 c 0,84,85
 330 203 330 203 330 229 c 0,86,87
 330 255 330 255 341 282 c 128,-1,88
 352 309 352 309 396 353 c 0,89,90
 451 408 451 408 463 449 c 128,-1,91
 475 490 475 490 475 518 c 0,92,93
 475 548 475 548 457 591 c 0,94,95
 440 631 440 631 440 657 c 0,96,97
 440 683 440 683 452.5 710 c 128,-1,98
 465 737 465 737 514 782 c 0,99,100
 582 844 582 844 594 889 c 1,101,102
 548 889 548 889 454 836 c 0,103,104
 359 782 359 782 313 782 c 0,105,106
 268 782 268 782 228 817 c 128,-1,107
 188 852 188 852 188 903 c 0,108,109
 188 963 188 963 229 1010 c 128,-1,110
 270 1057 270 1057 338 1057 c 0,111,112
 391 1057 391 1057 475 998 c 0,113,114
 556 942 556 942 604 942 c 1,115,116
 606 958 606 958 606 977 c 0,117,118
 606 1010 606 1010 596 1077 c 0,119,120
 586 1144 586 1144 586 1176 c 0,121,122
 586 1275 586 1275 633.5 1330.5 c 128,-1,123
 681 1386 681 1386 760 1386 c 0,124,125
 809 1386 809 1386 839.5 1353.5 c 128,-1,126
 870 1321 870 1321 870 1268 c 0,127,128
 870 1234 870 1234 852.5 1196.5 c 128,-1,129
 835 1159 835 1159 766 1087 c 0,130,131
 677 993 677 993 666 942 c 1,0,1
EndSplineSet
EndChar
StartChar: periodcentered
Encoding: 8729 8729 195
Width: 512
Flags: W
Fore
317 842 m 0,0,1
 386 842 386 842 434.5 793.5 c 128,-1,2
 483 745 483 745 483 676 c 0,3,4
 483 607 483 607 435 558.5 c 128,-1,5
 387 510 387 510 317 510 c 0,6,7
 249 510 249 510 200.5 558.5 c 128,-1,8
 152 607 152 607 152 676 c 0,9,10
 152 745 152 745 200.5 793.5 c 128,-1,11
 249 842 249 842 317 842 c 0,0,1
EndSplineSet
EndChar
StartChar: quotesinglbase
Encoding: 8218 8218 196
Width: 682
Flags: W
Fore
-90 -299 m 1,0,1
 47 -260 47 -260 123 -193 c 128,-1,2
 199 -126 199 -126 199 -68 c 0,3,4
 199 -27 199 -27 133 -2 c 0,5,6
 39 36 39 36 39 131 c 0,7,8
 39 205 39 205 89.5 253 c 128,-1,9
 140 301 140 301 215 301 c 0,10,11
 292 301 292 301 340.5 248 c 128,-1,12
 389 195 389 195 389 121 c 0,13,14
 389 -39 389 -39 267.5 -172.5 c 128,-1,15
 146 -306 146 -306 -68 -362 c 1,16,-1
 -90 -299 l 1,0,1
EndSplineSet
KernsSLIFO: 338 -180 0 0 335 -360 0 0 330 -231 0 0 308 -231 0 0 299 -231 0 0
EndChar
StartChar: quotedblbase
Encoding: 8222 8222 197
Width: 1024
Flags: W
Fore
326 -299 m 1,0,1
 463 -260 463 -260 538.5 -193 c 128,-1,2
 614 -126 614 -126 614 -68 c 0,3,4
 614 -27 614 -27 549 -2 c 0,5,6
 455 36 455 36 455 131 c 0,7,8
 455 205 455 205 505 253 c 128,-1,9
 555 301 555 301 631 301 c 0,10,11
 708 301 708 301 756.5 248 c 128,-1,12
 805 195 805 195 805 121 c 0,13,14
 805 -39 805 -39 683.5 -172.5 c 128,-1,15
 562 -306 562 -306 348 -362 c 1,16,-1
 326 -299 l 1,0,1
-119 -299 m 1,17,18
 19 -260 19 -260 94.5 -193 c 128,-1,19
 170 -126 170 -126 170 -68 c 0,20,21
 170 -27 170 -27 104 -2 c 0,22,23
 10 36 10 36 10 131 c 0,24,25
 10 205 10 205 60.5 253 c 128,-1,26
 111 301 111 301 186 301 c 0,27,28
 263 301 263 301 311.5 248 c 128,-1,29
 360 195 360 195 360 121 c 0,30,31
 360 -39 360 -39 238.5 -172.5 c 128,-1,32
 117 -306 117 -306 -96 -362 c 1,33,-1
 -119 -299 l 1,17,18
EndSplineSet
KernsSLIFO: 338 -102 0 0 335 -256 0 0 330 -231 0 0 308 -231 0 0 299 -231 0 0
EndChar
StartChar: perthousand
Encoding: 8240 8240 198
Width: 2048
Flags: W
Fore
1403 1386 m 1,0,-1
 180 -31 l 1,1,-1
 57 -31 l 1,2,-1
 1280 1386 l 1,3,-1
 1403 1386 l 1,0,-1
537 1384 m 0,4,5
 649 1384 649 1384 716.5 1309.5 c 128,-1,6
 784 1235 784 1235 784 1120 c 0,7,8
 784 945 784 945 662 798 c 128,-1,9
 540 651 540 651 373 651 c 0,10,11
 261 651 261 651 193 725.5 c 128,-1,12
 125 800 125 800 125 915 c 0,13,14
 125 1091 125 1091 247.5 1237.5 c 128,-1,15
 370 1384 370 1384 537 1384 c 0,4,5
377 709 m 0,16,17
 413 709 413 709 458 787 c 128,-1,18
 503 865 503 865 546.5 1033 c 128,-1,19
 590 1201 590 1201 590 1247 c 0,20,21
 590 1327 590 1327 532 1327 c 0,22,23
 496 1327 496 1327 451.5 1248.5 c 128,-1,24
 407 1170 407 1170 363 1002.5 c 128,-1,25
 319 835 319 835 319 788 c 0,26,27
 319 709 319 709 377 709 c 0,16,17
1792 705 m 0,28,29
 1904 705 1904 705 1972 630.5 c 128,-1,30
 2040 556 2040 556 2040 440 c 0,31,32
 2040 265 2040 265 1917.5 118 c 128,-1,33
 1795 -29 1795 -29 1628 -29 c 0,34,35
 1516 -29 1516 -29 1448 45.5 c 128,-1,36
 1380 120 1380 120 1380 236 c 0,37,38
 1380 411 1380 411 1502.5 558 c 128,-1,39
 1625 705 1625 705 1792 705 c 0,28,29
1632 29 m 0,40,41
 1668 29 1668 29 1713 107.5 c 128,-1,42
 1758 186 1758 186 1801.5 353.5 c 128,-1,43
 1845 521 1845 521 1845 567 c 0,44,45
 1845 647 1845 647 1788 647 c 0,46,47
 1752 647 1752 647 1707 568.5 c 128,-1,48
 1662 490 1662 490 1618.5 322.5 c 128,-1,49
 1575 155 1575 155 1575 109 c 0,50,51
 1575 29 1575 29 1632 29 c 0,40,41
1090 705 m 0,52,53
 1202 705 1202 705 1269.5 630.5 c 128,-1,54
 1337 556 1337 556 1337 440 c 0,55,56
 1337 265 1337 265 1215 118 c 128,-1,57
 1093 -29 1093 -29 926 -29 c 0,58,59
 814 -29 814 -29 746 45.5 c 128,-1,60
 678 120 678 120 678 236 c 0,61,62
 678 411 678 411 800.5 558 c 128,-1,63
 923 705 923 705 1090 705 c 0,52,53
930 29 m 0,64,65
 966 29 966 29 1011 107.5 c 128,-1,66
 1056 186 1056 186 1099.5 353.5 c 128,-1,67
 1143 521 1143 521 1143 567 c 0,68,69
 1143 647 1143 647 1085 647 c 0,70,71
 1049 647 1049 647 1004.5 568.5 c 128,-1,72
 960 490 960 490 916 322.5 c 128,-1,73
 872 155 872 155 872 109 c 0,74,75
 872 29 872 29 930 29 c 0,64,65
EndSplineSet
EndChar
StartChar: glyph210
Encoding: 65540 -1 210
Width: 717
Flags: W
Fore
410 944 m 0,0,1
 518 944 518 944 597 865 c 128,-1,2
 676 786 676 786 676 678 c 0,3,4
 676 569 676 569 597 490.5 c 128,-1,5
 518 412 518 412 410 412 c 0,6,7
 301 412 301 412 222 490.5 c 128,-1,8
 143 569 143 569 143 678 c 0,9,10
 143 786 143 786 222 865 c 128,-1,11
 301 944 301 944 410 944 c 0,0,1
EndSplineSet
EndChar
StartChar: dotlessi
Encoding: 305 305 215
Width: 569
Flags: W
Fore
549 193 m 1,0,1
 401 -29 401 -29 186 -29 c 0,2,3
 117 -29 117 -29 76 8.5 c 128,-1,4
 35 46 35 46 35 94 c 0,5,6
 35 143 35 143 47 184 c 2,7,-1
 150 566 l 2,8,9
 192 720 192 720 197.5 745 c 128,-1,10
 203 770 203 770 203 782 c 0,11,12
 203 813 203 813 178 813 c 0,13,14
 133 813 133 813 66 721 c 1,15,-1
 10 760 l 1,16,17
 146 965 146 965 350 965 c 0,18,19
 417 965 417 965 454.5 927 c 128,-1,20
 492 889 492 889 492 827 c 0,21,22
 492 797 492 797 479 756 c 2,23,-1
 376 374 l 2,24,25
 334 220 334 220 329 193 c 128,-1,26
 324 166 324 166 324 154 c 0,27,28
 324 142 324 142 333.5 132.5 c 128,-1,29
 343 123 343 123 354 123 c 0,30,31
 414 123 414 123 492 231 c 1,32,-1
 549 193 l 1,0,1
EndSplineSet
EndChar
StartChar: circumflex
Encoding: 710 710 216
Width: 682
Flags: W
Fore
809 1051 m 1,0,-1
 735 1051 l 1,1,-1
 549 1202 l 1,2,-1
 276 1051 l 1,3,-1
 203 1051 l 1,4,-1
 479 1348 l 1,5,-1
 705 1348 l 1,6,-1
 809 1051 l 1,0,-1
EndSplineSet
EndChar
StartChar: tilde
Encoding: 732 732 217
Width: 682
Flags: W
Fore
868 1339 m 1,0,1
 868 1216 868 1216 818.5 1138.5 c 128,-1,2
 769 1061 769 1061 678 1061 c 0,3,4
 600 1061 600 1061 512 1110 c 0,5,6
 424 1159 424 1159 371 1159 c 0,7,8
 292 1159 292 1159 285 1061 c 1,9,-1
 229 1061 l 1,10,11
 229 1184 229 1184 279 1261.5 c 128,-1,12
 329 1339 329 1339 420 1339 c 0,13,14
 497 1339 497 1339 586 1290 c 0,15,16
 674 1241 674 1241 727 1241 c 0,17,18
 806 1241 806 1241 813 1339 c 1,19,-1
 868 1339 l 1,0,1
EndSplineSet
EndChar
StartChar: macron
Encoding: 713 713 218
Width: 682
Flags: W
Fore
893 1300 m 1,0,-1
 840 1120 l 1,1,-1
 203 1120 l 1,2,-1
 256 1300 l 1,3,-1
 893 1300 l 1,0,-1
EndSplineSet
EndChar
StartChar: breve
Encoding: 728 728 219
Width: 682
Flags: W
Fore
893 1368 m 1,0,1
 849 1230 849 1230 744.5 1148.5 c 128,-1,2
 640 1067 640 1067 520 1067 c 0,3,4
 417 1067 417 1067 342.5 1132 c 128,-1,5
 268 1197 268 1197 268 1296 c 0,6,7
 268 1327 268 1327 279 1368 c 1,8,-1
 334 1368 l 1,9,10
 342 1315 342 1315 402.5 1285 c 128,-1,11
 463 1255 463 1255 553 1255 c 0,12,13
 748 1255 748 1255 838 1368 c 1,14,-1
 893 1368 l 1,0,1
EndSplineSet
EndChar
StartChar: dotaccent
Encoding: 729 729 220
Width: 682
Flags: W
Fore
553 1362 m 0,0,1
 611 1362 611 1362 653.5 1319.5 c 128,-1,2
 696 1277 696 1277 696 1219 c 0,3,4
 696 1160 696 1160 653.5 1117.5 c 128,-1,5
 611 1075 611 1075 553 1075 c 0,6,7
 495 1075 495 1075 452.5 1117.5 c 128,-1,8
 410 1160 410 1160 410 1219 c 0,9,10
 410 1277 410 1277 452.5 1319.5 c 128,-1,11
 495 1362 495 1362 553 1362 c 0,0,1
EndSplineSet
EndChar
StartChar: ring
Encoding: 730 730 221
Width: 682
Flags: W
Fore
553 1456 m 0,0,1
 640 1456 640 1456 702 1394 c 128,-1,2
 764 1332 764 1332 764 1245 c 0,3,4
 764 1158 764 1158 702.5 1096 c 128,-1,5
 641 1034 641 1034 553 1034 c 0,6,7
 466 1034 466 1034 404 1096 c 128,-1,8
 342 1158 342 1158 342 1245 c 0,9,10
 342 1332 342 1332 404 1394 c 128,-1,11
 466 1456 466 1456 553 1456 c 0,0,1
553 1112 m 0,12,13
 606 1112 606 1112 646 1152 c 128,-1,14
 686 1192 686 1192 686 1245 c 0,15,16
 686 1299 686 1299 646.5 1338.5 c 128,-1,17
 607 1378 607 1378 553 1378 c 0,18,19
 499 1378 499 1378 459.5 1338.5 c 128,-1,20
 420 1299 420 1299 420 1245 c 0,21,22
 420 1191 420 1191 459.5 1151.5 c 128,-1,23
 499 1112 499 1112 553 1112 c 0,12,13
EndSplineSet
EndChar
StartChar: cedilla
Encoding: 184 184 222
Width: 682
Flags: W
Fore
354 -96 m 1,0,1
 399 -86 399 -86 440 -86 c 0,2,3
 494 -86 494 -86 530.5 -120 c 128,-1,4
 567 -154 567 -154 567 -199 c 0,5,6
 567 -287 567 -287 468.5 -346.5 c 128,-1,7
 370 -406 370 -406 201 -406 c 0,8,9
 125 -406 125 -406 59 -389 c 1,10,-1
 86 -330 l 1,11,12
 121 -342 121 -342 195 -342 c 0,13,14
 259 -342 259 -342 302.5 -311 c 128,-1,15
 346 -280 346 -280 346 -227 c 0,16,17
 346 -200 346 -200 325.5 -184 c 128,-1,18
 305 -168 305 -168 281 -168 c 0,19,20
 260 -168 260 -168 231 -174 c 1,21,-1
 322 0 l 1,22,-1
 403 0 l 1,23,-1
 354 -96 l 1,0,1
EndSplineSet
EndChar
StartChar: hungarumlaut
Encoding: 733 733 223
Width: 682
Flags: W
Fore
961 1348 m 1,0,-1
 739 1051 l 1,1,-1
 645 1051 l 1,2,-1
 711 1348 l 1,3,-1
 961 1348 l 1,0,-1
647 1348 m 1,4,-1
 426 1051 l 1,5,-1
 332 1051 l 1,6,-1
 397 1348 l 1,7,-1
 647 1348 l 1,4,-1
EndSplineSet
EndChar
StartChar: ogonek
Encoding: 731 731 224
Width: 682
Flags: W
Fore
631 -279 m 1,0,1
 581 -334 581 -334 500.5 -370 c 128,-1,2
 420 -406 420 -406 344 -406 c 0,3,4
 233 -406 233 -406 165.5 -357.5 c 128,-1,5
 98 -309 98 -309 98 -225 c 0,6,7
 98 -183 98 -183 128.5 -137 c 128,-1,8
 159 -91 159 -91 234.5 -37.5 c 128,-1,9
 310 16 310 16 326 16 c 2,10,-1
 428 16 l 1,11,12
 305 -94 305 -94 305 -190 c 0,13,14
 305 -239 305 -239 337 -269 c 128,-1,15
 369 -299 369 -299 418 -299 c 0,16,17
 513 -299 513 -299 594 -231 c 1,18,-1
 631 -279 l 1,0,1
EndSplineSet
EndChar
StartChar: caron
Encoding: 711 711 225
Width: 682
Flags: W
Fore
907 1395 m 1,0,-1
 631 1098 l 1,1,-1
 406 1098 l 1,2,-1
 301 1395 l 1,3,-1
 375 1395 l 1,4,-1
 561 1243 l 1,5,-1
 834 1395 l 1,6,-1
 907 1395 l 1,0,-1
EndSplineSet
EndChar
StartChar: Lslash
Encoding: 321 321 226
Width: 1251
Flags: W
Fore
1192 412 m 1,0,-1
 1073 0 l 1,1,-1
 -66 0 l 1,2,-1
 -49 68 l 1,3,4
 58 68 58 68 98 91.5 c 128,-1,5
 138 115 138 115 182 268 c 2,6,-1
 260 537 l 1,7,-1
 78 449 l 1,8,-1
 47 516 l 1,9,-1
 287 633 l 1,10,-1
 418 1087 l 2,11,12
 446 1181 446 1181 446 1219 c 0,13,14
 446 1288 446 1288 281 1288 c 1,15,-1
 297 1356 l 1,16,-1
 967 1356 l 1,17,-1
 950 1288 l 1,18,19
 820 1288 820 1288 787.5 1250.5 c 128,-1,20
 755 1213 755 1213 719 1087 c 2,21,-1
 639 803 l 1,22,-1
 903 932 l 1,23,-1
 936 864 l 1,24,-1
 610 707 l 1,25,-1
 465 195 l 2,26,27
 455 157 455 157 455 141 c 0,28,29
 455 92 455 92 547 92 c 2,30,-1
 762 92 l 2,31,32
 1035 92 1035 92 1124 412 c 1,33,-1
 1192 412 l 1,0,-1
EndSplineSet
EndChar
StartChar: lslash
Encoding: 322 322 227
Width: 569
Flags: W
Fore
475 745 m 1,0,-1
 340 242 l 2,1,2
 324 180 324 180 324 154 c 0,3,4
 324 142 324 142 333.5 132.5 c 128,-1,5
 343 123 343 123 354 123 c 0,6,7
 414 123 414 123 492 231 c 1,8,-1
 549 193 l 1,9,10
 401 -29 401 -29 186 -29 c 0,11,12
 117 -29 117 -29 76 8.5 c 128,-1,13
 35 46 35 46 35 94 c 0,14,15
 35 139 35 139 47 184 c 2,16,-1
 145 549 l 1,17,-1
 16 471 l 1,18,-1
 -20 537 l 1,19,-1
 174 653 l 1,20,-1
 297 1106 l 2,21,22
 317 1184 317 1184 317 1214 c 0,23,24
 317 1233 317 1233 302 1245.5 c 128,-1,25
 287 1258 287 1258 180 1262 c 1,26,-1
 180 1325 l 1,27,-1
 575 1421 l 1,28,-1
 657 1421 l 1,29,-1
 504 850 l 1,30,-1
 633 928 l 1,31,-1
 670 862 l 1,32,-1
 475 745 l 1,0,-1
EndSplineSet
EndChar
StartChar: brokenbar
Encoding: 166 166 232
Width: 451
Flags: W
Fore
313 739 m 1,0,-1
 182 739 l 1,1,-1
 182 1421 l 1,2,-1
 313 1421 l 1,3,-1
 313 739 l 1,0,-1
313 -442 m 1,4,-1
 182 -442 l 1,5,-1
 182 240 l 1,6,-1
 313 240 l 1,7,-1
 313 -442 l 1,4,-1
EndSplineSet
EndChar
StartChar: Eth
Encoding: 208 208 233
Width: 1479
Flags: W
Fore
297 1356 m 1,0,-1
 778 1356 l 2,1,2
 1106 1356 1106 1356 1272 1207.5 c 128,-1,3
 1438 1059 1438 1059 1438 803 c 0,4,5
 1438 592 1438 592 1329 402.5 c 128,-1,6
 1220 213 1220 213 1003 106.5 c 128,-1,7
 786 0 786 0 469 0 c 2,8,-1
 -66 0 l 1,9,-1
 -49 68 l 1,10,11
 31 68 31 68 68.5 79.5 c 128,-1,12
 106 91 106 91 128.5 126.5 c 128,-1,13
 151 162 151 162 193 306 c 2,14,-1
 293 655 l 1,15,-1
 78 655 l 1,16,-1
 104 748 l 1,17,-1
 319 748 l 1,18,19
 426 1116 426 1116 436 1159.5 c 128,-1,20
 446 1203 446 1203 446 1219 c 0,21,22
 446 1288 446 1288 281 1288 c 1,23,-1
 297 1356 l 1,0,-1
596 655 m 1,24,-1
 477 243 l 2,25,26
 461 185 461 185 461 162 c 0,27,28
 461 92 461 92 573 92 c 0,29,30
 809 92 809 92 964.5 332 c 128,-1,31
 1120 572 1120 572 1120 848 c 0,32,33
 1120 1039 1120 1039 1036 1151.5 c 128,-1,34
 952 1264 952 1264 770 1264 c 1,35,-1
 621 748 l 1,36,-1
 885 748 l 1,37,-1
 858 655 l 1,38,-1
 596 655 l 1,24,-1
EndSplineSet
EndChar
StartChar: eth
Encoding: 240 240 234
Width: 1024
Flags: W
Fore
1014 1358 m 1,0,-1
 774 1229 l 1,1,2
 961 953 961 953 961 641 c 0,3,4
 961 373 961 373 795.5 172 c 128,-1,5
 630 -29 630 -29 377 -29 c 0,6,7
 230 -29 230 -29 139.5 64 c 128,-1,8
 49 157 49 157 49 295 c 0,9,10
 49 562 49 562 213.5 763.5 c 128,-1,11
 378 965 378 965 631 965 c 0,12,13
 648 965 648 965 674 961 c 1,14,15
 674 1046 674 1046 639 1157 c 1,16,-1
 399 1026 l 1,17,-1
 365 1090 l 1,18,-1
 616 1225 l 1,19,20
 587 1301 587 1301 543 1376 c 1,21,-1
 602 1421 l 1,22,23
 676 1358 676 1358 731 1286 c 1,24,-1
 979 1421 l 1,25,-1
 1014 1358 l 1,0,-1
403 61 m 0,26,27
 472 61 472 61 533 178 c 128,-1,28
 594 295 594 295 634 477 c 128,-1,29
 674 659 674 659 674 739 c 0,30,31
 674 874 674 874 606 874 c 0,32,33
 534 874 534 874 473 759 c 128,-1,34
 412 644 412 644 374 462 c 128,-1,35
 336 280 336 280 336 195 c 0,36,37
 336 61 336 61 403 61 c 0,26,27
EndSplineSet
EndChar
StartChar: Thorn
Encoding: 222 222 237
Width: 1251
Flags: W
Fore
731 1126 m 1,0,-1
 860 1126 l 2,1,2
 1055 1126 1055 1126 1158.5 1031 c 128,-1,3
 1262 936 1262 936 1262 793 c 0,4,5
 1262 595 1262 595 1085 460.5 c 128,-1,6
 908 326 908 326 668 326 c 2,7,-1
 500 326 l 1,8,9
 455 171 455 171 455 137 c 0,10,11
 455 68 455 68 621 68 c 1,12,-1
 604 0 l 1,13,-1
 -66 0 l 1,14,-1
 -49 68 l 1,15,16
 58 68 58 68 98 91.5 c 128,-1,17
 138 115 138 115 182 268 c 2,18,-1
 418 1087 l 2,19,20
 446 1181 446 1181 446 1219 c 0,21,22
 446 1288 446 1288 281 1288 c 1,23,-1
 297 1356 l 1,24,-1
 967 1356 l 1,25,-1
 950 1288 l 1,26,27
 840 1288 840 1288 802.5 1260.5 c 128,-1,28
 765 1233 765 1233 731 1126 c 1,0,-1
528 424 m 1,29,-1
 584 424 l 2,30,31
 738 424 738 424 844 536.5 c 128,-1,32
 950 649 950 649 950 817 c 0,33,34
 950 1038 950 1038 758 1038 c 0,35,36
 741 1038 741 1038 705 1032 c 1,37,-1
 528 424 l 1,29,-1
EndSplineSet
EndChar
StartChar: thorn
Encoding: 254 254 238
Width: 1024
Flags: W
Fore
487 752 m 1,0,1
 555 852 555 852 641.5 908.5 c 128,-1,2
 728 965 728 965 805 965 c 0,3,4
 894 965 894 965 940.5 895.5 c 128,-1,5
 987 826 987 826 987 696 c 0,6,7
 987 417 987 417 818.5 194 c 128,-1,8
 650 -29 650 -29 412 -29 c 0,9,10
 331 -29 331 -29 283 -4 c 1,11,12
 209 -274 209 -274 209 -301 c 0,13,14
 209 -371 209 -371 375 -371 c 1,15,-1
 358 -438 l 1,16,-1
 -287 -438 l 1,17,-1
 -270 -371 l 1,18,19
 -152 -371 -152 -371 -113.5 -338 c 128,-1,20
 -75 -305 -75 -305 -39 -170 c 2,21,-1
 307 1106 l 2,22,23
 328 1184 328 1184 328 1214 c 0,24,25
 328 1233 328 1233 312.5 1245.5 c 128,-1,26
 297 1258 297 1258 190 1262 c 1,27,-1
 190 1325 l 1,28,-1
 586 1421 l 1,29,-1
 668 1421 l 1,30,-1
 487 752 l 1,0,1
313 109 m 1,31,32
 345 61 345 61 412 61 c 0,33,34
 507 61 507 61 603.5 274 c 128,-1,35
 700 487 700 487 700 692 c 0,36,37
 700 778 700 778 645 778 c 0,38,39
 620 778 620 778 585 751.5 c 128,-1,40
 550 725 550 725 500.5 667 c 128,-1,41
 451 609 451 609 446 591 c 2,42,-1
 313 109 l 1,31,32
EndSplineSet
EndChar
StartChar: minus
Encoding: 8722 8722 239
Width: 1241
Flags: W
Fore
1223 612 m 1,0,-1
 129 612 l 1,1,-1
 129 743 l 1,2,-1
 1223 743 l 1,3,-1
 1223 612 l 1,0,-1
EndSplineSet
EndChar
StartChar: multiply
Encoding: 215 215 240
Width: 1167
Flags: W
Fore
1079 330 m 1,0,-1
 987 238 l 1,1,-1
 639 586 l 1,2,-1
 291 238 l 1,3,-1
 199 330 l 1,4,-1
 547 678 l 1,5,-1
 199 1026 l 1,6,-1
 291 1118 l 1,7,-1
 639 770 l 1,8,-1
 987 1118 l 1,9,-1
 1079 1026 l 1,10,-1
 731 678 l 1,11,-1
 1079 330 l 1,0,-1
EndSplineSet
EndChar
StartChar: onesuperior
Encoding: 185 185 241
Width: 614
Flags: W
Fore
651 1386 m 1,0,1
 482 804 482 804 477.5 783.5 c 128,-1,2
 473 763 473 763 473 752 c 0,3,4
 473 729 473 729 493.5 722 c 128,-1,5
 514 715 514 715 567 715 c 1,6,-1
 553 664 l 1,7,-1
 115 664 l 1,8,-1
 129 715 l 1,9,10
 191 715 191 715 218.5 722.5 c 128,-1,11
 246 730 246 730 256.5 746.5 c 128,-1,12
 267 763 267 763 297 866 c 2,13,-1
 365 1104 l 2,14,15
 404 1238 404 1238 404 1247 c 0,16,17
 404 1274 404 1274 346 1274 c 2,18,-1
 291 1274 l 1,19,-1
 307 1325 l 1,20,21
 345 1325 345 1325 390.5 1331.5 c 128,-1,22
 436 1338 436 1338 477 1354 c 2,23,-1
 555 1386 l 1,24,-1
 651 1386 l 1,0,1
EndSplineSet
EndChar
StartChar: twosuperior
Encoding: 178 178 242
Width: 614
Flags: W
Fore
164 1169 m 1,0,1
 226 1266 226 1266 323.5 1326 c 128,-1,2
 421 1386 421 1386 516 1386 c 0,3,4
 603 1386 603 1386 655 1344 c 128,-1,5
 707 1302 707 1302 707 1233 c 0,6,7
 707 1139 707 1139 624 1056 c 128,-1,8
 541 973 541 973 246 807 c 1,9,-1
 453 807 l 2,10,11
 519 807 519 807 541.5 830 c 128,-1,12
 564 853 564 853 580 905 c 1,13,-1
 631 905 l 1,14,-1
 561 664 l 1,15,-1
 16 664 l 1,16,-1
 33 721 l 1,17,18
 265 880 265 880 380.5 994.5 c 128,-1,19
 496 1109 496 1109 496 1192 c 0,20,21
 496 1260 496 1260 416 1260 c 0,22,23
 308 1260 308 1260 203 1147 c 1,24,-1
 164 1169 l 1,0,1
EndSplineSet
EndChar
StartChar: threesuperior
Encoding: 179 179 243
Width: 614
Flags: W
Fore
229 1249 m 1,0,1
 359 1386 359 1386 518 1386 c 0,2,3
 594 1386 594 1386 642 1352 c 128,-1,4
 690 1318 690 1318 690 1268 c 0,5,6
 690 1145 690 1145 512 1083 c 1,7,-1
 512 1081 l 1,8,9
 641 1056 641 1056 641 950 c 0,10,11
 641 825 641 825 519.5 737 c 128,-1,12
 398 649 398 649 223 649 c 0,13,14
 107 649 107 649 37 694 c 1,15,-1
 72 741 l 1,16,17
 139 711 139 711 205 711 c 0,18,19
 297 711 297 711 363.5 781.5 c 128,-1,20
 430 852 430 852 430 942 c 0,21,22
 430 981 430 981 406 1004.5 c 128,-1,23
 382 1028 382 1028 342 1028 c 0,24,25
 328 1028 328 1028 285 1022 c 1,26,-1
 301 1077 l 1,27,28
 399 1095 399 1095 451.5 1136.5 c 128,-1,29
 504 1178 504 1178 504 1227 c 0,30,31
 504 1288 504 1288 424 1288 c 0,32,33
 338 1288 338 1288 264 1221 c 1,34,-1
 229 1249 l 1,0,1
EndSplineSet
EndChar
StartChar: uni00AF
Encoding: 175 175 248
Width: 1024
Flags: W
Fore
1040 1507 m 1,0,-1
 -16 1507 l 1,1,-1
 -16 1610 l 1,2,-1
 1040 1610 l 1,3,-1
 1040 1507 l 1,0,-1
EndSplineSet
EndChar
StartChar: foursuperior
Encoding: 8308 8308 249
Width: 614
Flags: W
Fore
653 965 m 1,0,-1
 616 842 l 1,1,-1
 494 842 l 1,2,3
 474 769 474 769 474 754 c 0,4,5
 474 730 474 730 495.5 722.5 c 128,-1,6
 517 715 517 715 573 715 c 1,7,-1
 557 664 l 1,8,-1
 94 664 l 1,9,-1
 111 715 l 1,10,11
 186 715 186 715 217.5 723.5 c 128,-1,12
 249 732 249 732 259 749.5 c 128,-1,13
 269 767 269 767 289 842 c 1,14,-1
 -23 842 l 1,15,-1
 10 956 l 1,16,-1
 485 1386 l 1,17,-1
 651 1386 l 1,18,-1
 530 965 l 1,19,-1
 653 965 l 1,0,-1
399 1223 m 1,20,-1
 113 965 l 1,21,-1
 326 965 l 1,22,-1
 399 1223 l 1,20,-1
EndSplineSet
EndChar
StartChar: Aogonek
Encoding: 260 260 252
Width: 1366
Flags: W
Fore
795 528 m 1,0,-1
 717 1010 l 1,1,-1
 412 528 l 1,2,-1
 795 528 l 1,0,-1
776 -357.5 m 128,-1,4
 709 -309 709 -309 709 -225 c 0,5,6
 709 -110 709 -110 903 0 c 1,7,-1
 647 0 l 1,8,-1
 666 68 l 1,9,10
 765 68 765 68 808.5 88 c 128,-1,11
 852 108 852 108 852 163 c 0,12,13
 852 180 852 180 813 424 c 1,14,-1
 346 424 l 1,15,16
 211 211 211 211 199.5 189 c 128,-1,17
 188 167 188 167 188 133 c 0,18,19
 188 68 188 68 307 68 c 1,20,-1
 289 0 l 1,21,-1
 -152 0 l 1,22,-1
 -133 68 l 1,23,24
 -50 68 -50 68 -3.5 105 c 128,-1,25
 43 142 43 142 98 227 c 2,26,-1
 848 1386 l 1,27,-1
 934 1386 l 1,28,-1
 1143 176 l 2,29,30
 1154 115 1154 115 1192 91.5 c 128,-1,31
 1230 68 1230 68 1313 68 c 1,32,-1
 1294 0 l 1,33,-1
 1020 0 l 1,34,35
 915 -101 915 -101 915 -190 c 0,36,37
 915 -240 915 -240 947.5 -269.5 c 128,-1,38
 980 -299 980 -299 1028 -299 c 0,39,40
 1123 -299 1123 -299 1204 -231 c 1,41,-1
 1241 -279 l 1,42,43
 1191 -334 1191 -334 1111 -370 c 128,-1,44
 1031 -406 1031 -406 954 -406 c 0,45,3
 843 -406 843 -406 776 -357.5 c 128,-1,4
EndSplineSet
EndChar
StartChar: aogonek
Encoding: 261 261 253
Width: 1024
Flags: W
Fore
698 827 m 1,0,1
 669 874 669 874 616 874 c 0,2,3
 521 874 521 874 424.5 661.5 c 128,-1,4
 328 449 328 449 328 244 c 0,5,6
 328 158 328 158 377 158 c 0,7,8
 421 158 421 158 492 242.5 c 128,-1,9
 563 327 563 327 567 344 c 2,10,-1
 698 827 l 1,0,1
526 184 m 1,11,12
 391 -29 391 -29 223 -29 c 0,13,14
 145 -29 145 -29 93 45.5 c 128,-1,15
 41 120 41 120 41 240 c 0,16,17
 41 519 41 519 210 742 c 128,-1,18
 379 965 379 965 616 965 c 0,19,20
 701 965 701 965 788 911 c 1,21,-1
 922 932 l 1,22,-1
 1004 932 l 1,23,-1
 869 433 l 2,24,25
 812 221 812 221 806.5 194 c 128,-1,26
 801 167 801 167 801 154 c 0,27,28
 801 142 801 142 810.5 132.5 c 128,-1,29
 820 123 820 123 831 123 c 0,30,31
 891 123 891 123 969 231 c 1,32,-1
 1026 193 l 1,33,34
 949 81 949 81 858 12 c 0,35,36
 800 -32 800 -32 766.5 -86.5 c 128,-1,37
 733 -141 733 -141 733 -190 c 0,38,39
 733 -239 733 -239 765.5 -269 c 128,-1,40
 798 -299 798 -299 846 -299 c 0,41,42
 941 -299 941 -299 1022 -231 c 1,43,-1
 1059 -279 l 1,44,45
 1009 -334 1009 -334 928.5 -370 c 128,-1,46
 848 -406 848 -406 772 -406 c 0,47,48
 661 -406 661 -406 593.5 -357.5 c 128,-1,49
 526 -309 526 -309 526 -225 c 0,50,51
 526 -128 526 -128 674 -29 c 1,52,-1
 664 -29 l 2,53,54
 595 -29 595 -29 554.5 8.5 c 128,-1,55
 514 46 514 46 514 94 c 0,56,57
 514 143 514 143 526 184 c 1,11,12
EndSplineSet
EndChar
StartChar: dcroat
Encoding: 273 273 261
Width: 1024
Flags: W
Fore
698 827 m 1,0,1
 669 874 669 874 616 874 c 0,2,3
 521 874 521 874 424.5 661.5 c 128,-1,4
 328 449 328 449 328 244 c 0,5,6
 328 158 328 158 377 158 c 0,7,8
 421 158 421 158 492 242.5 c 128,-1,9
 563 327 563 327 567 344 c 2,10,-1
 698 827 l 1,0,1
526 184 m 1,11,12
 391 -29 391 -29 223 -29 c 0,13,14
 145 -29 145 -29 93 45.5 c 128,-1,15
 41 120 41 120 41 240 c 0,16,17
 41 519 41 519 210 742 c 128,-1,18
 379 965 379 965 616 965 c 0,19,20
 670 965 670 965 729 940 c 1,21,-1
 764 1067 l 1,22,-1
 537 1067 l 1,23,-1
 563 1159 l 1,24,-1
 786 1159 l 1,25,26
 795 1186 795 1186 795 1214 c 0,27,28
 795 1233 795 1233 779.5 1245.5 c 128,-1,29
 764 1258 764 1258 657 1262 c 1,30,-1
 657 1325 l 1,31,-1
 1053 1421 l 1,32,-1
 1135 1421 l 1,33,-1
 1063 1159 l 1,34,-1
 1241 1159 l 1,35,-1
 1214 1067 l 1,36,-1
 1038 1067 l 1,37,-1
 817 242 l 2,38,39
 801 180 801 180 801 154 c 0,40,41
 801 142 801 142 810.5 132.5 c 128,-1,42
 820 123 820 123 831 123 c 0,43,44
 891 123 891 123 969 231 c 1,45,-1
 1026 193 l 1,46,47
 878 -29 878 -29 664 -29 c 0,48,49
 595 -29 595 -29 554.5 8.5 c 128,-1,50
 514 46 514 46 514 94 c 0,51,52
 514 143 514 143 526 184 c 1,11,12
EndSplineSet
EndChar
StartChar: Eogonek
Encoding: 280 280 262
Width: 1366
Flags: W
Fore
1450 1356 m 1,0,-1
 1354 1020 l 1,1,-1
 1286 1020 l 1,2,3
 1309 1098 1309 1098 1309 1143 c 0,4,5
 1309 1208 1309 1208 1261 1229.5 c 128,-1,6
 1213 1251 1213 1251 1094 1251 c 2,7,-1
 766 1251 l 1,8,-1
 627 762 l 1,9,-1
 856 762 l 2,10,11
 948 762 948 762 986.5 771 c 128,-1,12
 1025 780 1025 780 1049.5 816.5 c 128,-1,13
 1074 853 1074 853 1100 946 c 1,14,-1
 1167 946 l 1,15,-1
 1032 471 l 1,16,-1
 965 471 l 1,17,18
 989 554 989 554 989 594 c 0,19,20
 989 636 989 636 954.5 646.5 c 128,-1,21
 920 657 920 657 825 657 c 2,22,-1
 596 657 l 1,23,-1
 503 332 l 2,24,25
 463 191 463 191 460 178.5 c 128,-1,26
 457 166 457 166 457 154 c 0,27,28
 457 125 457 125 478 114.5 c 128,-1,29
 499 104 499 104 549 104 c 2,30,-1
 807 104 l 2,31,32
 1077 104 1077 104 1159 391 c 1,33,-1
 1227 391 l 1,34,-1
 1114 0 l 1,35,-1
 862 0 l 1,36,37
 758 -101 758 -101 758 -190 c 0,38,39
 758 -239 758 -239 790 -269 c 128,-1,40
 822 -299 822 -299 870 -299 c 0,41,42
 965 -299 965 -299 1047 -231 c 1,43,-1
 1083 -279 l 1,44,45
 1033 -334 1033 -334 953 -370 c 128,-1,46
 873 -406 873 -406 797 -406 c 0,47,48
 685 -406 685 -406 618 -357.5 c 128,-1,49
 551 -309 551 -309 551 -225 c 0,50,51
 551 -109 551 -109 748 0 c 1,52,-1
 -66 0 l 1,53,-1
 -49 68 l 1,54,55
 58 68 58 68 98 91.5 c 128,-1,56
 138 115 138 115 182 268 c 2,57,-1
 418 1087 l 2,58,59
 446 1181 446 1181 446 1219 c 0,60,61
 446 1288 446 1288 281 1288 c 1,62,-1
 297 1356 l 1,63,-1
 1450 1356 l 1,0,-1
EndSplineSet
EndChar
StartChar: eogonek
Encoding: 281 281 263
Width: 909
Flags: W
Fore
365 455 m 1,0,1
 496 469 496 469 564.5 565.5 c 128,-1,2
 633 662 633 662 633 754 c 0,3,4
 633 877 633 877 584 877 c 0,5,6
 526 877 526 877 467 761.5 c 128,-1,7
 408 646 408 646 365 455 c 1,0,1
365 -29 m 0,8,9
 225 -29 225 -29 137 55 c 128,-1,10
 49 139 49 139 49 274 c 0,11,12
 49 543 49 543 215 754 c 128,-1,13
 381 965 381 965 647 965 c 0,14,15
 771 965 771 965 836 903 c 128,-1,16
 901 841 901 841 901 737 c 0,17,18
 901 582 901 582 756.5 480 c 128,-1,19
 612 378 612 378 350 362 c 1,20,21
 340 296 340 296 340 252 c 0,22,23
 340 190 340 190 373.5 155.5 c 128,-1,24
 407 121 407 121 465 121 c 0,25,26
 605 121 605 121 762 252 c 1,27,-1
 805 193 l 1,28,29
 738 110 738 110 623 16 c 0,30,31
 500 -83 500 -83 500 -190 c 0,32,33
 500 -240 500 -240 532.5 -269.5 c 128,-1,34
 565 -299 565 -299 612 -299 c 0,35,36
 707 -299 707 -299 788 -231 c 1,37,-1
 825 -279 l 1,38,39
 775 -334 775 -334 695 -370 c 128,-1,40
 615 -406 615 -406 539 -406 c 0,41,42
 427 -406 427 -406 360 -357.5 c 128,-1,43
 293 -309 293 -309 293 -225 c 0,44,45
 293 -123 293 -123 455 -18 c 1,46,47
 405 -29 405 -29 365 -29 c 0,8,9
EndSplineSet
EndChar
StartChar: glyph296
Encoding: 65541 -1 296
Width: 682
Flags: W
Fore
171 -379 m 1,0,1
 246 -379 246 -379 292.5 -358.5 c 128,-1,2
 339 -338 339 -338 339 -313 c 0,3,4
 339 -301 339 -301 331 -296.5 c 128,-1,5
 323 -292 323 -292 290 -289 c 0,6,7
 214 -281 214 -281 214 -223 c 0,8,9
 214 -173 214 -173 257 -143 c 128,-1,10
 300 -113 300 -113 364 -113 c 0,11,12
 419 -113 419 -113 453 -141 c 128,-1,13
 487 -169 487 -169 487 -215 c 0,14,15
 487 -317 487 -317 399.5 -378.5 c 128,-1,16
 312 -440 312 -440 155 -440 c 1,17,-1
 171 -379 l 1,0,1
EndSplineSet
EndChar
StartChar: currency
Encoding: 164 164 297
Width: 1024
Flags: W
Fore
993 326 m 1,0,-1
 901 233 l 1,1,-1
 776 358 l 1,2,3
 679 287 679 287 553 287 c 0,4,5
 430 287 430 287 330 358 c 1,6,-1
 205 233 l 1,7,-1
 113 326 l 1,8,-1
 236 449 l 1,9,10
 164 551 164 551 164 676 c 0,11,12
 164 799 164 799 236 899 c 1,13,-1
 113 1022 l 1,14,-1
 205 1114 l 1,15,-1
 326 991 l 1,16,17
 427 1065 427 1065 553 1065 c 0,18,19
 683 1065 683 1065 778 991 c 1,20,-1
 901 1114 l 1,21,-1
 993 1022 l 1,22,-1
 870 899 l 1,23,24
 942 802 942 802 942 676 c 0,25,26
 942 547 942 547 868 449 c 1,27,-1
 993 326 l 1,0,-1
553 418 m 0,28,29
 658 418 658 418 734.5 494 c 128,-1,30
 811 570 811 570 811 676 c 0,31,32
 811 781 811 781 734.5 857.5 c 128,-1,33
 658 934 658 934 553 934 c 0,34,35
 448 934 448 934 371.5 857.5 c 128,-1,36
 295 781 295 781 295 676 c 0,37,38
 295 570 295 570 371 494 c 128,-1,39
 447 418 447 418 553 418 c 0,28,29
EndSplineSet
EndChar
StartChar: afii10051
Encoding: 1026 1026 299
Width: 1675
Flags: W
Fore
868 827 m 1,0,1
 1073 965 1073 965 1255 965 c 0,2,3
 1421 965 1421 965 1521.5 863.5 c 128,-1,4
 1622 762 1622 762 1622 610 c 0,5,6
 1622 346 1622 346 1449 158.5 c 128,-1,7
 1276 -29 1276 -29 1010 -29 c 0,8,9
 947 -29 947 -29 891 -6 c 1,10,-1
 909 59 l 1,11,12
 966 39 966 39 1028 39 c 0,13,14
 1142 39 1142 39 1223.5 219.5 c 128,-1,15
 1305 400 1305 400 1305 606 c 0,16,17
 1305 708 1305 708 1255.5 773 c 128,-1,18
 1206 838 1206 838 1124 838 c 0,19,20
 1002 838 1002 838 836 717 c 1,21,22
 704 258 704 258 692 213 c 128,-1,23
 680 168 680 168 680 141 c 0,24,25
 680 101 680 101 706 84.5 c 128,-1,26
 732 68 732 68 795 68 c 1,27,-1
 776 0 l 1,28,-1
 158 0 l 1,29,-1
 174 68 l 1,30,31
 283 68 283 68 322.5 93.5 c 128,-1,32
 362 119 362 119 406 268 c 2,33,-1
 688 1247 l 1,34,-1
 539 1247 l 2,35,36
 325 1247 325 1247 252 977 c 1,37,-1
 184 977 l 1,38,-1
 287 1356 l 1,39,-1
 1436 1356 l 1,40,-1
 1350 1059 l 1,41,-1
 1278 1059 l 1,42,43
 1289 1099 1289 1099 1289 1131 c 0,44,45
 1289 1247 1289 1247 1151 1247 c 2,46,-1
 989 1247 l 1,47,-1
 868 827 l 1,0,1
EndSplineSet
EndChar
StartChar: afii10053
Encoding: 1028 1028 301
Width: 1346
Flags: W
Fore
1462 1386 m 1,0,-1
 1356 934 l 1,1,-1
 1294 934 l 1,2,3
 1294 1128 1294 1128 1228.5 1210 c 128,-1,4
 1163 1292 1163 1292 1014 1292 c 0,5,6
 832 1292 832 1292 682.5 1148.5 c 128,-1,7
 533 1005 533 1005 465 762 c 1,8,-1
 666 762 l 2,9,10
 782 762 782 762 831 790 c 128,-1,11
 880 818 880 818 922 915 c 1,12,-1
 987 915 l 1,13,-1
 858 471 l 1,14,-1
 793 471 l 1,15,16
 805 529 805 529 805 563 c 0,17,18
 805 657 805 657 672 657 c 2,19,-1
 442 657 l 1,20,21
 430 584 430 584 430 506 c 0,22,23
 430 318 430 318 508.5 213.5 c 128,-1,24
 587 109 587 109 739 109 c 0,25,26
 1004 109 1004 109 1171 332 c 1,27,-1
 1233 289 l 1,28,29
 1035 -31 1035 -31 674 -31 c 0,30,31
 412 -31 412 -31 263.5 118.5 c 128,-1,32
 115 268 115 268 115 528 c 0,33,34
 115 749 115 749 234.5 950.5 c 128,-1,35
 354 1152 354 1152 562 1269 c 128,-1,36
 770 1386 770 1386 1020 1386 c 0,37,38
 1129 1386 1129 1386 1241 1350 c 0,39,40
 1300 1331 1300 1331 1331 1331 c 0,41,42
 1372 1331 1372 1331 1397 1386 c 1,43,-1
 1462 1386 l 1,0,-1
EndSplineSet
EndChar
StartChar: afii10058
Encoding: 1033 1033 306
Width: 1860
Flags: W
Fore
1186 760 m 1,0,-1
 1257 760 l 2,1,2
 1501 760 1501 760 1639.5 659.5 c 128,-1,3
 1778 559 1778 559 1778 393 c 0,4,5
 1778 296 1778 296 1713.5 202.5 c 128,-1,6
 1649 109 1649 109 1517 54.5 c 128,-1,7
 1385 0 1385 0 1188 0 c 2,8,-1
 496 0 l 1,9,-1
 512 68 l 1,10,11
 629 68 629 68 666 98.5 c 128,-1,12
 703 129 703 129 743 268 c 2,13,-1
 1032 1274 l 1,14,-1
 283 297 l 2,15,16
 188 173 188 173 188 133 c 0,17,18
 188 68 188 68 307 68 c 1,19,-1
 289 0 l 1,20,-1
 -152 0 l 1,21,-1
 -133 68 l 1,22,23
 -56 75 -56 75 -2.5 120 c 128,-1,24
 51 165 51 165 143 285 c 2,25,-1
 915 1288 l 1,26,-1
 688 1288 l 1,27,-1
 709 1356 l 1,28,-1
 1528 1356 l 1,29,-1
 1511 1288 l 1,30,31
 1429 1288 1429 1288 1392 1276.5 c 128,-1,32
 1355 1265 1355 1265 1332.5 1228 c 128,-1,33
 1310 1191 1310 1191 1272 1060 c 2,34,-1
 1186 760 l 1,0,-1
995 92 m 1,35,-1
 1096 92 l 2,36,37
 1279 92 1279 92 1372.5 190.5 c 128,-1,38
 1466 289 1466 289 1466 455 c 0,39,40
 1466 551 1466 551 1405 609.5 c 128,-1,41
 1344 668 1344 668 1227 668 c 2,42,-1
 1161 668 l 1,43,-1
 995 92 l 1,35,-1
EndSplineSet
KernsSLIFO: 183 -248 1 0
EndChar
StartChar: afii10059
Encoding: 1034 1034 307
Width: 1999
Flags: W
Fore
1346 760 m 1,0,-1
 1397 760 l 2,1,2
 1640 760 1640 760 1778.5 659.5 c 128,-1,3
 1917 559 1917 559 1917 393 c 0,4,5
 1917 296 1917 296 1852.5 202.5 c 128,-1,6
 1788 109 1788 109 1656 54.5 c 128,-1,7
 1524 0 1524 0 1327 0 c 2,8,-1
 692 0 l 1,9,-1
 709 68 l 1,10,11
 769 68 769 68 800 80 c 128,-1,12
 831 92 831 92 852.5 129.5 c 128,-1,13
 874 167 874 167 914 307 c 2,14,-1
 1012 643 l 1,15,-1
 592 643 l 1,16,17
 479 252 479 252 467 208 c 128,-1,18
 455 164 455 164 455 137 c 0,19,20
 455 106 455 106 479.5 89 c 128,-1,21
 504 72 504 72 584 68 c 1,22,-1
 567 0 l 1,23,-1
 -66 0 l 1,24,-1
 -49 68 l 1,25,26
 58 68 58 68 98 91.5 c 128,-1,27
 138 115 138 115 182 268 c 2,28,-1
 418 1087 l 2,29,30
 446 1181 446 1181 446 1219 c 0,31,32
 446 1288 446 1288 281 1288 c 1,33,-1
 297 1356 l 1,34,-1
 930 1356 l 1,35,-1
 913 1288 l 1,36,37
 851 1288 851 1288 820 1275 c 128,-1,38
 789 1262 789 1262 767.5 1222 c 128,-1,39
 746 1182 746 1182 709 1053 c 2,40,-1
 625 758 l 1,41,-1
 1044 758 l 1,42,43
 1144 1106 1144 1106 1155.5 1150 c 128,-1,44
 1167 1194 1167 1194 1167 1219 c 0,45,46
 1167 1286 1167 1286 1038 1288 c 1,47,-1
 1055 1356 l 1,48,-1
 1688 1356 l 1,49,-1
 1671 1288 l 1,50,51
 1589 1288 1589 1288 1551.5 1276 c 128,-1,52
 1514 1264 1514 1264 1492 1227 c 128,-1,53
 1470 1190 1470 1190 1432 1060 c 2,54,-1
 1346 760 l 1,0,-1
1155 92 m 1,55,-1
 1235 92 l 2,56,57
 1419 92 1419 92 1512.5 190.5 c 128,-1,58
 1606 289 1606 289 1606 455 c 0,59,60
 1606 551 1606 551 1544.5 609.5 c 128,-1,61
 1483 668 1483 668 1366 668 c 2,62,-1
 1321 668 l 1,63,-1
 1155 92 l 1,55,-1
EndSplineSet
KernsSLIFO: 183 -180 1 0
EndChar
StartChar: afii10060
Encoding: 1035 1035 308
Width: 1661
Flags: W
Fore
1501 68 m 1,0,-1
 1485 0 l 1,1,-1
 870 0 l 1,2,-1
 891 68 l 1,3,4
 930 68 930 68 954 75.5 c 128,-1,5
 978 83 978 83 997.5 107 c 128,-1,6
 1017 131 1017 131 1032 170.5 c 128,-1,7
 1047 210 1047 210 1083 338 c 2,8,-1
 1149 565 l 2,9,10
 1178 665 1178 665 1178 711 c 0,11,12
 1178 752 1178 752 1152.5 780.5 c 128,-1,13
 1127 809 1127 809 1092 809 c 0,14,15
 996 809 996 809 774 672 c 1,16,17
 653 253 653 253 642 211.5 c 128,-1,18
 631 170 631 170 631 141 c 0,19,20
 631 101 631 101 657 84.5 c 128,-1,21
 683 68 683 68 745 68 c 1,22,-1
 727 0 l 1,23,-1
 109 0 l 1,24,-1
 125 68 l 1,25,26
 243 68 243 68 280 100 c 128,-1,27
 317 132 317 132 356 268 c 2,28,-1
 639 1247 l 1,29,-1
 539 1247 l 2,30,31
 325 1247 325 1247 252 977 c 1,32,-1
 184 977 l 1,33,-1
 287 1356 l 1,34,-1
 1364 1356 l 1,35,-1
 1274 1059 l 1,36,-1
 1206 1059 l 1,37,38
 1219 1124 1219 1124 1219 1155 c 0,39,40
 1219 1247 1219 1247 1073 1247 c 2,41,-1
 940 1247 l 1,42,-1
 807 786 l 1,43,44
 1058 944 1058 944 1251 944 c 0,45,46
 1350 944 1350 944 1414.5 879.5 c 128,-1,47
 1479 815 1479 815 1479 725 c 0,48,49
 1479 668 1479 668 1460 602 c 2,50,-1
 1364 268 l 2,51,52
 1335 175 1335 175 1335 137 c 0,53,54
 1335 68 1335 68 1501 68 c 1,0,-1
EndSplineSet
EndChar
StartChar: afii10062
Encoding: 1038 1038 310
Width: 1425
Flags: W
Fore
1661 1356 m 1,0,-1
 1640 1288 l 1,1,2
 1579 1288 1579 1288 1517 1252.5 c 128,-1,3
 1455 1217 1455 1217 1352 1087 c 2,4,-1
 682 250 l 2,5,6
 565 103 565 103 452 36 c 128,-1,7
 339 -31 339 -31 209 -31 c 0,8,9
 45 -31 45 -31 45 82 c 0,10,11
 45 123 45 123 79.5 151.5 c 128,-1,12
 114 180 114 180 162 180 c 0,13,14
 219 180 219 180 273 134 c 0,15,16
 306 106 306 106 328 106 c 0,17,18
 374 106 374 106 426.5 134 c 128,-1,19
 479 162 479 162 563 264 c 1,20,-1
 373 1102 l 2,21,22
 347 1211 347 1211 312.5 1246 c 128,-1,23
 278 1281 278 1281 199 1288 c 1,24,-1
 219 1356 l 1,25,-1
 856 1356 l 1,26,-1
 836 1288 l 1,27,28
 657 1288 657 1288 657 1182 c 0,29,30
 657 1148 657 1148 684 1029 c 2,31,-1
 793 543 l 1,32,33
 1192 1053 1192 1053 1239 1117.5 c 128,-1,34
 1286 1182 1286 1182 1286 1225 c 0,35,36
 1286 1259 1286 1259 1260 1273.5 c 128,-1,37
 1234 1288 1234 1288 1176 1288 c 1,38,-1
 1196 1356 l 1,39,-1
 1661 1356 l 1,0,-1
1462 1737 m 1,40,41
 1376 1629 1376 1629 1254.5 1564 c 128,-1,42
 1133 1499 1133 1499 1012 1499 c 0,43,44
 872 1499 872 1499 787 1557 c 128,-1,45
 702 1615 702 1615 702 1698 c 0,46,47
 702 1741 702 1741 728 1772.5 c 128,-1,48
 754 1804 754 1804 793 1804 c 0,49,50
 880 1804 880 1804 893 1692 c 0,51,52
 910 1554 910 1554 1026 1554 c 0,53,54
 1126 1554 1126 1554 1235.5 1615 c 128,-1,55
 1345 1676 1345 1676 1423 1774 c 1,56,-1
 1462 1737 l 1,40,41
EndSplineSet
EndChar
StartChar: afii10145
Encoding: 1039 1039 311
Width: 1593
Flags: W
Fore
1761 1356 m 1,0,-1
 1745 1288 l 1,1,2
 1637 1288 1637 1288 1597 1264.5 c 128,-1,3
 1557 1241 1557 1241 1513 1087 c 2,4,-1
 1278 268 l 2,5,6
 1249 175 1249 175 1249 137 c 0,7,8
 1249 68 1249 68 1415 68 c 1,9,-1
 1399 0 l 1,10,-1
 922 0 l 2,11,12
 828 0 828 0 773.5 -23 c 128,-1,13
 719 -46 719 -46 678 -113 c 128,-1,14
 637 -180 637 -180 598 -315 c 1,15,-1
 524 -315 l 1,16,17
 559 -197 559 -197 559 -129 c 0,18,19
 559 -60 559 -60 519 -30 c 128,-1,20
 479 0 479 0 381 0 c 2,21,-1
 -66 0 l 1,22,-1
 -49 68 l 1,23,24
 58 68 58 68 98 91.5 c 128,-1,25
 138 115 138 115 182 268 c 2,26,-1
 418 1087 l 2,27,28
 446 1181 446 1181 446 1219 c 0,29,30
 446 1288 446 1288 281 1288 c 1,31,-1
 297 1356 l 1,32,-1
 967 1356 l 1,33,-1
 950 1288 l 1,34,35
 839 1288 839 1288 800.5 1263 c 128,-1,36
 762 1238 762 1238 719 1087 c 2,37,-1
 436 98 l 1,38,-1
 928 98 l 1,39,-1
 1212 1087 l 2,40,41
 1241 1181 1241 1181 1241 1219 c 0,42,43
 1241 1288 1241 1288 1075 1288 c 1,44,-1
 1092 1356 l 1,45,-1
 1761 1356 l 1,0,-1
EndSplineSet
EndChar
StartChar: afii10018
Encoding: 1041 1041 313
Width: 1301
Flags: W
Fore
1360 1356 m 1,0,-1
 1264 1020 l 1,1,-1
 1196 1020 l 1,2,3
 1219 1097 1219 1097 1219 1143 c 0,4,5
 1219 1203 1219 1203 1176 1227 c 128,-1,6
 1133 1251 1133 1251 1004 1251 c 2,7,-1
 766 1251 l 1,8,-1
 625 760 l 1,9,-1
 696 760 l 2,10,11
 940 760 940 760 1078.5 659.5 c 128,-1,12
 1217 559 1217 559 1217 393 c 0,13,14
 1217 296 1217 296 1152.5 202.5 c 128,-1,15
 1088 109 1088 109 955.5 54.5 c 128,-1,16
 823 0 823 0 627 0 c 2,17,-1
 -66 0 l 1,18,-1
 -49 68 l 1,19,20
 58 68 58 68 98 91.5 c 128,-1,21
 138 115 138 115 182 268 c 2,22,-1
 418 1087 l 2,23,24
 446 1185 446 1185 446 1219 c 0,25,26
 446 1288 446 1288 281 1288 c 1,27,-1
 297 1356 l 1,28,-1
 1360 1356 l 1,0,-1
434 92 m 1,29,-1
 535 92 l 2,30,31
 718 92 718 92 811.5 190.5 c 128,-1,32
 905 289 905 289 905 455 c 0,33,34
 905 551 905 551 843.5 609.5 c 128,-1,35
 782 668 782 668 666 668 c 2,36,-1
 600 668 l 1,37,-1
 434 92 l 1,29,-1
EndSplineSet
KernsSLIFO: 375 47 1 0 363 -25 1 0 348 25 1 0 341 -29 1 0 338 -57 1 0 335 -55 1 0 333 -27 1 0 332 -55 1 0 331 -82 1 0 319 76 1 0 316 25 1 0 312 -55 1 0
EndChar
StartChar: afii10020
Encoding: 1043 1043 315
Width: 1237
Flags: W
Fore
1401 1356 m 1,0,-1
 1305 1020 l 1,1,-1
 1237 1020 l 1,2,3
 1260 1097 1260 1097 1260 1143 c 0,4,5
 1260 1203 1260 1203 1217 1227 c 128,-1,6
 1174 1251 1174 1251 1044 1251 c 2,7,-1
 766 1251 l 1,8,-1
 481 260 l 2,9,10
 457 180 457 180 457 139 c 0,11,12
 457 98 457 98 489.5 83 c 128,-1,13
 522 68 522 68 662 68 c 1,14,-1
 643 0 l 1,15,-1
 -66 0 l 1,16,-1
 -49 68 l 1,17,18
 58 68 58 68 98 91.5 c 128,-1,19
 138 115 138 115 182 268 c 2,20,-1
 418 1087 l 2,21,22
 446 1181 446 1181 446 1219 c 0,23,24
 446 1288 446 1288 281 1288 c 1,25,-1
 297 1356 l 1,26,-1
 1401 1356 l 1,0,-1
EndSplineSet
KernsSLIFO: 375 -82 1 0 374 -133 1 0 372 -102 1 0 371 -109 1 0 363 -88 1 0 360 -57 1 0 358 -106 1 0 357 -61 1 0 356 -82 1 0 355 -109 1 0 352 -39 1 0 349 -61 1 0 348 -37 1 0 346 -78 1 0 344 -51 1 0 343 -27 1 0 326 -27 1 0 324 -51 1 0 323 -141 1 0 319 39 1 0 316 -154 1 0 312 -154 1 0 29 51 1 0 17 -154 1 0 15 -129 1 0
EndChar
StartChar: afii10021
Encoding: 1044 1044 316
Width: 1399
Flags: W
Fore
1327 68 m 1,0,-1
 1219 -315 l 1,1,-1
 1151 -315 l 1,2,3
 1163 -218 1163 -218 1163 -184 c 0,4,5
 1163 -83 1163 -83 1116.5 -41.5 c 128,-1,6
 1070 0 1070 0 950 0 c 2,7,-1
 225 0 l 2,8,9
 73 0 73 0 -5.5 -70 c 128,-1,10
 -84 -140 -84 -140 -156 -315 c 1,11,-1
 -223 -315 l 1,12,-1
 -115 68 l 1,13,14
 -60 68 -60 68 -25.5 85 c 128,-1,15
 9 102 9 102 28.5 126.5 c 128,-1,16
 48 151 48 151 98 227 c 2,17,-1
 860 1386 l 1,18,-1
 946 1386 l 1,19,-1
 1176 176 l 2,20,21
 1189 104 1189 104 1223 86 c 128,-1,22
 1257 68 1257 68 1327 68 c 1,0,-1
899 98 m 1,23,-1
 729 1010 l 1,24,-1
 143 98 l 1,25,-1
 899 98 l 1,23,-1
EndSplineSet
KernsSLIFO: 363 51 1 0 332 -39 1 0
EndChar
StartChar: afii10024
Encoding: 1046 1046 318
Width: 1880
Flags: W
Fore
1167 758 m 1,0,-1
 1180 758 l 2,1,2
 1245 758 1245 758 1295 781.5 c 128,-1,3
 1345 805 1345 805 1385 849 c 128,-1,4
 1425 893 1425 893 1526 1045 c 0,5,6
 1627 1196 1627 1196 1676.5 1250 c 128,-1,7
 1726 1304 1726 1304 1783.5 1330 c 128,-1,8
 1841 1356 1841 1356 1907 1356 c 0,9,10
 1980 1356 1980 1356 2020 1328 c 128,-1,11
 2060 1300 2060 1300 2060 1251 c 0,12,13
 2060 1202 2060 1202 2029.5 1173.5 c 128,-1,14
 1999 1145 1999 1145 1954 1145 c 0,15,16
 1903 1145 1903 1145 1856 1191 c 0,17,18
 1828 1219 1828 1219 1810 1219 c 0,19,20
 1774 1219 1774 1219 1739.5 1181.5 c 128,-1,21
 1705 1144 1705 1144 1606 998 c 0,22,23
 1536 896 1536 896 1487.5 829 c 128,-1,24
 1439 762 1439 762 1360 725 c 1,25,26
 1452 697 1452 697 1513.5 616 c 128,-1,27
 1575 535 1575 535 1591 424 c 0,28,29
 1622 201 1622 201 1662 132 c 128,-1,30
 1702 63 1702 63 1786 63 c 0,31,32
 1807 63 1807 63 1841 68 c 1,33,-1
 1821 0 l 1,34,35
 1707 -20 1707 -20 1583 -20 c 0,36,37
 1459 -20 1459 -20 1403 56 c 128,-1,38
 1347 132 1347 132 1319 348 c 0,39,40
 1279 643 1279 643 1147 643 c 2,41,-1
 1135 643 l 1,42,-1
 1031 287 l 2,43,44
 997 170 997 170 997 137 c 0,45,46
 997 68 997 68 1163 68 c 1,47,-1
 1147 0 l 1,48,-1
 477 0 l 1,49,-1
 494 68 l 1,50,51
 573 68 573 68 611 79.5 c 128,-1,52
 649 91 649 91 671.5 126.5 c 128,-1,53
 694 162 694 162 735 303 c 2,54,-1
 834 643 l 1,55,-1
 819 643 l 2,56,57
 701 643 701 643 477 319 c 0,58,59
 351 137 351 137 252.5 58.5 c 128,-1,60
 154 -20 154 -20 2 -20 c 0,61,62
 -122 -20 -122 -20 -195 0 c 1,63,-1
 -174 68 l 1,64,65
 -144 63 -144 63 -123 63 c 0,66,67
 -65 63 -65 63 -6 119.5 c 128,-1,68
 53 176 53 176 260 465 c 0,69,70
 340 577 340 577 450.5 646 c 128,-1,71
 561 715 561 715 680 725 c 1,72,73
 634 749 634 749 614 801 c 128,-1,74
 594 853 594 853 577 1005 c 0,75,76
 561 1145 561 1145 543.5 1182 c 128,-1,77
 526 1219 526 1219 479 1219 c 0,78,79
 458 1219 458 1219 423 1190 c 0,80,81
 367 1145 367 1145 315 1145 c 0,82,83
 280 1145 280 1145 259 1167 c 128,-1,84
 238 1189 238 1189 238 1227 c 0,85,86
 238 1282 238 1282 294.5 1319 c 128,-1,87
 351 1356 351 1356 440 1356 c 0,88,89
 510 1356 510 1356 563.5 1313.5 c 128,-1,90
 617 1271 617 1271 636.5 1209.5 c 128,-1,91
 656 1148 656 1148 673 1002 c 0,92,93
 686 886 686 886 698 845 c 128,-1,94
 710 804 710 804 746 781 c 128,-1,95
 782 758 782 758 852 758 c 2,96,-1
 866 758 l 1,97,98
 967 1110 967 1110 978 1152.5 c 128,-1,99
 989 1195 989 1195 989 1219 c 0,100,101
 989 1288 989 1288 823 1288 c 1,102,-1
 840 1356 l 1,103,-1
 1509 1356 l 1,104,-1
 1493 1288 l 1,105,106
 1413 1288 1413 1288 1375.5 1277 c 128,-1,107
 1338 1266 1338 1266 1315.5 1231 c 128,-1,108
 1293 1196 1293 1196 1256 1066 c 2,109,-1
 1167 758 l 1,0,-1
EndSplineSet
KernsSLIFO: 363 -61 1 0 358 -27 1 0 335 -70 1 0 331 -70 1 0 329 -109 1 0 326 -109 1 0
EndChar
StartChar: afii10025
Encoding: 1047 1047 319
Width: 1042
Flags: W
Fore
420 1386 m 1,0,1
 416 1331 416 1331 455 1331 c 0,2,3
 477 1331 477 1331 535 1349 c 0,4,5
 663 1386 663 1386 768 1386 c 0,6,7
 921 1386 921 1386 1020.5 1300.5 c 128,-1,8
 1120 1215 1120 1215 1120 1094 c 0,9,10
 1120 945 1120 945 993 841 c 128,-1,11
 866 737 866 737 655 711 c 1,12,13
 800 697 800 697 886.5 618.5 c 128,-1,14
 973 540 973 540 973 424 c 0,15,16
 973 245 973 245 809.5 107 c 128,-1,17
 646 -31 646 -31 369 -31 c 0,18,19
 227 -31 227 -31 116.5 43.5 c 128,-1,20
 6 118 6 118 -41 238 c 1,21,-1
 23 279 l 1,22,23
 63 189 63 189 145 140.5 c 128,-1,24
 227 92 227 92 326 92 c 0,25,26
 471 92 471 92 563 193.5 c 128,-1,27
 655 295 655 295 655 426 c 0,28,29
 655 514 655 514 618.5 567.5 c 128,-1,30
 582 621 582 621 522.5 640 c 128,-1,31
 463 659 463 659 348 659 c 1,32,-1
 373 745 l 1,33,34
 583 745 583 745 699 839.5 c 128,-1,35
 815 934 815 934 815 1096 c 0,36,37
 815 1189 815 1189 770.5 1240.5 c 128,-1,38
 726 1292 726 1292 651 1292 c 0,39,40
 539 1292 539 1292 449 1202.5 c 128,-1,41
 359 1113 359 1113 291 934 c 1,42,-1
 225 934 l 1,43,-1
 354 1386 l 1,44,-1
 420 1386 l 1,0,1
EndSplineSet
KernsSLIFO: 348 27 1 0 335 -102 1 0 331 -27 1 0 330 25 1 0
EndChar
StartChar: afii10026
Encoding: 1048 1048 320
Width: 1593
Flags: W
Fore
1761 1356 m 1,0,-1
 1745 1288 l 1,1,2
 1637 1288 1637 1288 1597 1264.5 c 128,-1,3
 1557 1241 1557 1241 1513 1087 c 2,4,-1
 1278 268 l 2,5,6
 1249 175 1249 175 1249 137 c 0,7,8
 1249 68 1249 68 1415 68 c 1,9,-1
 1399 0 l 1,10,-1
 729 0 l 1,11,-1
 745 68 l 1,12,13
 853 68 853 68 893 91.5 c 128,-1,14
 933 115 933 115 977 268 c 2,15,-1
 1208 1073 l 1,16,-1
 408 0 l 1,17,-1
 -66 0 l 1,18,-1
 -49 68 l 1,19,20
 58 68 58 68 98 91.5 c 128,-1,21
 138 115 138 115 182 268 c 2,22,-1
 418 1087 l 2,23,24
 446 1181 446 1181 446 1219 c 0,25,26
 446 1288 446 1288 281 1288 c 1,27,-1
 297 1356 l 1,28,-1
 967 1356 l 1,29,-1
 950 1288 l 1,30,31
 832 1288 832 1288 795 1256.5 c 128,-1,32
 758 1225 758 1225 719 1087 c 2,33,-1
 487 283 l 1,34,-1
 1288 1356 l 1,35,-1
 1761 1356 l 1,0,-1
EndSplineSet
EndChar
StartChar: afii10027
Encoding: 1049 1049 321
Width: 1593
Flags: W
Fore
1761 1356 m 1,0,-1
 1745 1288 l 1,1,2
 1637 1288 1637 1288 1597 1264.5 c 128,-1,3
 1557 1241 1557 1241 1513 1087 c 2,4,-1
 1278 268 l 2,5,6
 1249 175 1249 175 1249 137 c 0,7,8
 1249 68 1249 68 1415 68 c 1,9,-1
 1399 0 l 1,10,-1
 729 0 l 1,11,-1
 745 68 l 1,12,13
 853 68 853 68 893 91.5 c 128,-1,14
 933 115 933 115 977 268 c 2,15,-1
 1208 1073 l 1,16,-1
 408 0 l 1,17,-1
 -66 0 l 1,18,-1
 -49 68 l 1,19,20
 58 68 58 68 98 91.5 c 128,-1,21
 138 115 138 115 182 268 c 2,22,-1
 418 1087 l 2,23,24
 446 1181 446 1181 446 1219 c 0,25,26
 446 1288 446 1288 281 1288 c 1,27,-1
 297 1356 l 1,28,-1
 967 1356 l 1,29,-1
 950 1288 l 1,30,31
 832 1288 832 1288 795 1256.5 c 128,-1,32
 758 1225 758 1225 719 1087 c 2,33,-1
 487 283 l 1,34,-1
 1288 1356 l 1,35,-1
 1761 1356 l 1,0,-1
1495 1737 m 1,36,37
 1409 1629 1409 1629 1287.5 1564 c 128,-1,38
 1166 1499 1166 1499 1044 1499 c 0,39,40
 905 1499 905 1499 820 1557 c 128,-1,41
 735 1615 735 1615 735 1698 c 0,42,43
 735 1741 735 1741 761 1772.5 c 128,-1,44
 787 1804 787 1804 825 1804 c 0,45,46
 913 1804 913 1804 926 1692 c 0,47,48
 942 1554 942 1554 1059 1554 c 0,49,50
 1159 1554 1159 1554 1268.5 1615 c 128,-1,51
 1378 1676 1378 1676 1456 1774 c 1,52,-1
 1495 1737 l 1,36,37
EndSplineSet
EndChar
StartChar: afii10028
Encoding: 1050 1050 322
Width: 1389
Flags: W
Fore
625 758 m 1,0,-1
 657 758 l 2,1,2
 745 758 745 758 810.5 805.5 c 128,-1,3
 876 853 876 853 1001 1038 c 0,4,5
 1132 1232 1132 1232 1219 1294 c 128,-1,6
 1306 1356 1306 1356 1415 1356 c 0,7,8
 1488 1356 1488 1356 1528.5 1328 c 128,-1,9
 1569 1300 1569 1300 1569 1251 c 0,10,11
 1569 1204 1569 1204 1535 1174.5 c 128,-1,12
 1501 1145 1501 1145 1450 1145 c 0,13,14
 1391 1145 1391 1145 1342 1193 c 0,15,16
 1316 1219 1316 1219 1298 1219 c 0,17,18
 1263 1219 1263 1219 1225.5 1182 c 128,-1,19
 1188 1145 1188 1145 1087 1000 c 0,20,21
 989 858 989 858 939.5 802.5 c 128,-1,22
 890 747 890 747 840 725 c 1,23,24
 1041 691 1041 691 1079 424 c 0,25,26
 1108 220 1108 220 1153.5 141.5 c 128,-1,27
 1199 63 1199 63 1294 63 c 0,28,29
 1315 63 1315 63 1350 68 c 1,30,-1
 1329 0 l 1,31,32
 1201 -20 1201 -20 1077 -20 c 0,33,34
 934 -20 934 -20 879.5 78.5 c 128,-1,35
 825 177 825 177 807 346.5 c 128,-1,36
 789 516 789 516 755 579.5 c 128,-1,37
 721 643 721 643 625 643 c 2,38,-1
 592 643 l 1,39,40
 479 252 479 252 467 208 c 128,-1,41
 455 164 455 164 455 137 c 0,42,43
 455 68 455 68 621 68 c 1,44,-1
 604 0 l 1,45,-1
 -66 0 l 1,46,-1
 -49 68 l 1,47,48
 58 68 58 68 98 91.5 c 128,-1,49
 138 115 138 115 182 268 c 2,50,-1
 418 1087 l 2,51,52
 446 1181 446 1181 446 1219 c 0,53,54
 446 1288 446 1288 281 1288 c 1,55,-1
 297 1356 l 1,56,-1
 967 1356 l 1,57,-1
 950 1288 l 1,58,59
 869 1288 869 1288 831 1276 c 128,-1,60
 793 1264 793 1264 770.5 1226 c 128,-1,61
 748 1188 748 1188 711 1058 c 2,62,-1
 625 758 l 1,0,-1
EndSplineSet
KernsSLIFO: 373 -51 1 0 363 -88 1 0 361 -51 1 0 358 -78 1 0 349 -51 1 0 341 -27 1 0 332 -164 1 0 331 -27 1 0 329 -96 1 0 326 -96 1 0
EndChar
StartChar: afii10029
Encoding: 1051 1051 323
Width: 1405
Flags: W
Fore
1352 68 m 1,0,-1
 1333 0 l 1,1,-1
 686 0 l 1,2,-1
 705 68 l 1,3,4
 893 68 893 68 893 156 c 0,5,6
 893 173 893 173 887 205 c 2,7,-1
 729 1010 l 1,8,-1
 221 221 l 2,9,10
 193 178 193 178 193 133 c 0,11,12
 193 68 193 68 311 68 c 1,13,-1
 293 0 l 1,14,-1
 -152 0 l 1,15,-1
 -133 68 l 1,16,17
 -51 68 -51 68 -4.5 105 c 128,-1,18
 42 142 42 142 98 227 c 2,19,-1
 860 1386 l 1,20,-1
 946 1386 l 1,21,-1
 1182 176 l 2,22,23
 1193 115 1193 115 1231.5 91.5 c 128,-1,24
 1270 68 1270 68 1352 68 c 1,0,-1
EndSplineSet
KernsSLIFO: 363 39 1 0
EndChar
StartChar: afii10033
Encoding: 1055 1055 327
Width: 1593
Flags: W
Fore
1761 1356 m 1,0,-1
 1745 1288 l 1,1,2
 1637 1288 1637 1288 1597 1264.5 c 128,-1,3
 1557 1241 1557 1241 1513 1087 c 2,4,-1
 1278 268 l 2,5,6
 1249 175 1249 175 1249 137 c 0,7,8
 1249 68 1249 68 1415 68 c 1,9,-1
 1399 0 l 1,10,-1
 729 0 l 1,11,-1
 745 68 l 1,12,13
 868 68 868 68 903 100.5 c 128,-1,14
 938 133 938 133 977 268 c 2,15,-1
 1260 1257 l 1,16,-1
 768 1257 l 1,17,-1
 483 268 l 2,18,19
 455 154 455 154 455 137 c 0,20,21
 455 68 455 68 621 68 c 1,22,-1
 604 0 l 1,23,-1
 -66 0 l 1,24,-1
 -49 68 l 1,25,26
 58 68 58 68 98 91.5 c 128,-1,27
 138 115 138 115 182 268 c 2,28,-1
 418 1087 l 2,29,30
 446 1181 446 1181 446 1219 c 0,31,32
 446 1288 446 1288 281 1288 c 1,33,-1
 297 1356 l 1,34,-1
 1761 1356 l 1,0,-1
EndSplineSet
EndChar
StartChar: afii10037
Encoding: 1059 1059 331
Width: 1425
Flags: W
Fore
1661 1356 m 1,0,-1
 1640 1288 l 1,1,2
 1579 1288 1579 1288 1517 1252.5 c 128,-1,3
 1455 1217 1455 1217 1352 1087 c 2,4,-1
 682 250 l 2,5,6
 565 103 565 103 452 36 c 128,-1,7
 339 -31 339 -31 209 -31 c 0,8,9
 45 -31 45 -31 45 82 c 0,10,11
 45 123 45 123 79.5 151.5 c 128,-1,12
 114 180 114 180 162 180 c 0,13,14
 219 180 219 180 273 134 c 0,15,16
 306 106 306 106 328 106 c 0,17,18
 374 106 374 106 426.5 134 c 128,-1,19
 479 162 479 162 563 264 c 1,20,-1
 373 1102 l 2,21,22
 347 1211 347 1211 312.5 1246 c 128,-1,23
 278 1281 278 1281 199 1288 c 1,24,-1
 219 1356 l 1,25,-1
 856 1356 l 1,26,-1
 836 1288 l 1,27,28
 657 1288 657 1288 657 1182 c 0,29,30
 657 1148 657 1148 684 1029 c 2,31,-1
 793 543 l 1,32,33
 1192 1053 1192 1053 1239 1117.5 c 128,-1,34
 1286 1182 1286 1182 1286 1225 c 0,35,36
 1286 1259 1286 1259 1260 1273.5 c 128,-1,37
 1234 1288 1234 1288 1176 1288 c 1,38,-1
 1196 1356 l 1,39,-1
 1661 1356 l 1,0,-1
EndSplineSet
KernsSLIFO: 375 -96 1 0 374 -57 1 0 369 -27 1 0 368 -27 1 0 366 -27 1 0 365 -45 1 0 361 -96 1 0 360 -82 1 0 359 -57 1 0 358 -96 1 0 357 -51 1 0 356 -102 1 0 355 -102 1 0 354 -51 1 0 353 -27 1 0 352 -31 1 0 351 -63 1 0 350 -102 1 0 349 -96 1 0 348 -27 1 0 347 -102 1 0 346 -96 1 0 345 -27 1 0 343 -109 1 0 332 -109 1 0 326 -55 1 0 323 -133 1 0 316 -82 1 0 312 -154 1 0 170 51 1 0 169 25 1 0 29 51 1 0 17 -129 1 0 15 -104 1 0
EndChar
StartChar: afii10038
Encoding: 1060 1060 332
Width: 1741
Flags: W
Fore
1206 1143 m 1,0,1
 1466 1141 1466 1141 1609.5 1040.5 c 128,-1,2
 1753 940 1753 940 1753 774 c 0,3,4
 1753 538 1753 538 1526 376.5 c 128,-1,5
 1299 215 1299 215 940 213 c 1,6,7
 926 159 926 159 926 137 c 0,8,9
 926 68 926 68 1092 68 c 1,10,-1
 1075 0 l 1,11,-1
 406 0 l 1,12,-1
 422 68 l 1,13,14
 529 68 529 68 568 93 c 128,-1,15
 607 118 607 118 637 213 c 1,16,17
 377 214 377 214 233.5 315 c 128,-1,18
 90 416 90 416 90 582 c 0,19,20
 90 817 90 817 318 979 c 128,-1,21
 546 1141 546 1141 903 1143 c 1,22,23
 918 1197 918 1197 918 1219 c 0,24,25
 918 1288 918 1288 752 1288 c 1,26,-1
 768 1356 l 1,27,-1
 1438 1356 l 1,28,-1
 1421 1288 l 1,29,30
 1314 1288 1314 1288 1275 1263 c 128,-1,31
 1236 1238 1236 1238 1206 1143 c 1,0,1
967 311 m 1,32,33
 1156 311 1156 311 1307 440 c 128,-1,34
 1458 569 1458 569 1458 774 c 0,35,36
 1458 914 1458 914 1380 979 c 128,-1,37
 1302 1044 1302 1044 1178 1044 c 1,38,-1
 967 311 l 1,32,33
877 1044 m 1,39,40
 687 1044 687 1044 536 915.5 c 128,-1,41
 385 787 385 787 385 582 c 0,42,43
 385 450 385 450 459 380.5 c 128,-1,44
 533 311 533 311 666 311 c 1,45,-1
 877 1044 l 1,39,40
EndSplineSet
KernsSLIFO: 355 -31 1 0 343 -27 1 0 335 -70 1 0 331 -158 1 0 330 -27 1 0 326 25 1 0 324 -12 1 0 323 -27 1 0 316 -96 1 0 312 -102 1 0
EndChar
StartChar: afii10040
Encoding: 1062 1062 334
Width: 1593
Flags: W
Fore
1761 1356 m 1,0,-1
 1745 1288 l 1,1,2
 1637 1288 1637 1288 1597 1264.5 c 128,-1,3
 1557 1241 1557 1241 1513 1087 c 2,4,-1
 1278 268 l 2,5,6
 1249 175 1249 175 1249 137 c 0,7,8
 1249 68 1249 68 1415 68 c 1,9,-1
 1307 -315 l 1,10,-1
 1239 -315 l 1,11,12
 1251 -218 1251 -218 1251 -184 c 0,13,14
 1251 -80 1251 -80 1203 -40 c 128,-1,15
 1155 0 1155 0 1038 0 c 2,16,-1
 -66 0 l 1,17,-1
 -49 68 l 1,18,19
 58 68 58 68 98 91.5 c 128,-1,20
 138 115 138 115 182 268 c 2,21,-1
 418 1087 l 2,22,23
 446 1181 446 1181 446 1219 c 0,24,25
 446 1288 446 1288 281 1288 c 1,26,-1
 297 1356 l 1,27,-1
 967 1356 l 1,28,-1
 950 1288 l 1,29,30
 839 1288 839 1288 800.5 1263 c 128,-1,31
 762 1238 762 1238 719 1087 c 2,32,-1
 436 98 l 1,33,-1
 928 98 l 1,34,-1
 1212 1087 l 2,35,36
 1241 1181 1241 1181 1241 1219 c 0,37,38
 1241 1288 1241 1288 1075 1288 c 1,39,-1
 1092 1356 l 1,40,-1
 1761 1356 l 1,0,-1
EndSplineSet
EndChar
StartChar: afii10041
Encoding: 1063 1063 335
Width: 1532
Flags: W
Fore
1700 1356 m 1,0,-1
 1683 1288 l 1,1,2
 1576 1288 1576 1288 1536 1264.5 c 128,-1,3
 1496 1241 1496 1241 1452 1087 c 2,4,-1
 1217 268 l 2,5,6
 1188 175 1188 175 1188 137 c 0,7,8
 1188 68 1188 68 1354 68 c 1,9,-1
 1337 0 l 1,10,-1
 631 0 l 1,11,-1
 647 68 l 1,12,13
 748 68 748 68 793 80 c 128,-1,14
 838 92 838 92 862 129 c 128,-1,15
 886 166 886 166 925 304 c 2,16,-1
 1018 627 l 1,17,18
 755 473 755 473 586 473 c 0,19,20
 453 473 453 473 374 531.5 c 128,-1,21
 295 590 295 590 295 696 c 0,22,23
 295 739 295 739 312 800 c 2,24,-1
 393 1087 l 2,25,26
 422 1181 422 1181 422 1219 c 0,27,28
 422 1288 422 1288 256 1288 c 1,29,-1
 272 1356 l 1,30,-1
 942 1356 l 1,31,-1
 926 1288 l 1,32,33
 861 1288 861 1288 826.5 1281.5 c 128,-1,34
 792 1275 792 1275 769.5 1255.5 c 128,-1,35
 747 1236 747 1236 731 1198.5 c 128,-1,36
 715 1161 715 1161 687 1061 c 2,37,-1
 629 858 l 2,38,39
 600 757 600 757 600 721 c 0,40,41
 600 658 600 658 629.5 633 c 128,-1,42
 659 608 659 608 723 608 c 0,43,44
 869 608 869 608 1044 721 c 1,45,46
 1156 1103 1156 1103 1168 1147.5 c 128,-1,47
 1180 1192 1180 1192 1180 1219 c 0,48,49
 1180 1288 1180 1288 1014 1288 c 1,50,-1
 1030 1356 l 1,51,-1
 1700 1356 l 1,0,-1
EndSplineSet
EndChar
StartChar: afii10042
Encoding: 1064 1064 336
Width: 2306
Flags: W
Fore
2474 1356 m 1,0,-1
 2458 1288 l 1,1,2
 2350 1288 2350 1288 2310 1264.5 c 128,-1,3
 2270 1241 2270 1241 2226 1087 c 2,4,-1
 1991 268 l 2,5,6
 1962 175 1962 175 1962 137 c 0,7,8
 1962 68 1962 68 2128 68 c 1,9,-1
 2111 0 l 1,10,-1
 -66 0 l 1,11,-1
 -49 68 l 1,12,13
 58 68 58 68 98 91.5 c 128,-1,14
 138 115 138 115 182 268 c 2,15,-1
 418 1087 l 2,16,17
 446 1181 446 1181 446 1219 c 0,18,19
 446 1288 446 1288 281 1288 c 1,20,-1
 297 1356 l 1,21,-1
 938 1356 l 1,22,-1
 922 1288 l 1,23,24
 824 1288 824 1288 791 1256 c 128,-1,25
 758 1224 758 1224 719 1087 c 2,26,-1
 436 98 l 1,27,-1
 887 98 l 1,28,-1
 1171 1087 l 2,29,30
 1200 1181 1200 1181 1200 1219 c 0,31,32
 1200 1288 1200 1288 1083 1288 c 1,33,-1
 1100 1356 l 1,34,-1
 1671 1356 l 1,35,-1
 1655 1288 l 1,36,37
 1572 1288 1572 1288 1541.5 1255 c 128,-1,38
 1511 1222 1511 1222 1473 1087 c 2,39,-1
 1190 98 l 1,40,-1
 1640 98 l 1,41,-1
 1925 1087 l 2,42,43
 1954 1181 1954 1181 1954 1219 c 0,44,45
 1954 1288 1954 1288 1817 1288 c 1,46,-1
 1833 1356 l 1,47,-1
 2474 1356 l 1,0,-1
EndSplineSet
EndChar
StartChar: afii10043
Encoding: 1065 1065 337
Width: 2306
Flags: W
Fore
2474 1356 m 1,0,-1
 2458 1288 l 1,1,2
 2350 1288 2350 1288 2310 1264.5 c 128,-1,3
 2270 1241 2270 1241 2226 1087 c 2,4,-1
 1991 268 l 2,5,6
 1962 175 1962 175 1962 137 c 0,7,8
 1962 68 1962 68 2128 68 c 1,9,-1
 2019 -315 l 1,10,-1
 1952 -315 l 1,11,12
 1964 -218 1964 -218 1964 -184 c 0,13,14
 1964 -80 1964 -80 1916 -40 c 128,-1,15
 1868 0 1868 0 1751 0 c 2,16,-1
 -66 0 l 1,17,-1
 -49 68 l 1,18,19
 58 68 58 68 98 91.5 c 128,-1,20
 138 115 138 115 182 268 c 2,21,-1
 418 1087 l 2,22,23
 446 1181 446 1181 446 1219 c 0,24,25
 446 1288 446 1288 281 1288 c 1,26,-1
 297 1356 l 1,27,-1
 938 1356 l 1,28,-1
 922 1288 l 1,29,30
 824 1288 824 1288 791 1256 c 128,-1,31
 758 1224 758 1224 719 1087 c 2,32,-1
 436 98 l 1,33,-1
 887 98 l 1,34,-1
 1171 1087 l 2,35,36
 1200 1181 1200 1181 1200 1219 c 0,37,38
 1200 1288 1200 1288 1083 1288 c 1,39,-1
 1100 1356 l 1,40,-1
 1671 1356 l 1,41,-1
 1655 1288 l 1,42,43
 1572 1288 1572 1288 1541.5 1255 c 128,-1,44
 1511 1222 1511 1222 1473 1087 c 2,45,-1
 1190 98 l 1,46,-1
 1640 98 l 1,47,-1
 1925 1087 l 2,48,49
 1954 1181 1954 1181 1954 1219 c 0,50,51
 1954 1288 1954 1288 1817 1288 c 1,52,-1
 1833 1356 l 1,53,-1
 2474 1356 l 1,0,-1
EndSplineSet
EndChar
StartChar: afii10044
Encoding: 1066 1066 338
Width: 1557
Flags: W
Fore
883 760 m 1,0,-1
 954 760 l 2,1,2
 1198 760 1198 760 1336.5 659.5 c 128,-1,3
 1475 559 1475 559 1475 393 c 0,4,5
 1475 236 1475 236 1326.5 118 c 128,-1,6
 1178 0 1178 0 885 0 c 2,7,-1
 193 0 l 1,8,-1
 209 68 l 1,9,10
 331 68 331 68 366.5 101 c 128,-1,11
 402 134 402 134 440 268 c 2,12,-1
 721 1247 l 1,13,-1
 539 1247 l 2,14,15
 325 1247 325 1247 252 977 c 1,16,-1
 184 977 l 1,17,-1
 287 1356 l 1,18,-1
 1225 1356 l 1,19,-1
 1208 1288 l 1,20,21
 1126 1288 1126 1288 1089 1276.5 c 128,-1,22
 1052 1265 1052 1265 1029.5 1228 c 128,-1,23
 1007 1191 1007 1191 969 1060 c 2,24,-1
 883 760 l 1,0,-1
692 92 m 1,25,-1
 793 92 l 2,26,27
 976 92 976 92 1069.5 190.5 c 128,-1,28
 1163 289 1163 289 1163 455 c 0,29,30
 1163 551 1163 551 1101.5 609.5 c 128,-1,31
 1040 668 1040 668 924 668 c 2,32,-1
 858 668 l 1,33,-1
 692 92 l 1,25,-1
EndSplineSet
KernsSLIFO: 343 -37 1 0 183 -248 1 0
EndChar
StartChar: afii10045
Encoding: 1067 1067 339
Width: 1985
Flags: W
Fore
2154 1356 m 1,0,-1
 2138 1288 l 1,1,2
 2031 1288 2031 1288 1991 1264.5 c 128,-1,3
 1951 1241 1951 1241 1907 1087 c 2,4,-1
 1671 268 l 2,5,6
 1642 175 1642 175 1642 137 c 0,7,8
 1642 68 1642 68 1808 68 c 1,9,-1
 1792 0 l 1,10,-1
 1122 0 l 1,11,-1
 1139 68 l 1,12,13
 1246 68 1246 68 1286 91.5 c 128,-1,14
 1326 115 1326 115 1370 268 c 2,15,-1
 1606 1087 l 2,16,17
 1634 1181 1634 1181 1634 1219 c 0,18,19
 1634 1288 1634 1288 1468 1288 c 1,20,-1
 1485 1356 l 1,21,-1
 2154 1356 l 1,0,-1
625 760 m 1,22,-1
 655 760 l 2,23,24
 899 760 899 760 1037.5 659.5 c 128,-1,25
 1176 559 1176 559 1176 393 c 0,26,27
 1176 236 1176 236 1027.5 118 c 128,-1,28
 879 0 879 0 586 0 c 2,29,-1
 -66 0 l 1,30,-1
 -49 68 l 1,31,32
 58 68 58 68 98 91.5 c 128,-1,33
 138 115 138 115 182 268 c 2,34,-1
 418 1087 l 2,35,36
 446 1185 446 1185 446 1219 c 0,37,38
 446 1288 446 1288 281 1288 c 1,39,-1
 297 1356 l 1,40,-1
 967 1356 l 1,41,-1
 950 1288 l 1,42,43
 868 1288 868 1288 831 1276 c 128,-1,44
 794 1264 794 1264 771.5 1227 c 128,-1,45
 749 1190 749 1190 711 1060 c 2,46,-1
 625 760 l 1,22,-1
434 92 m 1,47,-1
 494 92 l 2,48,49
 677 92 677 92 770.5 190.5 c 128,-1,50
 864 289 864 289 864 455 c 0,51,52
 864 551 864 551 803 609.5 c 128,-1,53
 742 668 742 668 625 668 c 2,54,-1
 600 668 l 1,55,-1
 434 92 l 1,47,-1
EndSplineSet
EndChar
